<?xml version="1.0" encoding="UTF-8" standalone="no"?><svg xmlns="http://www.w3.org/2000/svg" xmlns:xlink="http://www.w3.org/1999/xlink" contentStyleType="text/css" height="863px" preserveAspectRatio="none" style="width:293px;height:863px;background:#FFFFFF;" version="1.1" viewBox="0 0 293 863" width="293px" zoomAndPan="magnify"><defs/><g><rect height="26.2969" style="stroke:#00000000;stroke-width:1.0;fill:none;" width="104" x="87.5" y="5"/><text fill="#000000" font-family="sans-serif" font-size="14" font-weight="bold" lengthAdjust="spacing" textLength="94" x="92.5" y="22.9951">Deployment</text><!--MD5=[ff6afba9dc7c9016f0d84273cb6c6547]
cluster hdml_io--><g id="cluster_hdml_io"><polygon points="16,237.2969,26,227.2969,276,227.2969,276,767.2969,266,777.2969,16,777.2969,16,237.2969" style="stroke:#181818;stroke-width:1.0;fill:none;"/><line style="stroke:#181818;stroke-width:1.0;fill:none;" x1="266" x2="276" y1="237.2969" y2="227.2969"/><line style="stroke:#181818;stroke-width:1.0;fill:none;" x1="16" x2="266" y1="237.2969" y2="237.2969"/><line style="stroke:#181818;stroke-width:1.0;fill:none;" x1="266" x2="266" y1="237.2969" y2="777.2969"/><text fill="#000000" font-family="sans-serif" font-size="14" font-weight="bold" lengthAdjust="spacing" textLength="57" x="113.5" y="253.292">hdml.io</text></g><!--MD5=[80619740e90c2dda6cdc058cf78582d1]
entity GatewaySvc--><g id="elem_GatewaySvc"><rect fill="#F1F1F1" height="46.2969" rx="2.5" ry="2.5" style="stroke:#181818;stroke-width:0.5;" width="123" x="79.5" y="267.2969"/><rect fill="#F1F1F1" height="10" style="stroke:#181818;stroke-width:0.5;" width="15" x="182.5" y="272.2969"/><rect fill="#F1F1F1" height="2" style="stroke:#181818;stroke-width:0.5;" width="4" x="180.5" y="274.2969"/><rect fill="#F1F1F1" height="2" style="stroke:#181818;stroke-width:0.5;" width="4" x="180.5" y="278.2969"/><text fill="#000000" font-family="sans-serif" font-size="14" lengthAdjust="spacing" textLength="83" x="94.5" y="300.292">GatewaySvc</text></g><!--MD5=[3d5b3b33ddac8729f4afe0ab0f8b6b0f]
entity AuthAPI--><g id="elem_AuthAPI"><ellipse cx="86" cy="402.2969" fill="#F1F1F1" rx="8" ry="8" style="stroke:#181818;stroke-width:0.5;"/><text fill="#000000" font-family="sans-serif" font-size="14" lengthAdjust="spacing" textLength="57" x="57.5" y="432.292">Auth API</text></g><!--MD5=[842601888e0acc3a23d18196eaf04a2b]
entity AuthSvc--><g id="elem_AuthSvc"><rect fill="#F1F1F1" height="46.2969" rx="2.5" ry="2.5" style="stroke:#181818;stroke-width:0.5;" width="96" x="32" y="491.2969"/><rect fill="#F1F1F1" height="10" style="stroke:#181818;stroke-width:0.5;" width="15" x="108" y="496.2969"/><rect fill="#F1F1F1" height="2" style="stroke:#181818;stroke-width:0.5;" width="4" x="106" y="498.2969"/><rect fill="#F1F1F1" height="2" style="stroke:#181818;stroke-width:0.5;" width="4" x="106" y="502.2969"/><text fill="#000000" font-family="sans-serif" font-size="14" lengthAdjust="spacing" textLength="56" x="47" y="524.292">AuthSvc</text></g><!--MD5=[e4e475f877d9d04a7ff5d80e07f039c4]
entity ExecAPI--><g id="elem_ExecAPI"><ellipse cx="206" cy="402.2969" fill="#F1F1F1" rx="8" ry="8" style="stroke:#181818;stroke-width:0.5;"/><text fill="#000000" font-family="sans-serif" font-size="14" lengthAdjust="spacing" textLength="58" x="177" y="432.292">Exec API</text></g><!--MD5=[f69ba4f250664717910dd774e1357632]
entity ExecSvc--><g id="elem_ExecSvc"><rect fill="#F1F1F1" height="46.2969" rx="2.5" ry="2.5" style="stroke:#181818;stroke-width:0.5;" width="97" x="163.5" y="491.2969"/><rect fill="#F1F1F1" height="10" style="stroke:#181818;stroke-width:0.5;" width="15" x="240.5" y="496.2969"/><rect fill="#F1F1F1" height="2" style="stroke:#181818;stroke-width:0.5;" width="4" x="238.5" y="498.2969"/><rect fill="#F1F1F1" height="2" style="stroke:#181818;stroke-width:0.5;" width="4" x="238.5" y="502.2969"/><text fill="#000000" font-family="sans-serif" font-size="14" lengthAdjust="spacing" textLength="57" x="178.5" y="524.292">ExecSvc</text></g><!--MD5=[a7aa228c02dbfb671ede4e58f4625ffd]
entity FSAPI--><g id="elem_FSAPI"><ellipse cx="146" cy="626.2969" fill="#F1F1F1" rx="8" ry="8" style="stroke:#181818;stroke-width:0.5;"/><text fill="#000000" font-family="sans-serif" font-size="14" lengthAdjust="spacing" textLength="42" x="125" y="656.292">FS API</text></g><!--MD5=[3938556d85ccf3c41413e1f939d31ca1]
entity FSSvc--><g id="elem_FSSvc"><rect fill="#F1F1F1" height="46.2969" rx="2.5" ry="2.5" style="stroke:#181818;stroke-width:0.5;" width="81" x="105.5" y="715.2969"/><rect fill="#F1F1F1" height="10" style="stroke:#181818;stroke-width:0.5;" width="15" x="166.5" y="720.2969"/><rect fill="#F1F1F1" height="2" style="stroke:#181818;stroke-width:0.5;" width="4" x="164.5" y="722.2969"/><rect fill="#F1F1F1" height="2" style="stroke:#181818;stroke-width:0.5;" width="4" x="164.5" y="726.2969"/><text fill="#000000" font-family="sans-serif" font-size="14" lengthAdjust="spacing" textLength="41" x="120.5" y="748.292">FSSvc</text></g><!--MD5=[4a65e84059005d12693a083370a06717]
entity client--><g id="elem_client"><polygon fill="#F1F1F1" points="102.5,53.2969,112.5,43.2969,179.5,43.2969,179.5,79.5938,169.5,89.5938,102.5,89.5938,102.5,53.2969" style="stroke:#181818;stroke-width:0.5;"/><line style="stroke:#181818;stroke-width:0.5;" x1="169.5" x2="179.5" y1="53.2969" y2="43.2969"/><line style="stroke:#181818;stroke-width:0.5;" x1="102.5" x2="169.5" y1="53.2969" y2="53.2969"/><line style="stroke:#181818;stroke-width:0.5;" x1="169.5" x2="169.5" y1="53.2969" y2="89.5938"/><text fill="#000000" font-family="sans-serif" font-size="14" lengthAdjust="spacing" textLength="37" x="117.5" y="76.292">client</text></g><!--MD5=[dd3878050c20f00468da85ee0f72c60e]
entity hdml_rest--><g id="elem_hdml_rest"><ellipse cx="141" cy="178.2969" fill="#F1F1F1" rx="8" ry="8" style="stroke:#181818;stroke-width:0.5;"/><text fill="#000000" font-family="sans-serif" font-size="14" lengthAdjust="spacing" textLength="62" x="110" y="208.292">REST API</text></g><!--MD5=[293437d60d5a8e92156ac57a780321b4]
entity hdml_fs--><g id="elem_hdml_fs"><rect fill="#F1F1F1" height="36.2969" rx="35" ry="35" style="stroke:#181818;stroke-width:0.5;" width="70" x="111" y="821.2969"/><text fill="#000000" font-family="sans-serif" font-size="14" lengthAdjust="spacing" textLength="50" x="121" y="844.292">hdml.fs</text></g><!--MD5=[3974ed087447697bd2605e3d07710811]
link client to hdml_rest--><g id="link_client_hdml_rest"><path d="M141,89.5569 C141,110.0369 141,140.0269 141,159.1069 " fill="none" id="client-to-hdml_rest" style="stroke:#181818;stroke-width:1.0;"/><path d="M149.4572,166.0787 A9,9 0 0 0 132.5428 166.0787" fill="none" style="stroke:#181818;stroke-width:1.5;"/></g><!--MD5=[7e594073f7296117be697325c7db1e5f]
link hdml_rest to GatewaySvc--><g id="link_hdml_rest_GatewaySvc"><path d="M141,187.5669 C141,204.2569 141,242.4569 141,267.0069 " fill="none" id="hdml_rest-GatewaySvc" style="stroke:#181818;stroke-width:1.0;"/></g><!--MD5=[556afa6ac18c8ee59888dd7582e19658]
link AuthAPI to AuthSvc--><g id="link_AuthAPI_AuthSvc"><path d="M85.55,411.5669 C84.64,428.2569 82.55,466.4569 81.22,491.0069 " fill="none" id="AuthAPI-AuthSvc" style="stroke:#181818;stroke-width:1.0;"/></g><!--MD5=[e7ee9e746e3cdd074b229580f72f5ec4]
link GatewaySvc to AuthAPI--><g id="link_GatewaySvc_AuthAPI"><path d="M129.87,313.5569 C119.44,334.4169 104.07,365.1569 94.57,384.1669 " fill="none" id="GatewaySvc-to-AuthAPI" style="stroke:#181818;stroke-width:1.0;"/><path d="M99.011,394.1859 A9,9 0 0 0 83.8822 386.6215" fill="none" style="stroke:#181818;stroke-width:1.5;"/></g><!--MD5=[832476680e389044938691772c67c3ea]
link ExecAPI to ExecSvc--><g id="link_ExecAPI_ExecSvc"><path d="M206.45,411.5669 C207.36,428.2569 209.45,466.4569 210.78,491.0069 " fill="none" id="ExecAPI-ExecSvc" style="stroke:#181818;stroke-width:1.0;"/></g><!--MD5=[af3b96facfbc3ec6b5ecf66d190e97cf]
link GatewaySvc to ExecAPI--><g id="link_GatewaySvc_ExecAPI"><path d="M154.15,313.5569 C166.54,334.5169 184.81,365.4369 196.03,384.4269 " fill="none" id="GatewaySvc-to-ExecAPI" style="stroke:#181818;stroke-width:1.0;"/><path d="M206.9028,386.2024 A9,9 0 0 0 192.3435 394.8122" fill="none" style="stroke:#181818;stroke-width:1.5;"/></g><!--MD5=[04b09e5258e1a68248d018b78a2207ae]
link FSAPI to FSSvc--><g id="link_FSAPI_FSSvc"><path d="M146,635.5669 C146,652.2569 146,690.4569 146,715.0069 " fill="none" id="FSAPI-FSSvc" style="stroke:#181818;stroke-width:1.0;"/></g><!--MD5=[9a45b31c6bdb18317f0cf72835bebe42]
link ExecSvc to FSAPI--><g id="link_ExecSvc_FSAPI"><path d="M198.64,537.5569 C186.07,558.5169 167.51,589.4369 156.12,608.4269 " fill="none" id="ExecSvc-to-FSAPI" style="stroke:#181818;stroke-width:1.0;"/><path d="M159.7257,618.8686 A9,9 0 0 0 145.2217 610.1661" fill="none" style="stroke:#181818;stroke-width:1.5;"/></g><!--MD5=[54c5b24b6fed523b680a26346b908bea]
link AuthSvc to FSAPI--><g id="link_AuthSvc_FSAPI"><path d="M93.36,537.5569 C105.93,558.5169 124.49,589.4369 135.88,608.4269 " fill="none" id="AuthSvc-to-FSAPI" style="stroke:#181818;stroke-width:1.0;"/><path d="M146.7783,610.1661 A9,9 0 0 0 132.2743 618.8686" fill="none" style="stroke:#181818;stroke-width:1.5;"/></g><!--MD5=[b8fb01731507ecba56b3331c7de90b66]
reverse link FSSvc to hdml_fs--><g id="link_FSSvc_hdml_fs"><path d="M146,774.8969 C146,790.6469 146,808.4469 146,821.1669 " fill="none" id="FSSvc-backto-hdml_fs" style="stroke:#181818;stroke-width:1.0;"/><polygon fill="#181818" points="146,761.7569,142,767.7569,146,773.7569,150,767.7569,146,761.7569" style="stroke:#181818;stroke-width:1.0;"/></g><!--MD5=[8b59c8d4d30f980111fc13ef27124063]
@startuml Deployment
  title Deployment

  node "client" as client
  interface "REST API" as hdml_rest
  client - -( hdml_rest

  node "hdml.io" as hdml_io {
    component "GatewaySvc" as GatewaySvc
    hdml_rest - - GatewaySvc
    
    interface "Auth API" as AuthAPI
    component "AuthSvc" as AuthSvc
    AuthAPI - - AuthSvc
    GatewaySvc - -( AuthAPI

    interface "Exec API" as ExecAPI
    component "ExecSvc" as ExecSvc
    ExecAPI - - ExecSvc
    GatewaySvc - -( ExecAPI

    interface "FS API" as FSAPI
    component "FSSvc" as FSSvc
    FSAPI - - FSSvc
    ExecSvc - -( FSAPI
    AuthSvc - -( FSAPI
  }
  
  storage "hdml.fs" as hdml_fs
  FSSvc *- - hdml_fs

  ' interface "JDBC API" as executor_jdbc
  ' hdml_io - -( executor_jdbc

  ' interface "REST API" as executor_rest
  ' hdml_io - -( executor_rest

  ' node "executor" as executor
  ' executor_jdbc - - executor
  ' executor_rest - - executor

  ' database "datasource" as datasource
  ' executor "1" o- - "0..*" datasource

  ' database "cache" as cache
  ' executor "1" *- - "1" cache
@enduml

@startuml Deployment
  title Deployment

  node "client" as client
  interface "REST API" as hdml_rest
  client - -( hdml_rest

  node "hdml.io" as hdml_io {
    component "GatewaySvc" as GatewaySvc
    hdml_rest - - GatewaySvc
    
    interface "Auth API" as AuthAPI
    component "AuthSvc" as AuthSvc
    AuthAPI - - AuthSvc
    GatewaySvc - -( AuthAPI

    interface "Exec API" as ExecAPI
    component "ExecSvc" as ExecSvc
    ExecAPI - - ExecSvc
    GatewaySvc - -( ExecAPI

    interface "FS API" as FSAPI
    component "FSSvc" as FSSvc
    FSAPI - - FSSvc
    ExecSvc - -( FSAPI
    AuthSvc - -( FSAPI
  }
  
  storage "hdml.fs" as hdml_fs
  FSSvc *- - hdml_fs





@enduml

PlantUML version 1.2022.5(Sat Apr 30 13:55:52 EEST 2022)
(GPL source distribution)
Java Runtime: OpenJDK Runtime Environment
JVM: OpenJDK 64-Bit Server VM
Default Encoding: UTF-8
Language: en
Country: US
--></g></svg>