<?xml version="1.0" encoding="UTF-8" standalone="no"?><svg xmlns="http://www.w3.org/2000/svg" xmlns:xlink="http://www.w3.org/1999/xlink" contentStyleType="text/css" height="280px" preserveAspectRatio="none" style="width:352px;height:280px;background:#FFFFFF;" version="1.1" viewBox="0 0 352 280" width="352px" zoomAndPan="magnify"><defs/><g><rect height="26.2969" style="stroke:#00000000;stroke-width:1.0;fill:none;" width="141" x="104" y="15"/><text fill="#000000" font-family="sans-serif" font-size="14" font-weight="bold" lengthAdjust="spacing" textLength="131" x="109" y="32.9951">Next Query Flow</text><ellipse cx="176" cy="57.2969" fill="#222222" rx="10" ry="10" style="stroke:#222222;stroke-width:1.0;"/><polygon fill="#F1F1F1" points="133,87.2969,229,87.2969,219,121.2656,123,121.2656" style="stroke:#181818;stroke-width:0.5;"/><text fill="#000000" font-family="sans-serif" font-size="12" lengthAdjust="spacing" textLength="86" x="133" y="108.4355">tenant: string</text><rect fill="#F1F1F1" height="33.9688" style="stroke:#181818;stroke-width:0.5;" width="330" x="11" y="141.2656"/><line style="stroke:#181818;stroke-width:0.5;" x1="16" x2="16" y1="141.2656" y2="175.2344"/><line style="stroke:#181818;stroke-width:0.5;" x1="336" x2="336" y1="141.2656" y2="175.2344"/><text fill="#000000" font-family="sans-serif" font-size="12" lengthAdjust="spacing" textLength="310" x="21" y="162.4043">const list: {[qid: string]: unknown} = list(tenant);</text><rect fill="#F1F1F1" height="33.9688" style="stroke:#181818;stroke-width:0.5;" width="236" x="58" y="195.2344"/><line style="stroke:#181818;stroke-width:0.5;" x1="63" x2="63" y1="195.2344" y2="229.2031"/><line style="stroke:#181818;stroke-width:0.5;" x1="289" x2="289" y1="195.2344" y2="229.2031"/><text fill="#000000" font-family="sans-serif" font-size="12" lengthAdjust="spacing" textLength="216" x="68" y="216.373">const next: unknown = list.filter(q)</text><ellipse cx="176" cy="259.2031" rx="10" ry="10" style="stroke:#222222;stroke-width:1.5;fill:none;"/><line style="stroke:#222222;stroke-width:2.5;fill:none;" x1="169.8128" x2="182.1872" y1="253.0159" y2="265.3903"/><line style="stroke:#222222;stroke-width:2.5;fill:none;" x1="182.1872" x2="169.8128" y1="253.0159" y2="265.3903"/><line style="stroke:#181818;stroke-width:1.0;fill:none;" x1="176" x2="176" y1="67.2969" y2="87.2969"/><polygon fill="#181818" points="172,77.2969,176,87.2969,180,77.2969,176,81.2969" style="stroke:#181818;stroke-width:1.0;"/><line style="stroke:#181818;stroke-width:1.0;" x1="176" x2="176" y1="121.2656" y2="141.2656"/><polygon fill="#181818" points="172,131.2656,176,141.2656,180,131.2656,176,135.2656" style="stroke:#181818;stroke-width:1.0;"/><line style="stroke:#181818;stroke-width:1.0;" x1="176" x2="176" y1="175.2344" y2="195.2344"/><polygon fill="#181818" points="172,185.2344,176,195.2344,180,185.2344,176,189.2344" style="stroke:#181818;stroke-width:1.0;"/><line style="stroke:#181818;stroke-width:1.0;" x1="176" x2="176" y1="229.2031" y2="249.2031"/><polygon fill="#181818" points="172,239.2031,176,249.2031,180,239.2031,176,243.2031" style="stroke:#181818;stroke-width:1.0;"/><!--MD5=[bc553f1cd1804fa04974c4bb7172b778]
@startuml NextQueryFlow
  title Next Query Flow

  start
  :tenant: string/
  :const list: {[qid: string]: unknown} = list(tenant);|
  :const next: unknown = list.filter(q)|
  end
@enduml

PlantUML version 1.2022.5(Sat Apr 30 13:55:52 EEST 2022)
(GPL source distribution)
Java Runtime: OpenJDK Runtime Environment
JVM: OpenJDK 64-Bit Server VM
Default Encoding: UTF-8
Language: en
Country: US
--></g></svg>