<?xml version="1.0" encoding="UTF-8" standalone="no"?><svg xmlns="http://www.w3.org/2000/svg" xmlns:xlink="http://www.w3.org/1999/xlink" contentStyleType="text/css" height="366px" preserveAspectRatio="none" style="width:467px;height:366px;background:#FFFFFF;" version="1.1" viewBox="0 0 467 366" width="467px" zoomAndPan="magnify"><defs/><g><rect fill="none" height="26.2969" id="_title" style="stroke:none;stroke-width:1.0;" width="94" x="179.75" y="5"/><text fill="#000000" font-family="sans-serif" font-size="14" font-weight="bold" lengthAdjust="spacing" textLength="84" x="184.75" y="22.9951">Structures</text><!--MD5=[e3d83ec5fd90ea9f3f2bfe265cb53458]
class Status--><g id="elem_Status"><rect codeLine="3" fill="#F1F1F1" height="129.4844" id="Status" rx="2.5" ry="2.5" style="stroke:#181818;stroke-width:0.5;" width="104" x="45.5" y="44.2969"/><ellipse cx="73.1" cy="60.2969" fill="#EB937F" rx="11" ry="11" style="stroke:#181818;stroke-width:1.0;"/><path d="M77.2094,66.2969 L69.4906,66.2969 L69.4906,53.9063 L77.2094,53.9063 L77.2094,56.0625 L71.9438,56.0625 L71.9438,58.7344 L76.7094,58.7344 L76.7094,60.8906 L71.9438,60.8906 L71.9438,64.1406 L77.2094,64.1406 L77.2094,66.2969 Z " fill="#000000"/><text fill="#000000" font-family="sans-serif" font-size="14" lengthAdjust="spacing" textLength="44" x="89.9" y="65.1436">Status</text><line style="stroke:#181818;stroke-width:0.5;" x1="46.5" x2="148.5" y1="76.2969" y2="76.2969"/><ellipse cx="56.5" cy="89.9453" fill="none" rx="3" ry="3" style="stroke:#038048;stroke-width:1.0;"/><text fill="#000000" font-family="sans-serif" font-size="14" lengthAdjust="spacing" textLength="67" x="65.5" y="93.292">CREATED</text><ellipse cx="56.5" cy="106.2422" fill="none" rx="3" ry="3" style="stroke:#038048;stroke-width:1.0;"/><text fill="#000000" font-family="sans-serif" font-size="14" lengthAdjust="spacing" textLength="51" x="65.5" y="109.5889">ADDED</text><ellipse cx="56.5" cy="122.5391" fill="none" rx="3" ry="3" style="stroke:#038048;stroke-width:1.0;"/><text fill="#000000" font-family="sans-serif" font-size="14" lengthAdjust="spacing" textLength="78" x="65.5" y="125.8857">PROGRESS</text><ellipse cx="56.5" cy="138.8359" fill="none" rx="3" ry="3" style="stroke:#038048;stroke-width:1.0;"/><text fill="#000000" font-family="sans-serif" font-size="14" lengthAdjust="spacing" textLength="47" x="65.5" y="142.1826">FAILED</text><ellipse cx="56.5" cy="155.1328" fill="none" rx="3" ry="3" style="stroke:#038048;stroke-width:1.0;"/><text fill="#000000" font-family="sans-serif" font-size="14" lengthAdjust="spacing" textLength="41" x="65.5" y="158.4795">DONE</text><line style="stroke:#181818;stroke-width:0.5;" x1="46.5" x2="148.5" y1="165.7813" y2="165.7813"/></g><g id="elem_Env"><rect fill="#F1F1F1" height="44.5938" style="stroke:#181818;stroke-width:0.5;" width="276" x="184.5" y="86.2969"/><text fill="#000000" font-family="sans-serif" font-size="14" lengthAdjust="spacing" textLength="25" x="310" y="101.292">Env</text><line style="stroke:#181818;stroke-width:0.5;" x1="185.5" x2="459.5" y1="106.5938" y2="106.5938"/><ellipse cx="195.5" cy="120.2422" fill="none" rx="3" ry="3" style="stroke:#038048;stroke-width:1.0;"/><text fill="#000000" font-family="sans-serif" font-size="14" lengthAdjust="spacing" textLength="250" x="204.5" y="123.5889">[key: string]: boolean|number|string</text></g><g id="elem_User"><rect fill="#F1F1F1" height="60.8906" style="stroke:#181818;stroke-width:0.5;" width="181" x="7" y="265.7969"/><text fill="#000000" font-family="sans-serif" font-size="14" lengthAdjust="spacing" textLength="32" x="81.5" y="280.792">User</text><line style="stroke:#181818;stroke-width:0.5;" x1="8" x2="187" y1="286.0938" y2="286.0938"/><ellipse cx="18" cy="299.7422" fill="none" rx="3" ry="3" style="stroke:#038048;stroke-width:1.0;"/><text fill="#000000" font-family="sans-serif" font-size="14" lengthAdjust="spacing" textLength="93" x="27" y="303.0889">tenant: string</text><ellipse cx="18" cy="316.0391" fill="none" rx="3" ry="3" style="stroke:#038048;stroke-width:1.0;"/><text fill="#000000" font-family="sans-serif" font-size="14" lengthAdjust="spacing" textLength="155" x="27" y="319.3857">[key: string]: unknown</text></g><g id="elem_Query"><rect fill="#F1F1F1" height="126.0781" style="stroke:#181818;stroke-width:0.5;" width="142" x="223.5" y="233.2969"/><text fill="#000000" font-family="sans-serif" font-size="14" lengthAdjust="spacing" textLength="41" x="274" y="248.292">Query</text><line style="stroke:#181818;stroke-width:0.5;" x1="224.5" x2="364.5" y1="253.5938" y2="253.5938"/><ellipse cx="234.5" cy="267.2422" fill="none" rx="3" ry="3" style="stroke:#038048;stroke-width:1.0;"/><text fill="#000000" font-family="sans-serif" font-size="14" lengthAdjust="spacing" textLength="69" x="243.5" y="270.5889">qid: string</text><ellipse cx="234.5" cy="283.5391" fill="none" rx="3" ry="3" style="stroke:#038048;stroke-width:1.0;"/><text fill="#000000" font-family="sans-serif" font-size="14" lengthAdjust="spacing" textLength="68" x="243.5" y="286.8857">sql: string</text><ellipse cx="234.5" cy="299.8359" fill="none" rx="3" ry="3" style="stroke:#038048;stroke-width:1.0;"/><text fill="#000000" font-family="sans-serif" font-size="14" lengthAdjust="spacing" textLength="95" x="243.5" y="303.1826">created: Date</text><ellipse cx="234.5" cy="316.1328" fill="none" rx="3" ry="3" style="stroke:#038048;stroke-width:1.0;"/><text fill="#000000" font-family="sans-serif" font-size="14" lengthAdjust="spacing" textLength="93" x="243.5" y="319.4795">expired: Date</text><ellipse cx="234.5" cy="332.4297" fill="none" rx="3" ry="3" style="stroke:#038048;stroke-width:1.0;"/><text fill="#000000" font-family="sans-serif" font-size="14" lengthAdjust="spacing" textLength="96" x="243.5" y="335.7764">status: Status</text><ellipse cx="234.5" cy="348.7266" fill="none" rx="3" ry="3" style="stroke:#038048;stroke-width:1.0;"/><text fill="#000000" font-family="sans-serif" font-size="14" lengthAdjust="spacing" textLength="116" x="243.5" y="352.0732">result: null|string</text></g><!--MD5=[b6099920fec7ca06d9a3511e304ac51c]
@startuml Structures
  title Structures

  enum Status {
    +CREATED
    +ADDED
    +PROGRESS
    +FAILED
    +DONE
  }

  object Env {
    +[key: string]: boolean|number|string
  }

  object User {
    +tenant: string
    +[key: string]: unknown
  }

  object Query {
    +qid: string
    +sql: string
    +created: Date
    +expired: Date
    +status: Status
    +result: null|string
  }
@enduml

PlantUML version 1.2022.7(Mon Aug 22 10:01:30 PDT 2022)
(GPL source distribution)
Java Runtime: OpenJDK Runtime Environment
JVM: OpenJDK 64-Bit Server VM
Default Encoding: UTF-8
Language: en
Country: US
--></g></svg>