<?xml version="1.0" encoding="UTF-8" standalone="no"?><svg xmlns="http://www.w3.org/2000/svg" xmlns:xlink="http://www.w3.org/1999/xlink" contentStyleType="text/css" height="705px" preserveAspectRatio="none" style="width:382px;height:705px;background:#FFFFFF;" version="1.1" viewBox="0 0 382 705" width="382px" zoomAndPan="magnify"><defs/><g><rect fill="none" height="26.2969" id="_title" style="stroke:none;stroke-width:1.0;" width="183" x="92.5" y="5"/><text fill="#000000" font-family="sans-serif" font-size="14" font-weight="bold" lengthAdjust="spacing" textLength="173" x="97.5" y="22.9951">AbstractChartElement</text><!--MD5=[6316eb990f5110d6cc679acd450eaaf6]
class LitElement--><g id="elem_LitElement"><rect codeLine="3" fill="#F1F1F1" height="243.2656" id="LitElement" rx="2.5" ry="2.5" style="stroke:#181818;stroke-width:0.5;" width="368" x="7" y="44.2969"/><ellipse cx="150.75" cy="60.2969" fill="#ADD1B2" rx="11" ry="11" style="stroke:#181818;stroke-width:1.0;"/><path d="M153.7188,65.9375 Q153.1406,66.2344 152.5,66.375 Q151.8594,66.5313 151.1563,66.5313 Q148.6563,66.5313 147.3281,64.8906 Q146.0156,63.2344 146.0156,60.1094 Q146.0156,56.9844 147.3281,55.3281 Q148.6563,53.6719 151.1563,53.6719 Q151.8594,53.6719 152.5,53.8281 Q153.1563,53.9844 153.7188,54.2813 L153.7188,57 Q153.0938,56.4219 152.5,56.1563 Q151.9063,55.875 151.2813,55.875 Q149.9375,55.875 149.25,56.9531 Q148.5625,58.0156 148.5625,60.1094 Q148.5625,62.2031 149.25,63.2813 Q149.9375,64.3438 151.2813,64.3438 Q151.9063,64.3438 152.5,64.0781 Q153.0938,63.7969 153.7188,63.2188 L153.7188,65.9375 Z " fill="#000000"/><text fill="#000000" font-family="sans-serif" font-size="14" lengthAdjust="spacing" textLength="72" x="171.25" y="65.1436">LitElement</text><line style="stroke:#181818;stroke-width:0.5;" x1="8" x2="374" y1="76.2969" y2="76.2969"/><ellipse cx="18" cy="89.9453" fill="none" rx="3" ry="3" style="stroke:#038048;stroke-width:1.0;"/><text fill="#000000" font-family="sans-serif" font-size="14" lengthAdjust="spacing" textLength="233" x="27" y="93.292">updateComplete: Promise&lt;void&gt;</text><line style="stroke:#181818;stroke-width:1.0;stroke-dasharray:1.0,2.0;" x1="8" x2="374" y1="100.5938" y2="100.5938"/><ellipse cx="18" cy="114.2422" fill="#84BE84" rx="3" ry="3" style="stroke:#038048;stroke-width:1.0;"/><text fill="#000000" font-family="sans-serif" font-size="14" lengthAdjust="spacing" textLength="179" x="27" y="117.5889">connectedCallback(): void</text><ellipse cx="18" cy="130.5391" fill="#84BE84" rx="3" ry="3" style="stroke:#038048;stroke-width:1.0;"/><text fill="#000000" font-family="sans-serif" font-size="14" lengthAdjust="spacing" textLength="199" x="27" y="133.8857">disconnectedCallback(): void</text><ellipse cx="18" cy="146.8359" fill="#84BE84" rx="3" ry="3" style="stroke:#038048;stroke-width:1.0;"/><text fill="#000000" font-family="sans-serif" font-size="14" lengthAdjust="spacing" textLength="151" x="27" y="150.1826">requestUpdate(): void</text><line style="stroke:#181818;stroke-width:1.0;stroke-dasharray:1.0,2.0;" x1="8" x2="374" y1="157.4844" y2="157.4844"/><ellipse cx="18" cy="171.1328" fill="#84BE84" rx="3" ry="3" style="stroke:#038048;stroke-width:1.0;"/><text fill="#000000" font-family="sans-serif" font-size="14" lengthAdjust="spacing" textLength="147" x="27" y="174.4795">performUpdate(): any</text><ellipse cx="18" cy="187.4297" fill="#84BE84" rx="3" ry="3" style="stroke:#038048;stroke-width:1.0;"/><text fill="#000000" font-family="sans-serif" font-size="14" lengthAdjust="spacing" textLength="342" x="27" y="190.7764">shouldUpdate(changedProperties: Map): boolean</text><ellipse cx="18" cy="203.7266" fill="#84BE84" rx="3" ry="3" style="stroke:#038048;stroke-width:1.0;"/><text fill="#000000" font-family="sans-serif" font-size="14" lengthAdjust="spacing" textLength="287" x="27" y="207.0732">willUpdate(changedProperties: Map): void</text><ellipse cx="18" cy="220.0234" fill="#84BE84" rx="3" ry="3" style="stroke:#038048;stroke-width:1.0;"/><text fill="#000000" font-family="sans-serif" font-size="14" lengthAdjust="spacing" textLength="266" x="27" y="223.3701">update(changedProperties: Map): void</text><ellipse cx="18" cy="236.3203" fill="#84BE84" rx="3" ry="3" style="stroke:#038048;stroke-width:1.0;"/><text fill="#000000" font-family="sans-serif" font-size="14" lengthAdjust="spacing" textLength="174" x="27" y="239.667">render(): TemplateResult</text><line style="stroke:#181818;stroke-width:1.0;stroke-dasharray:1.0,2.0;" x1="8" x2="374" y1="246.9688" y2="246.9688"/><ellipse cx="18" cy="260.6172" fill="#84BE84" rx="3" ry="3" style="stroke:#038048;stroke-width:1.0;"/><text fill="#000000" font-family="sans-serif" font-size="14" lengthAdjust="spacing" textLength="301" x="27" y="263.9639">firstUpdated(changedProperties: Map): void</text><ellipse cx="18" cy="276.9141" fill="#84BE84" rx="3" ry="3" style="stroke:#038048;stroke-width:1.0;"/><text fill="#000000" font-family="sans-serif" font-size="14" lengthAdjust="spacing" textLength="275" x="27" y="280.2607">updated(changedProperties: Map): void</text></g><!--MD5=[9c587460f15f5fc853e72759c3ec25a4]
class UnifiedElement--><g id="elem_UnifiedElement"><rect codeLine="20" fill="#F1F1F1" height="96.8906" id="UnifiedElement" rx="2.5" ry="2.5" style="stroke:#181818;stroke-width:0.5;" width="360" x="11" y="347.2969"/><ellipse cx="134.75" cy="363.2969" fill="#ADD1B2" rx="11" ry="11" style="stroke:#181818;stroke-width:1.0;"/><path d="M137.7188,368.9375 Q137.1406,369.2344 136.5,369.375 Q135.8594,369.5313 135.1563,369.5313 Q132.6563,369.5313 131.3281,367.8906 Q130.0156,366.2344 130.0156,363.1094 Q130.0156,359.9844 131.3281,358.3281 Q132.6563,356.6719 135.1563,356.6719 Q135.8594,356.6719 136.5,356.8281 Q137.1563,356.9844 137.7188,357.2813 L137.7188,360 Q137.0938,359.4219 136.5,359.1563 Q135.9063,358.875 135.2813,358.875 Q133.9375,358.875 133.25,359.9531 Q132.5625,361.0156 132.5625,363.1094 Q132.5625,365.2031 133.25,366.2813 Q133.9375,367.3438 135.2813,367.3438 Q135.9063,367.3438 136.5,367.0781 Q137.0938,366.7969 137.7188,366.2188 L137.7188,368.9375 Z " fill="#000000"/><text fill="#000000" font-family="sans-serif" font-size="14" lengthAdjust="spacing" textLength="104" x="155.25" y="368.1436">UnifiedElement</text><line style="stroke:#181818;stroke-width:0.5;" x1="12" x2="370" y1="379.2969" y2="379.2969"/><ellipse cx="22" cy="392.9453" fill="#84BE84" rx="3" ry="3" style="stroke:#038048;stroke-width:1.0;"/><text fill="#000000" font-family="sans-serif" font-size="14" lengthAdjust="spacing" textLength="106" x="31" y="396.292">get uid(): string</text><line style="stroke:#181818;stroke-width:1.0;stroke-dasharray:1.0,2.0;" x1="12" x2="370" y1="403.5938" y2="403.5938"/><ellipse cx="22" cy="417.2422" fill="#84BE84" rx="3" ry="3" style="stroke:#038048;stroke-width:1.0;"/><text fill="#000000" font-family="sans-serif" font-size="14" lengthAdjust="spacing" textLength="303" x="31" y="420.5889">verify(component: UnifiedElement): boolean</text><ellipse cx="22" cy="433.5391" fill="#84BE84" rx="3" ry="3" style="stroke:#038048;stroke-width:1.0;"/><text fill="#000000" font-family="sans-serif" font-size="14" lengthAdjust="spacing" textLength="334" x="31" y="436.8857">queryHdmlChildren(tag: string): UnifiedElement[]</text></g><!--MD5=[d576a5fe9ad5a4422f129e6d9bfb75db]
class AbstractChartElement--><g id="elem_AbstractChartElement"><rect codeLine="27" fill="#F1F1F1" height="194.375" id="AbstractChartElement" rx="2.5" ry="2.5" style="stroke:#181818;stroke-width:0.5;" width="253" x="64.5" y="504.2969"/><ellipse cx="111.25" cy="520.2969" fill="#A9DCDF" rx="11" ry="11" style="stroke:#181818;stroke-width:1.0;"/><path d="M111.3594,515.6406 L110.2031,520.7188 L112.5313,520.7188 L111.3594,515.6406 Z M109.875,513.4063 L112.8594,513.4063 L116.2188,525.7969 L113.7656,525.7969 L113,522.7344 L109.7188,522.7344 L108.9688,525.7969 L106.5313,525.7969 L109.875,513.4063 Z " fill="#000000"/><text fill="#000000" font-family="sans-serif" font-size="14" font-style="italic" lengthAdjust="spacing" textLength="151" x="131.75" y="525.1436">AbstractChartElement</text><line style="stroke:#181818;stroke-width:0.5;" x1="65.5" x2="316.5" y1="536.2969" y2="536.2969"/><ellipse cx="75.5" cy="549.9453" fill="#84BE84" rx="3" ry="3" style="stroke:#038048;stroke-width:1.0;"/><text fill="#000000" font-family="sans-serif" font-size="14" lengthAdjust="spacing" textLength="227" x="84.5" y="553.292">get view(): AbstractChartElement</text><ellipse cx="75.5" cy="566.2422" fill="#84BE84" rx="3" ry="3" style="stroke:#038048;stroke-width:1.0;"/><text fill="#000000" font-family="sans-serif" font-size="14" lengthAdjust="spacing" textLength="225" x="84.5" y="569.5889">get styles(): CSSStyleDeclaration</text><ellipse cx="75.5" cy="582.5391" fill="#84BE84" rx="3" ry="3" style="stroke:#038048;stroke-width:1.0;"/><text fill="#000000" font-family="sans-serif" font-size="14" lengthAdjust="spacing" textLength="195" x="84.5" y="585.8857">get tracked(): TrackedStyles</text><ellipse cx="75.5" cy="598.8359" fill="#84BE84" rx="3" ry="3" style="stroke:#038048;stroke-width:1.0;"/><text fill="#000000" font-family="sans-serif" font-size="14" lengthAdjust="spacing" textLength="188" x="84.5" y="602.1826">get stored(): TrackedStyles</text><line style="stroke:#181818;stroke-width:1.0;stroke-dasharray:1.0,2.0;" x1="65.5" x2="316.5" y1="609.4844" y2="609.4844"/><ellipse cx="75.5" cy="623.1328" fill="#84BE84" rx="3" ry="3" style="stroke:#038048;stroke-width:1.0;"/><text fill="#000000" font-family="sans-serif" font-size="14" lengthAdjust="spacing" textLength="179" x="84.5" y="626.4795">connectedCallback(): void</text><ellipse cx="75.5" cy="639.4297" fill="#84BE84" rx="3" ry="3" style="stroke:#038048;stroke-width:1.0;"/><text fill="#000000" font-family="sans-serif" font-size="14" lengthAdjust="spacing" textLength="199" x="84.5" y="642.7764">disconnectedCallback(): void</text><line style="stroke:#181818;stroke-width:1.0;stroke-dasharray:1.0,2.0;" x1="65.5" x2="316.5" y1="650.0781" y2="650.0781"/><text fill="#000000" font-family="sans-serif" font-size="14" lengthAdjust="spacing" textLength="4" x="70.5" y="667.0732"> </text><line style="stroke:#181818;stroke-width:1.0;stroke-dasharray:1.0,2.0;" x1="65.5" x2="316.5" y1="674.375" y2="674.375"/><text fill="#000000" font-family="sans-serif" font-size="14" lengthAdjust="spacing" textLength="4" x="70.5" y="691.3701"> </text></g><!--MD5=[1f8840acb7b03cd75d83174263f3df93]
reverse link LitElement to UnifiedElement--><g id="link_LitElement_UnifiedElement"><path d="M191,307.6069 C191,321.6469 191,335.1069 191,347.0769 " fill="none" id="LitElement-backto-UnifiedElement" style="stroke:#181818;stroke-width:1.0;"/><polygon fill="none" points="184,307.4769,191,287.4769,198,307.4769,184,307.4769" style="stroke:#181818;stroke-width:1.0;"/></g><!--MD5=[23cf48b7ec67da3a92458740c5b95bf8]
reverse link UnifiedElement to AbstractChartElement--><g id="link_UnifiedElement_AbstractChartElement"><path d="M191,464.8169 C191,477.4069 191,490.7869 191,504.0269 " fill="none" id="UnifiedElement-backto-AbstractChartElement" style="stroke:#181818;stroke-width:1.0;"/><polygon fill="none" points="184,464.5069,191,444.5069,198,464.5069,184,464.5069" style="stroke:#181818;stroke-width:1.0;"/></g><!--MD5=[efae396ee1e3f2a728876209c48098d2]
@startuml abstract_chart_element
  title AbstractChartElement

  class LitElement {
    +updateComplete: Promise<void>
    ....
    +connectedCallback(): void
    +disconnectedCallback(): void
    +requestUpdate(): void
    ....
    +performUpdate(): any
    +shouldUpdate(changedProperties: Map): boolean
    +willUpdate(changedProperties: Map): void
    +update(changedProperties: Map): void
    +render(): TemplateResult
    ....
    +firstUpdated(changedProperties: Map): void
    +updated(changedProperties: Map): void
  }

  class UnifiedElement extends LitElement {
    +get uid(): string
    ....
    +verify(component: UnifiedElement): boolean
    +queryHdmlChildren(tag: string): UnifiedElement[]
  }

  abstract class AbstractChartElement extends UnifiedElement {
    +get view(): AbstractChartElement
    +get styles(): CSSStyleDeclaration
    +get tracked(): TrackedStyles
    +get stored(): TrackedStyles
    ....
    +connectedCallback(): void
    +disconnectedCallback(): void
    ....
    
    ....
    
  }
@enduml

PlantUML version 1.2022.7(Mon Aug 22 19:01:30 CEST 2022)
(GPL source distribution)
Java Runtime: OpenJDK Runtime Environment
JVM: OpenJDK 64-Bit Server VM
Default Encoding: UTF-8
Language: en
Country: US
--></g></svg>