<?xml version="1.0" encoding="UTF-8" standalone="no"?><svg xmlns="http://www.w3.org/2000/svg" xmlns:xlink="http://www.w3.org/1999/xlink" contentStyleType="text/css" height="1347px" preserveAspectRatio="none" style="width:1071px;height:1347px;background:#FFFFFF;" version="1.1" viewBox="0 0 1071 1347" width="1071px" zoomAndPan="magnify"><defs/><g><rect fill="none" height="26.2969" id="_title" style="stroke:none;stroke-width:1.0;" width="273" x="395" y="10"/><text fill="#000000" font-family="sans-serif" font-size="14" font-weight="bold" lengthAdjust="spacing" textLength="263" x="400" y="27.9951">&lt;linear-scale/&gt; append workflow</text><rect fill="#E0E0E0" height="1298.6406" style="stroke:#181818;stroke-width:0.5;" width="619" x="391.5" y="43.2969"/><text fill="#000000" font-family="sans-serif" font-size="13" font-weight="bold" lengthAdjust="spacing" textLength="111" x="643" y="55.3638">&lt;linear-scale/&gt;</text><rect fill="#B3E5FC" height="323.4609" style="stroke:#000000;stroke-width:1.5;" width="905.5" x="121" y="172.9922"/><rect fill="#039BE5" height="133.6641" style="stroke:#000000;stroke-width:1.5;" width="885.5" x="131" y="313.6563"/><rect fill="#B3E5FC" height="351.4609" style="stroke:#000000;stroke-width:1.5;" width="895.5" x="131" y="553.5859"/><rect fill="#039BE5" height="75.3984" style="stroke:#000000;stroke-width:1.5;" width="631" x="385.5" y="619.8516"/><rect fill="#039BE5" height="75.3984" style="stroke:#000000;stroke-width:1.5;" width="411" x="385.5" y="793.5156"/><rect fill="#B3E5FC" height="367.5938" style="stroke:#000000;stroke-width:1.5;" width="678.5" x="375.5" y="919.0469"/><rect fill="#039BE5" height="146.6641" style="stroke:#000000;stroke-width:1.5;" width="658.5" x="385.5" y="943.1797"/><rect fill="#039BE5" height="133.6641" style="stroke:#000000;stroke-width:1.5;" width="631" x="385.5" y="1103.8438"/><line style="stroke:#181818;stroke-width:0.5;stroke-dasharray:5.0,5.0;" x1="175" x2="175" y1="97.7266" y2="1303.6406"/><line style="stroke:#181818;stroke-width:0.5;stroke-dasharray:5.0,5.0;" x1="477.5" x2="477.5" y1="97.7266" y2="1303.6406"/><line style="stroke:#181818;stroke-width:0.5;stroke-dasharray:5.0,5.0;" x1="703.5" x2="703.5" y1="97.7266" y2="1303.6406"/><line style="stroke:#181818;stroke-width:0.5;stroke-dasharray:5.0,5.0;" x1="929.5" x2="929.5" y1="97.7266" y2="1303.6406"/><rect fill="#E2E2F0" height="30.2969" rx="2.5" ry="2.5" style="stroke:#181818;stroke-width:0.5;" width="68" x="141" y="66.4297"/><text fill="#000000" font-family="sans-serif" font-size="14" lengthAdjust="spacing" textLength="54" x="148" y="86.4248">Window</text><rect fill="#E2E2F0" height="30.2969" rx="2.5" ry="2.5" style="stroke:#181818;stroke-width:0.5;" width="68" x="141" y="1302.6406"/><text fill="#000000" font-family="sans-serif" font-size="14" lengthAdjust="spacing" textLength="54" x="148" y="1322.6357">Window</text><rect fill="#E2E2F0" height="30.2969" rx="2.5" ry="2.5" style="stroke:#181818;stroke-width:0.5;" width="165" x="395.5" y="66.4297"/><text fill="#000000" font-family="sans-serif" font-size="14" lengthAdjust="spacing" textLength="151" x="402.5" y="86.4248">AbstractChartElement</text><rect fill="#E2E2F0" height="30.2969" rx="2.5" ry="2.5" style="stroke:#181818;stroke-width:0.5;" width="165" x="395.5" y="1302.6406"/><text fill="#000000" font-family="sans-serif" font-size="14" lengthAdjust="spacing" textLength="151" x="402.5" y="1322.6357">AbstractChartElement</text><rect fill="#E2E2F0" height="30.2969" rx="2.5" ry="2.5" style="stroke:#181818;stroke-width:0.5;" width="165" x="621.5" y="66.4297"/><text fill="#000000" font-family="sans-serif" font-size="14" lengthAdjust="spacing" textLength="151" x="628.5" y="86.4248">AbstractScaleElement</text><rect fill="#E2E2F0" height="30.2969" rx="2.5" ry="2.5" style="stroke:#181818;stroke-width:0.5;" width="165" x="621.5" y="1302.6406"/><text fill="#000000" font-family="sans-serif" font-size="14" lengthAdjust="spacing" textLength="151" x="628.5" y="1322.6357">AbstractScaleElement</text><rect fill="#E2E2F0" height="30.2969" style="stroke:#181818;stroke-width:0.5;" width="149" x="857.5" y="62.4297"/><rect fill="#E2E2F0" height="30.2969" style="stroke:#181818;stroke-width:0.5;" width="149" x="853.5" y="66.4297"/><text fill="#000000" font-family="sans-serif" font-size="14" lengthAdjust="spacing" textLength="135" x="860.5" y="86.4248">LinearScaleElement</text><rect fill="#E2E2F0" height="30.2969" style="stroke:#181818;stroke-width:0.5;" width="149" x="857.5" y="1302.6406"/><rect fill="#E2E2F0" height="30.2969" style="stroke:#181818;stroke-width:0.5;" width="149" x="853.5" y="1306.6406"/><text fill="#000000" font-family="sans-serif" font-size="14" lengthAdjust="spacing" textLength="135" x="860.5" y="1326.6357">LinearScaleElement</text><polygon fill="#181818" points="163,124.8594,173,128.8594,163,132.8594,167,128.8594" style="stroke:#181818;stroke-width:1.0;"/><line style="stroke:#181818;stroke-width:1.0;" x1="0" x2="169" y1="128.8594" y2="128.8594"/><text fill="#000000" font-family="sans-serif" font-size="13" lengthAdjust="spacing" textLength="151" x="7" y="123.7935">append &lt;linear-scale/&gt;</text><polygon fill="#181818" points="918,153.9922,928,157.9922,918,161.9922,922,157.9922" style="stroke:#181818;stroke-width:1.0;"/><line style="stroke:#181818;stroke-width:1.0;" x1="175" x2="924" y1="157.9922" y2="157.9922"/><text fill="#000000" font-family="sans-serif" font-size="13" lengthAdjust="spacing" textLength="218" x="182" y="152.9263">creates new LinearScaleElement()</text><path d="M121,172.9922 L250,172.9922 L250,180.125 L240,190.125 L121,190.125 L121,172.9922 " fill="#EEEEEE" style="stroke:#000000;stroke-width:1.5;"/><rect fill="none" height="323.4609" style="stroke:#000000;stroke-width:1.5;" width="905.5" x="121" y="172.9922"/><text fill="#000000" font-family="sans-serif" font-size="13" font-weight="bold" lengthAdjust="spacing" textLength="84" x="136" y="186.0591">Pre-Update</text><polygon fill="#181818" points="715,207.2578,705,211.2578,715,215.2578,711,211.2578" style="stroke:#181818;stroke-width:1.0;"/><line style="stroke:#181818;stroke-width:1.0;" x1="709" x2="929" y1="211.2578" y2="211.2578"/><text fill="#000000" font-family="sans-serif" font-size="13" lengthAdjust="spacing" textLength="78" x="721" y="206.1919">runs super()</text><polygon fill="#181818" points="489,236.3906,479,240.3906,489,244.3906,485,240.3906" style="stroke:#181818;stroke-width:1.0;"/><line style="stroke:#181818;stroke-width:1.0;" x1="483" x2="703" y1="240.3906" y2="240.3906"/><text fill="#000000" font-family="sans-serif" font-size="13" lengthAdjust="spacing" textLength="78" x="495" y="235.3247">runs super()</text><polygon fill="#181818" points="186,265.5234,176,269.5234,186,273.5234,182,269.5234" style="stroke:#181818;stroke-width:1.0;"/><line style="stroke:#181818;stroke-width:1.0;" x1="180" x2="477" y1="269.5234" y2="269.5234"/><text fill="#000000" font-family="sans-serif" font-size="13" lengthAdjust="spacing" textLength="147" x="192" y="264.4575">creates a shadow DOM</text><polygon fill="#181818" points="186,294.6563,176,298.6563,186,302.6563,182,298.6563" style="stroke:#181818;stroke-width:1.0;"/><line style="stroke:#181818;stroke-width:1.0;" x1="180" x2="477" y1="298.6563" y2="298.6563"/><text fill="#000000" font-family="sans-serif" font-size="13" lengthAdjust="spacing" textLength="213" x="192" y="293.5903">attaches styles to a shadow DOM</text><path d="M131,313.6563 L316,313.6563 L316,320.7891 L306,330.7891 L131,330.7891 L131,313.6563 " fill="#EEEEEE" style="stroke:#000000;stroke-width:1.5;"/><rect fill="none" height="133.6641" style="stroke:#000000;stroke-width:1.5;" width="885.5" x="131" y="313.6563"/><text fill="#000000" font-family="sans-serif" font-size="13" font-weight="bold" lengthAdjust="spacing" textLength="140" x="146" y="326.7231">connectedCallback</text><polygon fill="#181818" points="918,347.9219,928,351.9219,918,355.9219,922,351.9219" style="stroke:#181818;stroke-width:1.0;"/><line style="stroke:#181818;stroke-width:1.0;" x1="478" x2="924" y1="351.9219" y2="351.9219"/><text fill="#000000" font-family="sans-serif" font-size="13" lengthAdjust="spacing" textLength="189" x="485" y="346.856">runs this.connectedCallback()</text><polygon fill="#181818" points="715,377.0547,705,381.0547,715,385.0547,711,381.0547" style="stroke:#181818;stroke-width:1.0;"/><line style="stroke:#181818;stroke-width:1.0;" x1="709" x2="929" y1="381.0547" y2="381.0547"/><text fill="#000000" font-family="sans-serif" font-size="13" lengthAdjust="spacing" textLength="202" x="721" y="375.9888">runs super.connectedCallback()</text><polygon fill="#181818" points="489,406.1875,479,410.1875,489,414.1875,485,410.1875" style="stroke:#181818;stroke-width:1.0;"/><line style="stroke:#181818;stroke-width:1.0;" x1="483" x2="703" y1="410.1875" y2="410.1875"/><text fill="#000000" font-family="sans-serif" font-size="13" lengthAdjust="spacing" textLength="202" x="495" y="405.1216">runs super.connectedCallback()</text><polygon fill="#181818" points="186,435.3203,176,439.3203,186,443.3203,182,439.3203" style="stroke:#181818;stroke-width:1.0;"/><line style="stroke:#181818;stroke-width:1.0;" x1="180" x2="477" y1="439.3203" y2="439.3203"/><text fill="#000000" font-family="sans-serif" font-size="13" lengthAdjust="spacing" textLength="148" x="192" y="434.2544">runs addEventListener(</text><text fill="#000000" font-family="sans-serif" font-size="13" font-weight="bold" lengthAdjust="spacing" textLength="126" x="340" y="434.2544">"styles-changed"</text><text fill="#000000" font-family="sans-serif" font-size="13" lengthAdjust="spacing" textLength="5" x="466" y="434.2544">)</text><line style="stroke:#181818;stroke-width:1.0;" x1="478" x2="520" y1="475.4531" y2="475.4531"/><line style="stroke:#181818;stroke-width:1.0;" x1="520" x2="520" y1="475.4531" y2="488.4531"/><line style="stroke:#181818;stroke-width:1.0;" x1="479" x2="520" y1="488.4531" y2="488.4531"/><polygon fill="#181818" points="489,484.4531,479,488.4531,489,492.4531,485,488.4531" style="stroke:#181818;stroke-width:1.0;"/><text fill="#000000" font-family="sans-serif" font-size="13" lengthAdjust="spacing" textLength="138" x="485" y="470.3872">runs requestUpdate()</text><rect fill="#EEEEEE" height="3" style="stroke:#EEEEEE;stroke-width:1.0;" width="1064" x="0" y="524.0195"/><line style="stroke:#000000;stroke-width:1.0;" x1="0" x2="1064" y1="524.0195" y2="524.0195"/><line style="stroke:#000000;stroke-width:1.0;" x1="0" x2="1064" y1="527.0195" y2="527.0195"/><rect fill="#EEEEEE" height="23.1328" style="stroke:#000000;stroke-width:2.0;" width="56" x="504" y="513.4531"/><text fill="#000000" font-family="sans-serif" font-size="13" font-weight="bold" lengthAdjust="spacing" textLength="42" x="510" y="529.52">async</text><path d="M131,553.5859 L230,553.5859 L230,560.7188 L220,570.7188 L131,570.7188 L131,553.5859 " fill="#EEEEEE" style="stroke:#000000;stroke-width:1.5;"/><rect fill="none" height="351.4609" style="stroke:#000000;stroke-width:1.5;" width="895.5" x="131" y="553.5859"/><text fill="#000000" font-family="sans-serif" font-size="13" font-weight="bold" lengthAdjust="spacing" textLength="54" x="146" y="566.6528">Update</text><line style="stroke:#181818;stroke-width:1.0;" x1="478" x2="520" y1="591.8516" y2="591.8516"/><line style="stroke:#181818;stroke-width:1.0;" x1="520" x2="520" y1="591.8516" y2="604.8516"/><line style="stroke:#181818;stroke-width:1.0;" x1="479" x2="520" y1="604.8516" y2="604.8516"/><polygon fill="#181818" points="489,600.8516,479,604.8516,489,608.8516,485,604.8516" style="stroke:#181818;stroke-width:1.0;"/><text fill="#000000" font-family="sans-serif" font-size="13" lengthAdjust="spacing" textLength="140" x="485" y="586.7856">runs performUpdate()</text><path d="M385.5,619.8516 L533.5,619.8516 L533.5,626.9844 L523.5,636.9844 L385.5,636.9844 L385.5,619.8516 " fill="#EEEEEE" style="stroke:#000000;stroke-width:1.5;"/><rect fill="none" height="75.3984" style="stroke:#000000;stroke-width:1.5;" width="631" x="385.5" y="619.8516"/><text fill="#000000" font-family="sans-serif" font-size="13" font-weight="bold" lengthAdjust="spacing" textLength="103" x="400.5" y="632.9185">shouldUpdate</text><polygon fill="#181818" points="918,654.1172,928,658.1172,918,662.1172,922,658.1172" style="stroke:#181818;stroke-width:1.0;"/><line style="stroke:#181818;stroke-width:1.0;" x1="478" x2="924" y1="658.1172" y2="658.1172"/><text fill="#000000" font-family="sans-serif" font-size="13" lengthAdjust="spacing" textLength="158" x="485" y="653.0513">runs this.shouldUpdate()</text><polygon fill="#181818" points="489,683.25,479,687.25,489,691.25,485,687.25" style="stroke:#181818;stroke-width:1.0;"/><line style="stroke:#181818;stroke-width:1.0;" x1="483" x2="929" y1="687.25" y2="687.25"/><text fill="#000000" font-family="sans-serif" font-size="13" lengthAdjust="spacing" textLength="171" x="495" y="682.1841">runs super.shouldUpdate()</text><line style="stroke:#181818;stroke-width:1.0;" x1="478" x2="520" y1="723.3828" y2="723.3828"/><line style="stroke:#181818;stroke-width:1.0;" x1="520" x2="520" y1="723.3828" y2="736.3828"/><line style="stroke:#181818;stroke-width:1.0;" x1="479" x2="520" y1="736.3828" y2="736.3828"/><polygon fill="#181818" points="489,732.3828,479,736.3828,489,740.3828,485,736.3828" style="stroke:#181818;stroke-width:1.0;"/><text fill="#000000" font-family="sans-serif" font-size="13" lengthAdjust="spacing" textLength="107" x="485" y="718.3169">runs willUpdate()</text><line style="stroke:#181818;stroke-width:1.0;" x1="478" x2="520" y1="765.5156" y2="765.5156"/><line style="stroke:#181818;stroke-width:1.0;" x1="520" x2="520" y1="765.5156" y2="778.5156"/><line style="stroke:#181818;stroke-width:1.0;" x1="479" x2="520" y1="778.5156" y2="778.5156"/><polygon fill="#181818" points="489,774.5156,479,778.5156,489,782.5156,485,778.5156" style="stroke:#181818;stroke-width:1.0;"/><text fill="#000000" font-family="sans-serif" font-size="13" lengthAdjust="spacing" textLength="87" x="485" y="760.4497">runs update()</text><path d="M385.5,793.5156 L479.5,793.5156 L479.5,800.6484 L469.5,810.6484 L385.5,810.6484 L385.5,793.5156 " fill="#EEEEEE" style="stroke:#000000;stroke-width:1.5;"/><rect fill="none" height="75.3984" style="stroke:#000000;stroke-width:1.5;" width="411" x="385.5" y="793.5156"/><text fill="#000000" font-family="sans-serif" font-size="13" font-weight="bold" lengthAdjust="spacing" textLength="49" x="400.5" y="806.5825">render</text><polygon fill="#181818" points="692,827.7813,702,831.7813,692,835.7813,696,831.7813" style="stroke:#181818;stroke-width:1.0;"/><line style="stroke:#181818;stroke-width:1.0;" x1="478" x2="698" y1="831.7813" y2="831.7813"/><text fill="#000000" font-family="sans-serif" font-size="13" lengthAdjust="spacing" textLength="111" x="485" y="826.7153">runs this.render()</text><polygon fill="#181818" points="489,856.9141,479,860.9141,489,864.9141,485,860.9141" style="stroke:#181818;stroke-width:1.0;"/><line style="stroke:#181818;stroke-width:1.0;" x1="483" x2="703" y1="860.9141" y2="860.9141"/><text fill="#000000" font-family="sans-serif" font-size="13" lengthAdjust="spacing" textLength="108" x="495" y="855.8481">returns template</text><polygon fill="#181818" points="186,893.0469,176,897.0469,186,901.0469,182,897.0469" style="stroke:#181818;stroke-width:1.0;"/><line style="stroke:#181818;stroke-width:1.0;" x1="180" x2="477" y1="897.0469" y2="897.0469"/><text fill="#000000" font-family="sans-serif" font-size="13" lengthAdjust="spacing" textLength="134" x="192" y="891.981">updates shadow tree</text><path d="M375.5,919.0469 L522.5,919.0469 L522.5,926.1797 L512.5,936.1797 L375.5,936.1797 L375.5,919.0469 " fill="#EEEEEE" style="stroke:#000000;stroke-width:1.5;"/><rect fill="none" height="367.5938" style="stroke:#000000;stroke-width:1.5;" width="678.5" x="375.5" y="919.0469"/><text fill="#000000" font-family="sans-serif" font-size="13" font-weight="bold" lengthAdjust="spacing" textLength="102" x="390.5" y="932.1138">Post-Updated</text><path d="M385.5,943.1797 L518.5,943.1797 L518.5,950.3125 L508.5,960.3125 L385.5,960.3125 L385.5,943.1797 " fill="#EEEEEE" style="stroke:#000000;stroke-width:1.5;"/><rect fill="none" height="146.6641" style="stroke:#000000;stroke-width:1.5;" width="658.5" x="385.5" y="943.1797"/><text fill="#000000" font-family="sans-serif" font-size="13" font-weight="bold" lengthAdjust="spacing" textLength="88" x="400.5" y="956.2466">fistUpdated</text><polygon fill="#181818" points="918,977.4453,928,981.4453,918,985.4453,922,981.4453" style="stroke:#181818;stroke-width:1.0;"/><line style="stroke:#181818;stroke-width:1.0;" x1="478" x2="924" y1="981.4453" y2="981.4453"/><text fill="#000000" font-family="sans-serif" font-size="13" lengthAdjust="spacing" textLength="148" x="485" y="976.3794">runs this.firstUpdated()</text><line style="stroke:#181818;stroke-width:1.0;" x1="930" x2="972" y1="1010.5781" y2="1010.5781"/><line style="stroke:#181818;stroke-width:1.0;" x1="972" x2="972" y1="1010.5781" y2="1023.5781"/><line style="stroke:#181818;stroke-width:1.0;" x1="931" x2="972" y1="1023.5781" y2="1023.5781"/><polygon fill="#181818" points="941,1019.5781,931,1023.5781,941,1027.5781,937,1023.5781" style="stroke:#181818;stroke-width:1.0;"/><text fill="#000000" font-family="sans-serif" font-size="13" lengthAdjust="spacing" textLength="95" x="937" y="1005.5122">sync attributes</text><polygon fill="#181818" points="715,1048.7109,705,1052.7109,715,1056.7109,711,1052.7109" style="stroke:#181818;stroke-width:1.0;"/><line style="stroke:#181818;stroke-width:1.0;" x1="709" x2="929" y1="1052.7109" y2="1052.7109"/><text fill="#000000" font-family="sans-serif" font-size="13" lengthAdjust="spacing" textLength="161" x="721" y="1047.645">runs super.firstUpdated()</text><polygon fill="#181818" points="489,1077.8438,479,1081.8438,489,1085.8438,485,1081.8438" style="stroke:#181818;stroke-width:1.0;"/><line style="stroke:#181818;stroke-width:1.0;" x1="483" x2="703" y1="1081.8438" y2="1081.8438"/><text fill="#000000" font-family="sans-serif" font-size="13" lengthAdjust="spacing" textLength="161" x="495" y="1076.7778">runs super.firstUpdated()</text><path d="M385.5,1103.8438 L493.5,1103.8438 L493.5,1110.9766 L483.5,1120.9766 L385.5,1120.9766 L385.5,1103.8438 " fill="#EEEEEE" style="stroke:#000000;stroke-width:1.5;"/><rect fill="none" height="133.6641" style="stroke:#000000;stroke-width:1.5;" width="631" x="385.5" y="1103.8438"/><text fill="#000000" font-family="sans-serif" font-size="13" font-weight="bold" lengthAdjust="spacing" textLength="63" x="400.5" y="1116.9106">updated</text><polygon fill="#181818" points="918,1138.1094,928,1142.1094,918,1146.1094,922,1142.1094" style="stroke:#181818;stroke-width:1.0;"/><line style="stroke:#181818;stroke-width:1.0;" x1="478" x2="924" y1="1142.1094" y2="1142.1094"/><text fill="#000000" font-family="sans-serif" font-size="13" lengthAdjust="spacing" textLength="122" x="485" y="1137.0435">runs this.updated()</text><polygon fill="#181818" points="715,1167.2422,705,1171.2422,715,1175.2422,711,1171.2422" style="stroke:#181818;stroke-width:1.0;"/><line style="stroke:#181818;stroke-width:1.0;" x1="709" x2="929" y1="1171.2422" y2="1171.2422"/><text fill="#000000" font-family="sans-serif" font-size="13" lengthAdjust="spacing" textLength="135" x="721" y="1166.1763">runs super.updated()</text><polygon fill="#181818" points="489,1196.375,479,1200.375,489,1204.375,485,1200.375" style="stroke:#181818;stroke-width:1.0;"/><line style="stroke:#181818;stroke-width:1.0;" x1="483" x2="703" y1="1200.375" y2="1200.375"/><text fill="#000000" font-family="sans-serif" font-size="13" lengthAdjust="spacing" textLength="135" x="495" y="1195.3091">runs super.updated()</text><polygon fill="#181818" points="1052,1225.5078,1062,1229.5078,1052,1233.5078,1056,1229.5078" style="stroke:#181818;stroke-width:1.0;"/><line style="stroke:#181818;stroke-width:1.0;" x1="478" x2="1058" y1="1229.5078" y2="1229.5078"/><text fill="#000000" font-family="sans-serif" font-size="13" lengthAdjust="spacing" textLength="69" x="485" y="1224.4419">dispatches</text><text fill="#000000" font-family="sans-serif" font-size="13" font-weight="bold" lengthAdjust="spacing" textLength="77" x="558" y="1224.4419">"updated"</text><text fill="#000000" font-family="sans-serif" font-size="13" lengthAdjust="spacing" textLength="36" x="639" y="1224.4419">event</text><line style="stroke:#181818;stroke-width:1.0;" x1="478" x2="520" y1="1265.6406" y2="1265.6406"/><line style="stroke:#181818;stroke-width:1.0;" x1="520" x2="520" y1="1265.6406" y2="1278.6406"/><line style="stroke:#181818;stroke-width:1.0;" x1="479" x2="520" y1="1278.6406" y2="1278.6406"/><polygon fill="#181818" points="489,1274.6406,479,1278.6406,489,1282.6406,485,1278.6406" style="stroke:#181818;stroke-width:1.0;"/><text fill="#000000" font-family="sans-serif" font-size="13" lengthAdjust="spacing" textLength="164" x="485" y="1260.5747">resolves updateComplete</text><!--MD5=[d60472b51a79bfe76c5384dbef6c4dd1]
@startuml linear_scale_append
  title <linear-scale/> append workflow

  participant Window

  box <linear-scale/> #e0e0e0
    participant AbstractChartElement
    participant AbstractScaleElement
    collections LinearScaleElement
  end box

  -> Window: append <linear-scale/>
  Window -> LinearScaleElement: creates new LinearScaleElement()

  group #b3e5fc Pre-Update
    AbstractScaleElement <- LinearScaleElement: runs super()
    AbstractChartElement <- AbstractScaleElement: runs super()
    Window <- AbstractChartElement: creates a shadow DOM
    Window <- AbstractChartElement: attaches styles to a shadow DOM

    group #039be5 connectedCallback
      AbstractChartElement -> LinearScaleElement: runs this.connectedCallback()
      AbstractScaleElement <- LinearScaleElement: runs super.connectedCallback()
      AbstractChartElement <- AbstractScaleElement: runs super.connectedCallback()
      AbstractChartElement -> Window: runs addEventListener(<b>"styles-changed"</b>)
    end

    AbstractChartElement -> AbstractChartElement: runs requestUpdate()
  end

  ==async==

  group #b3e5fc Update
    AbstractChartElement -> AbstractChartElement: runs performUpdate()
    
    group #039be5 shouldUpdate
      AbstractChartElement -> LinearScaleElement: runs this.shouldUpdate()
      AbstractChartElement <- LinearScaleElement: runs super.shouldUpdate()
    end
    
    AbstractChartElement -> AbstractChartElement: runs willUpdate()
    AbstractChartElement -> AbstractChartElement: runs update()
    
    group #039be5 render
      AbstractChartElement -> AbstractScaleElement: runs this.render()
      AbstractChartElement <- AbstractScaleElement: returns template
    end

    Window <- AbstractChartElement: updates shadow tree
  end

  group #b3e5fc Post-Updated

    group #039be5 fistUpdated
      AbstractChartElement -> LinearScaleElement: runs this.firstUpdated()
      LinearScaleElement -> LinearScaleElement: sync attributes
      AbstractScaleElement <- LinearScaleElement: runs super.firstUpdated()
      AbstractChartElement <- AbstractScaleElement: runs super.firstUpdated()
    end

    group #039be5 updated
      AbstractChartElement -> LinearScaleElement: runs this.updated()
      AbstractScaleElement <- LinearScaleElement: runs super.updated()
      AbstractChartElement <- AbstractScaleElement: runs super.updated()
      AbstractChartElement -> : dispatches <b>"updated"</b> event
    end

    AbstractChartElement -> AbstractChartElement: resolves updateComplete
  end
@enduml

PlantUML version 1.2022.7(Mon Aug 22 19:01:30 CEST 2022)
(GPL source distribution)
Java Runtime: OpenJDK Runtime Environment
JVM: OpenJDK 64-Bit Server VM
Default Encoding: UTF-8
Language: en
Country: US
--></g></svg>