<?xml version="1.0" encoding="UTF-8" standalone="no"?><svg xmlns="http://www.w3.org/2000/svg" xmlns:xlink="http://www.w3.org/1999/xlink" contentStyleType="text/css" height="412px" preserveAspectRatio="none" style="width:1094px;height:412px;background:#FFFFFF;" version="1.1" viewBox="0 0 1094 412" width="1094px" zoomAndPan="magnify"><defs/><g><rect fill="none" height="26.2969" id="_title" style="stroke:none;stroke-width:1.0;" width="274" x="411.75" y="10"/><text fill="#000000" font-family="sans-serif" font-size="14" font-weight="bold" lengthAdjust="spacing" textLength="264" x="416.75" y="27.9951">&lt;linear-scale/&gt; remove workflow</text><rect fill="#E0E0E0" height="362.7891" style="stroke:#181818;stroke-width:0.5;" width="655" x="417.5" y="43.2969"/><text fill="#000000" font-family="sans-serif" font-size="13" font-weight="bold" lengthAdjust="spacing" textLength="111" x="687" y="55.3638">&lt;linear-scale/&gt;</text><rect fill="#B3E5FC" height="206.9297" style="stroke:#000000;stroke-width:1.5;" width="966.5" x="122" y="143.8594"/><rect fill="#039BE5" height="133.6641" style="stroke:#000000;stroke-width:1.5;" width="946.5" x="132" y="167.9922"/><line style="stroke:#181818;stroke-width:0.5;stroke-dasharray:5.0,5.0;" x1="176" x2="176" y1="97.7266" y2="367.7891"/><line style="stroke:#181818;stroke-width:0.5;stroke-dasharray:5.0,5.0;" x1="503.5" x2="503.5" y1="97.7266" y2="367.7891"/><line style="stroke:#181818;stroke-width:0.5;stroke-dasharray:5.0,5.0;" x1="747.5" x2="747.5" y1="97.7266" y2="367.7891"/><line style="stroke:#181818;stroke-width:0.5;stroke-dasharray:5.0,5.0;" x1="991.5" x2="991.5" y1="97.7266" y2="367.7891"/><rect fill="#E2E2F0" height="30.2969" rx="2.5" ry="2.5" style="stroke:#181818;stroke-width:0.5;" width="68" x="142" y="66.4297"/><text fill="#000000" font-family="sans-serif" font-size="14" lengthAdjust="spacing" textLength="54" x="149" y="86.4248">Window</text><rect fill="#E2E2F0" height="30.2969" rx="2.5" ry="2.5" style="stroke:#181818;stroke-width:0.5;" width="68" x="142" y="366.7891"/><text fill="#000000" font-family="sans-serif" font-size="14" lengthAdjust="spacing" textLength="54" x="149" y="386.7842">Window</text><rect fill="#E2E2F0" height="30.2969" rx="2.5" ry="2.5" style="stroke:#181818;stroke-width:0.5;" width="165" x="421.5" y="66.4297"/><text fill="#000000" font-family="sans-serif" font-size="14" lengthAdjust="spacing" textLength="151" x="428.5" y="86.4248">AbstractChartElement</text><rect fill="#E2E2F0" height="30.2969" rx="2.5" ry="2.5" style="stroke:#181818;stroke-width:0.5;" width="165" x="421.5" y="366.7891"/><text fill="#000000" font-family="sans-serif" font-size="14" lengthAdjust="spacing" textLength="151" x="428.5" y="386.7842">AbstractChartElement</text><rect fill="#E2E2F0" height="30.2969" rx="2.5" ry="2.5" style="stroke:#181818;stroke-width:0.5;" width="165" x="665.5" y="66.4297"/><text fill="#000000" font-family="sans-serif" font-size="14" lengthAdjust="spacing" textLength="151" x="672.5" y="86.4248">AbstractScaleElement</text><rect fill="#E2E2F0" height="30.2969" rx="2.5" ry="2.5" style="stroke:#181818;stroke-width:0.5;" width="165" x="665.5" y="366.7891"/><text fill="#000000" font-family="sans-serif" font-size="14" lengthAdjust="spacing" textLength="151" x="672.5" y="386.7842">AbstractScaleElement</text><rect fill="#E2E2F0" height="30.2969" style="stroke:#181818;stroke-width:0.5;" width="149" x="919.5" y="62.4297"/><rect fill="#E2E2F0" height="30.2969" style="stroke:#181818;stroke-width:0.5;" width="149" x="915.5" y="66.4297"/><text fill="#000000" font-family="sans-serif" font-size="14" lengthAdjust="spacing" textLength="135" x="922.5" y="86.4248">LinearScaleElement</text><rect fill="#E2E2F0" height="30.2969" style="stroke:#181818;stroke-width:0.5;" width="149" x="919.5" y="366.7891"/><rect fill="#E2E2F0" height="30.2969" style="stroke:#181818;stroke-width:0.5;" width="149" x="915.5" y="370.7891"/><text fill="#000000" font-family="sans-serif" font-size="14" lengthAdjust="spacing" textLength="135" x="922.5" y="390.7842">LinearScaleElement</text><polygon fill="#181818" points="164,124.8594,174,128.8594,164,132.8594,168,128.8594" style="stroke:#181818;stroke-width:1.0;"/><line style="stroke:#181818;stroke-width:1.0;" x1="0" x2="170" y1="128.8594" y2="128.8594"/><text fill="#000000" font-family="sans-serif" font-size="13" lengthAdjust="spacing" textLength="152" x="7" y="123.7935">remove &lt;linear-scale/&gt;</text><path d="M122,143.8594 L251,143.8594 L251,150.9922 L241,160.9922 L122,160.9922 L122,143.8594 " fill="#EEEEEE" style="stroke:#000000;stroke-width:1.5;"/><rect fill="none" height="206.9297" style="stroke:#000000;stroke-width:1.5;" width="966.5" x="122" y="143.8594"/><text fill="#000000" font-family="sans-serif" font-size="13" font-weight="bold" lengthAdjust="spacing" textLength="84" x="137" y="156.9263">Pre-Update</text><path d="M132,167.9922 L339,167.9922 L339,175.125 L329,185.125 L132,185.125 L132,167.9922 " fill="#EEEEEE" style="stroke:#000000;stroke-width:1.5;"/><rect fill="none" height="133.6641" style="stroke:#000000;stroke-width:1.5;" width="946.5" x="132" y="167.9922"/><text fill="#000000" font-family="sans-serif" font-size="13" font-weight="bold" lengthAdjust="spacing" textLength="162" x="147" y="181.0591">disconnectedCallback</text><polygon fill="#181818" points="980,202.2578,990,206.2578,980,210.2578,984,206.2578" style="stroke:#181818;stroke-width:1.0;"/><line style="stroke:#181818;stroke-width:1.0;" x1="504" x2="986" y1="206.2578" y2="206.2578"/><text fill="#000000" font-family="sans-serif" font-size="13" lengthAdjust="spacing" textLength="207" x="511" y="201.1919">runs this.disconnectedCallback()</text><polygon fill="#181818" points="759,231.3906,749,235.3906,759,239.3906,755,235.3906" style="stroke:#181818;stroke-width:1.0;"/><line style="stroke:#181818;stroke-width:1.0;" x1="753" x2="991" y1="235.3906" y2="235.3906"/><text fill="#000000" font-family="sans-serif" font-size="13" lengthAdjust="spacing" textLength="220" x="765" y="230.3247">runs super.disconnectedCallback()</text><polygon fill="#181818" points="515,260.5234,505,264.5234,515,268.5234,511,264.5234" style="stroke:#181818;stroke-width:1.0;"/><line style="stroke:#181818;stroke-width:1.0;" x1="509" x2="747" y1="264.5234" y2="264.5234"/><text fill="#000000" font-family="sans-serif" font-size="13" lengthAdjust="spacing" textLength="220" x="521" y="259.4575">runs super.disconnectedCallback()</text><polygon fill="#181818" points="187,289.6563,177,293.6563,187,297.6563,183,293.6563" style="stroke:#181818;stroke-width:1.0;"/><line style="stroke:#181818;stroke-width:1.0;" x1="181" x2="503" y1="293.6563" y2="293.6563"/><text fill="#000000" font-family="sans-serif" font-size="13" lengthAdjust="spacing" textLength="173" x="193" y="288.5903">runs removeEventListener(</text><text fill="#000000" font-family="sans-serif" font-size="13" font-weight="bold" lengthAdjust="spacing" textLength="126" x="366" y="288.5903">"styles-changed"</text><text fill="#000000" font-family="sans-serif" font-size="13" lengthAdjust="spacing" textLength="5" x="492" y="288.5903">)</text><line style="stroke:#181818;stroke-width:1.0;" x1="504" x2="546" y1="329.7891" y2="329.7891"/><line style="stroke:#181818;stroke-width:1.0;" x1="546" x2="546" y1="329.7891" y2="342.7891"/><line style="stroke:#181818;stroke-width:1.0;" x1="505" x2="546" y1="342.7891" y2="342.7891"/><polygon fill="#181818" points="515,338.7891,505,342.7891,515,346.7891,511,342.7891" style="stroke:#181818;stroke-width:1.0;"/><text fill="#000000" font-family="sans-serif" font-size="13" lengthAdjust="spacing" textLength="138" x="511" y="324.7231">runs requestUpdate()</text><!--MD5=[7cdf78289a57f9c063c493b0001c96c0]
@startuml linear_scale_remove
  title <linear-scale/> remove workflow

  participant Window

  box <linear-scale/> #e0e0e0
    participant AbstractChartElement
    participant AbstractScaleElement
    collections LinearScaleElement
  end box

  -> Window: remove <linear-scale/>

  group #b3e5fc Pre-Update

    group #039be5 disconnectedCallback
      AbstractChartElement -> LinearScaleElement: runs this.disconnectedCallback()
      AbstractScaleElement <- LinearScaleElement: runs super.disconnectedCallback()
      AbstractChartElement <- AbstractScaleElement: runs super.disconnectedCallback()
      AbstractChartElement -> Window: runs removeEventListener(<b>"styles-changed"</b>)
    end

    AbstractChartElement -> AbstractChartElement: runs requestUpdate()
  end
@enduml

PlantUML version 1.2022.7(Mon Aug 22 19:01:30 CEST 2022)
(GPL source distribution)
Java Runtime: OpenJDK Runtime Environment
JVM: OpenJDK 64-Bit Server VM
Default Encoding: UTF-8
Language: en
Country: US
--></g></svg>