<?xml version="1.0" encoding="UTF-8" standalone="no"?><svg xmlns="http://www.w3.org/2000/svg" xmlns:xlink="http://www.w3.org/1999/xlink" contentStyleType="text/css" height="1258px" preserveAspectRatio="none" style="width:1039px;height:1258px;background:#FFFFFF;" version="1.1" viewBox="0 0 1039 1258" width="1039px" zoomAndPan="magnify"><defs/><g><rect fill="none" height="26.2969" id="_title" style="stroke:none;stroke-width:1.0;" width="271" x="380.25" y="10"/><text fill="#000000" font-family="sans-serif" font-size="14" font-weight="bold" lengthAdjust="spacing" textLength="261" x="385.25" y="27.9951">&lt;polar-plane/&gt; append workflow</text><rect fill="#E0E0E0" height="1209.2422" style="stroke:#181818;stroke-width:0.5;" width="616" x="390.5" y="43.2969"/><text fill="#000000" font-family="sans-serif" font-size="13" font-weight="bold" lengthAdjust="spacing" textLength="111" x="640.5" y="55.3638">&lt;polar-plane/&gt;</text><rect fill="#B3E5FC" height="323.4609" style="stroke:#000000;stroke-width:1.5;" width="902.5" x="120" y="172.9922"/><rect fill="#039BE5" height="133.6641" style="stroke:#000000;stroke-width:1.5;" width="882.5" x="130" y="313.6563"/><rect fill="#B3E5FC" height="304.1953" style="stroke:#000000;stroke-width:1.5;" width="892.5" x="130" y="553.5859"/><rect fill="#039BE5" height="75.3984" style="stroke:#000000;stroke-width:1.5;" width="628" x="384.5" y="746.25"/><rect fill="#B3E5FC" height="325.4609" style="stroke:#000000;stroke-width:1.5;" width="648" x="374.5" y="871.7813"/><rect fill="#039BE5" height="104.5313" style="stroke:#000000;stroke-width:1.5;" width="628" x="384.5" y="895.9141"/><rect fill="#039BE5" height="133.6641" style="stroke:#000000;stroke-width:1.5;" width="628" x="384.5" y="1014.4453"/><line style="stroke:#181818;stroke-width:0.5;stroke-dasharray:5.0,5.0;" x1="174" x2="174" y1="97.7266" y2="1214.2422"/><line style="stroke:#181818;stroke-width:0.5;stroke-dasharray:5.0,5.0;" x1="476.5" x2="476.5" y1="97.7266" y2="1214.2422"/><line style="stroke:#181818;stroke-width:0.5;stroke-dasharray:5.0,5.0;" x1="703" x2="703" y1="97.7266" y2="1214.2422"/><line style="stroke:#181818;stroke-width:0.5;stroke-dasharray:5.0,5.0;" x1="928.5" x2="928.5" y1="97.7266" y2="1214.2422"/><rect fill="#E2E2F0" height="30.2969" rx="2.5" ry="2.5" style="stroke:#181818;stroke-width:0.5;" width="68" x="140" y="66.4297"/><text fill="#000000" font-family="sans-serif" font-size="14" lengthAdjust="spacing" textLength="54" x="147" y="86.4248">Window</text><rect fill="#E2E2F0" height="30.2969" rx="2.5" ry="2.5" style="stroke:#181818;stroke-width:0.5;" width="68" x="140" y="1213.2422"/><text fill="#000000" font-family="sans-serif" font-size="14" lengthAdjust="spacing" textLength="54" x="147" y="1233.2373">Window</text><rect fill="#E2E2F0" height="30.2969" rx="2.5" ry="2.5" style="stroke:#181818;stroke-width:0.5;" width="165" x="394.5" y="66.4297"/><text fill="#000000" font-family="sans-serif" font-size="14" lengthAdjust="spacing" textLength="151" x="401.5" y="86.4248">AbstractChartElement</text><rect fill="#E2E2F0" height="30.2969" rx="2.5" ry="2.5" style="stroke:#181818;stroke-width:0.5;" width="165" x="394.5" y="1213.2422"/><text fill="#000000" font-family="sans-serif" font-size="14" lengthAdjust="spacing" textLength="151" x="401.5" y="1233.2373">AbstractChartElement</text><rect fill="#E2E2F0" height="30.2969" rx="2.5" ry="2.5" style="stroke:#181818;stroke-width:0.5;" width="166" x="620" y="66.4297"/><text fill="#000000" font-family="sans-serif" font-size="14" lengthAdjust="spacing" textLength="152" x="627" y="86.4248">AbstractPlaneElement</text><rect fill="#E2E2F0" height="30.2969" rx="2.5" ry="2.5" style="stroke:#181818;stroke-width:0.5;" width="166" x="620" y="1213.2422"/><text fill="#000000" font-family="sans-serif" font-size="14" lengthAdjust="spacing" textLength="152" x="627" y="1233.2373">AbstractPlaneElement</text><rect fill="#E2E2F0" height="30.2969" style="stroke:#181818;stroke-width:0.5;" width="143" x="859.5" y="62.4297"/><rect fill="#E2E2F0" height="30.2969" style="stroke:#181818;stroke-width:0.5;" width="143" x="855.5" y="66.4297"/><text fill="#000000" font-family="sans-serif" font-size="14" lengthAdjust="spacing" textLength="129" x="862.5" y="86.4248">PolarPlaneElement</text><rect fill="#E2E2F0" height="30.2969" style="stroke:#181818;stroke-width:0.5;" width="143" x="859.5" y="1213.2422"/><rect fill="#E2E2F0" height="30.2969" style="stroke:#181818;stroke-width:0.5;" width="143" x="855.5" y="1217.2422"/><text fill="#000000" font-family="sans-serif" font-size="14" lengthAdjust="spacing" textLength="129" x="862.5" y="1237.2373">PolarPlaneElement</text><polygon fill="#181818" points="162,124.8594,172,128.8594,162,132.8594,166,128.8594" style="stroke:#181818;stroke-width:1.0;"/><line style="stroke:#181818;stroke-width:1.0;" x1="0" x2="168" y1="128.8594" y2="128.8594"/><text fill="#000000" font-family="sans-serif" font-size="13" lengthAdjust="spacing" textLength="150" x="7" y="123.7935">append &lt;polar-plane/&gt;</text><polygon fill="#181818" points="917,153.9922,927,157.9922,917,161.9922,921,157.9922" style="stroke:#181818;stroke-width:1.0;"/><line style="stroke:#181818;stroke-width:1.0;" x1="174" x2="923" y1="157.9922" y2="157.9922"/><text fill="#000000" font-family="sans-serif" font-size="13" lengthAdjust="spacing" textLength="211" x="181" y="152.9263">creates new PolarPlaneElement()</text><path d="M120,172.9922 L249,172.9922 L249,180.125 L239,190.125 L120,190.125 L120,172.9922 " fill="#EEEEEE" style="stroke:#000000;stroke-width:1.5;"/><rect fill="none" height="323.4609" style="stroke:#000000;stroke-width:1.5;" width="902.5" x="120" y="172.9922"/><text fill="#000000" font-family="sans-serif" font-size="13" font-weight="bold" lengthAdjust="spacing" textLength="84" x="135" y="186.0591">Pre-Update</text><polygon fill="#181818" points="714,207.2578,704,211.2578,714,215.2578,710,211.2578" style="stroke:#181818;stroke-width:1.0;"/><line style="stroke:#181818;stroke-width:1.0;" x1="708" x2="928" y1="211.2578" y2="211.2578"/><text fill="#000000" font-family="sans-serif" font-size="13" lengthAdjust="spacing" textLength="78" x="720" y="206.1919">runs super()</text><polygon fill="#181818" points="488,236.3906,478,240.3906,488,244.3906,484,240.3906" style="stroke:#181818;stroke-width:1.0;"/><line style="stroke:#181818;stroke-width:1.0;" x1="482" x2="702" y1="240.3906" y2="240.3906"/><text fill="#000000" font-family="sans-serif" font-size="13" lengthAdjust="spacing" textLength="78" x="494" y="235.3247">runs super()</text><polygon fill="#181818" points="185,265.5234,175,269.5234,185,273.5234,181,269.5234" style="stroke:#181818;stroke-width:1.0;"/><line style="stroke:#181818;stroke-width:1.0;" x1="179" x2="476" y1="269.5234" y2="269.5234"/><text fill="#000000" font-family="sans-serif" font-size="13" lengthAdjust="spacing" textLength="147" x="191" y="264.4575">creates a shadow DOM</text><polygon fill="#181818" points="185,294.6563,175,298.6563,185,302.6563,181,298.6563" style="stroke:#181818;stroke-width:1.0;"/><line style="stroke:#181818;stroke-width:1.0;" x1="179" x2="476" y1="298.6563" y2="298.6563"/><text fill="#000000" font-family="sans-serif" font-size="13" lengthAdjust="spacing" textLength="213" x="191" y="293.5903">attaches styles to a shadow DOM</text><path d="M130,313.6563 L315,313.6563 L315,320.7891 L305,330.7891 L130,330.7891 L130,313.6563 " fill="#EEEEEE" style="stroke:#000000;stroke-width:1.5;"/><rect fill="none" height="133.6641" style="stroke:#000000;stroke-width:1.5;" width="882.5" x="130" y="313.6563"/><text fill="#000000" font-family="sans-serif" font-size="13" font-weight="bold" lengthAdjust="spacing" textLength="140" x="145" y="326.7231">connectedCallback</text><polygon fill="#181818" points="917,347.9219,927,351.9219,917,355.9219,921,351.9219" style="stroke:#181818;stroke-width:1.0;"/><line style="stroke:#181818;stroke-width:1.0;" x1="477" x2="923" y1="351.9219" y2="351.9219"/><text fill="#000000" font-family="sans-serif" font-size="13" lengthAdjust="spacing" textLength="189" x="484" y="346.856">runs this.connectedCallback()</text><polygon fill="#181818" points="714,377.0547,704,381.0547,714,385.0547,710,381.0547" style="stroke:#181818;stroke-width:1.0;"/><line style="stroke:#181818;stroke-width:1.0;" x1="708" x2="928" y1="381.0547" y2="381.0547"/><text fill="#000000" font-family="sans-serif" font-size="13" lengthAdjust="spacing" textLength="202" x="720" y="375.9888">runs super.connectedCallback()</text><polygon fill="#181818" points="488,406.1875,478,410.1875,488,414.1875,484,410.1875" style="stroke:#181818;stroke-width:1.0;"/><line style="stroke:#181818;stroke-width:1.0;" x1="482" x2="702" y1="410.1875" y2="410.1875"/><text fill="#000000" font-family="sans-serif" font-size="13" lengthAdjust="spacing" textLength="202" x="494" y="405.1216">runs super.connectedCallback()</text><polygon fill="#181818" points="185,435.3203,175,439.3203,185,443.3203,181,439.3203" style="stroke:#181818;stroke-width:1.0;"/><line style="stroke:#181818;stroke-width:1.0;" x1="179" x2="476" y1="439.3203" y2="439.3203"/><text fill="#000000" font-family="sans-serif" font-size="13" lengthAdjust="spacing" textLength="148" x="191" y="434.2544">runs addEventListener(</text><text fill="#000000" font-family="sans-serif" font-size="13" font-weight="bold" lengthAdjust="spacing" textLength="126" x="339" y="434.2544">"styles-changed"</text><text fill="#000000" font-family="sans-serif" font-size="13" lengthAdjust="spacing" textLength="5" x="465" y="434.2544">)</text><line style="stroke:#181818;stroke-width:1.0;" x1="477" x2="519" y1="475.4531" y2="475.4531"/><line style="stroke:#181818;stroke-width:1.0;" x1="519" x2="519" y1="475.4531" y2="488.4531"/><line style="stroke:#181818;stroke-width:1.0;" x1="478" x2="519" y1="488.4531" y2="488.4531"/><polygon fill="#181818" points="488,484.4531,478,488.4531,488,492.4531,484,488.4531" style="stroke:#181818;stroke-width:1.0;"/><text fill="#000000" font-family="sans-serif" font-size="13" lengthAdjust="spacing" textLength="138" x="484" y="470.3872">runs requestUpdate()</text><rect fill="#EEEEEE" height="3" style="stroke:#EEEEEE;stroke-width:1.0;" width="1032.5" x="0" y="524.0195"/><line style="stroke:#000000;stroke-width:1.0;" x1="0" x2="1032.5" y1="524.0195" y2="524.0195"/><line style="stroke:#000000;stroke-width:1.0;" x1="0" x2="1032.5" y1="527.0195" y2="527.0195"/><rect fill="#EEEEEE" height="23.1328" style="stroke:#000000;stroke-width:2.0;" width="56" x="488.25" y="513.4531"/><text fill="#000000" font-family="sans-serif" font-size="13" font-weight="bold" lengthAdjust="spacing" textLength="42" x="494.25" y="529.52">async</text><path d="M130,553.5859 L229,553.5859 L229,560.7188 L219,570.7188 L130,570.7188 L130,553.5859 " fill="#EEEEEE" style="stroke:#000000;stroke-width:1.5;"/><rect fill="none" height="304.1953" style="stroke:#000000;stroke-width:1.5;" width="892.5" x="130" y="553.5859"/><text fill="#000000" font-family="sans-serif" font-size="13" font-weight="bold" lengthAdjust="spacing" textLength="54" x="145" y="566.6528">Update</text><line style="stroke:#181818;stroke-width:1.0;" x1="477" x2="519" y1="591.8516" y2="591.8516"/><line style="stroke:#181818;stroke-width:1.0;" x1="519" x2="519" y1="591.8516" y2="604.8516"/><line style="stroke:#181818;stroke-width:1.0;" x1="478" x2="519" y1="604.8516" y2="604.8516"/><polygon fill="#181818" points="488,600.8516,478,604.8516,488,608.8516,484,604.8516" style="stroke:#181818;stroke-width:1.0;"/><text fill="#000000" font-family="sans-serif" font-size="13" lengthAdjust="spacing" textLength="140" x="484" y="586.7856">runs performUpdate()</text><line style="stroke:#181818;stroke-width:1.0;" x1="477" x2="519" y1="633.9844" y2="633.9844"/><line style="stroke:#181818;stroke-width:1.0;" x1="519" x2="519" y1="633.9844" y2="646.9844"/><line style="stroke:#181818;stroke-width:1.0;" x1="478" x2="519" y1="646.9844" y2="646.9844"/><polygon fill="#181818" points="488,642.9844,478,646.9844,488,650.9844,484,646.9844" style="stroke:#181818;stroke-width:1.0;"/><text fill="#000000" font-family="sans-serif" font-size="13" lengthAdjust="spacing" textLength="131" x="484" y="628.9185">runs shouldUpdate()</text><line style="stroke:#181818;stroke-width:1.0;" x1="477" x2="519" y1="676.1172" y2="676.1172"/><line style="stroke:#181818;stroke-width:1.0;" x1="519" x2="519" y1="676.1172" y2="689.1172"/><line style="stroke:#181818;stroke-width:1.0;" x1="478" x2="519" y1="689.1172" y2="689.1172"/><polygon fill="#181818" points="488,685.1172,478,689.1172,488,693.1172,484,689.1172" style="stroke:#181818;stroke-width:1.0;"/><text fill="#000000" font-family="sans-serif" font-size="13" lengthAdjust="spacing" textLength="107" x="484" y="671.0513">runs willUpdate()</text><line style="stroke:#181818;stroke-width:1.0;" x1="477" x2="519" y1="718.25" y2="718.25"/><line style="stroke:#181818;stroke-width:1.0;" x1="519" x2="519" y1="718.25" y2="731.25"/><line style="stroke:#181818;stroke-width:1.0;" x1="478" x2="519" y1="731.25" y2="731.25"/><polygon fill="#181818" points="488,727.25,478,731.25,488,735.25,484,731.25" style="stroke:#181818;stroke-width:1.0;"/><text fill="#000000" font-family="sans-serif" font-size="13" lengthAdjust="spacing" textLength="87" x="484" y="713.1841">runs update()</text><path d="M384.5,746.25 L478.5,746.25 L478.5,753.3828 L468.5,763.3828 L384.5,763.3828 L384.5,746.25 " fill="#EEEEEE" style="stroke:#000000;stroke-width:1.5;"/><rect fill="none" height="75.3984" style="stroke:#000000;stroke-width:1.5;" width="628" x="384.5" y="746.25"/><text fill="#000000" font-family="sans-serif" font-size="13" font-weight="bold" lengthAdjust="spacing" textLength="49" x="399.5" y="759.3169">render</text><polygon fill="#181818" points="917,780.5156,927,784.5156,917,788.5156,921,784.5156" style="stroke:#181818;stroke-width:1.0;"/><line style="stroke:#181818;stroke-width:1.0;" x1="477" x2="923" y1="784.5156" y2="784.5156"/><text fill="#000000" font-family="sans-serif" font-size="13" lengthAdjust="spacing" textLength="84" x="484" y="779.4497">runs render()</text><polygon fill="#181818" points="488,809.6484,478,813.6484,488,817.6484,484,813.6484" style="stroke:#181818;stroke-width:1.0;"/><line style="stroke:#181818;stroke-width:1.0;" x1="482" x2="928" y1="813.6484" y2="813.6484"/><text fill="#000000" font-family="sans-serif" font-size="13" lengthAdjust="spacing" textLength="108" x="494" y="808.5825">returns template</text><polygon fill="#181818" points="185,845.7813,175,849.7813,185,853.7813,181,849.7813" style="stroke:#181818;stroke-width:1.0;"/><line style="stroke:#181818;stroke-width:1.0;" x1="179" x2="476" y1="849.7813" y2="849.7813"/><text fill="#000000" font-family="sans-serif" font-size="13" lengthAdjust="spacing" textLength="134" x="191" y="844.7153">updates shadow tree</text><path d="M374.5,871.7813 L521.5,871.7813 L521.5,878.9141 L511.5,888.9141 L374.5,888.9141 L374.5,871.7813 " fill="#EEEEEE" style="stroke:#000000;stroke-width:1.5;"/><rect fill="none" height="325.4609" style="stroke:#000000;stroke-width:1.5;" width="648" x="374.5" y="871.7813"/><text fill="#000000" font-family="sans-serif" font-size="13" font-weight="bold" lengthAdjust="spacing" textLength="102" x="389.5" y="884.8481">Post-Updated</text><path d="M384.5,895.9141 L517.5,895.9141 L517.5,903.0469 L507.5,913.0469 L384.5,913.0469 L384.5,895.9141 " fill="#EEEEEE" style="stroke:#000000;stroke-width:1.5;"/><rect fill="none" height="104.5313" style="stroke:#000000;stroke-width:1.5;" width="628" x="384.5" y="895.9141"/><text fill="#000000" font-family="sans-serif" font-size="13" font-weight="bold" lengthAdjust="spacing" textLength="88" x="399.5" y="908.981">fistUpdated</text><polygon fill="#181818" points="917,930.1797,927,934.1797,917,938.1797,921,934.1797" style="stroke:#181818;stroke-width:1.0;"/><line style="stroke:#181818;stroke-width:1.0;" x1="477" x2="923" y1="934.1797" y2="934.1797"/><text fill="#000000" font-family="sans-serif" font-size="13" lengthAdjust="spacing" textLength="148" x="484" y="929.1138">runs this.firstUpdated()</text><polygon fill="#181818" points="714,959.3125,704,963.3125,714,967.3125,710,963.3125" style="stroke:#181818;stroke-width:1.0;"/><line style="stroke:#181818;stroke-width:1.0;" x1="708" x2="928" y1="963.3125" y2="963.3125"/><text fill="#000000" font-family="sans-serif" font-size="13" lengthAdjust="spacing" textLength="161" x="720" y="958.2466">runs super.firstUpdated()</text><polygon fill="#181818" points="488,988.4453,478,992.4453,488,996.4453,484,992.4453" style="stroke:#181818;stroke-width:1.0;"/><line style="stroke:#181818;stroke-width:1.0;" x1="482" x2="702" y1="992.4453" y2="992.4453"/><text fill="#000000" font-family="sans-serif" font-size="13" lengthAdjust="spacing" textLength="161" x="494" y="987.3794">runs super.firstUpdated()</text><path d="M384.5,1014.4453 L492.5,1014.4453 L492.5,1021.5781 L482.5,1031.5781 L384.5,1031.5781 L384.5,1014.4453 " fill="#EEEEEE" style="stroke:#000000;stroke-width:1.5;"/><rect fill="none" height="133.6641" style="stroke:#000000;stroke-width:1.5;" width="628" x="384.5" y="1014.4453"/><text fill="#000000" font-family="sans-serif" font-size="13" font-weight="bold" lengthAdjust="spacing" textLength="63" x="399.5" y="1027.5122">updated</text><polygon fill="#181818" points="917,1048.7109,927,1052.7109,917,1056.7109,921,1052.7109" style="stroke:#181818;stroke-width:1.0;"/><line style="stroke:#181818;stroke-width:1.0;" x1="477" x2="923" y1="1052.7109" y2="1052.7109"/><text fill="#000000" font-family="sans-serif" font-size="13" lengthAdjust="spacing" textLength="122" x="484" y="1047.645">runs this.updated()</text><polygon fill="#181818" points="714,1077.8438,704,1081.8438,714,1085.8438,710,1081.8438" style="stroke:#181818;stroke-width:1.0;"/><line style="stroke:#181818;stroke-width:1.0;" x1="708" x2="928" y1="1081.8438" y2="1081.8438"/><text fill="#000000" font-family="sans-serif" font-size="13" lengthAdjust="spacing" textLength="135" x="720" y="1076.7778">runs super.updated()</text><polygon fill="#181818" points="488,1106.9766,478,1110.9766,488,1114.9766,484,1110.9766" style="stroke:#181818;stroke-width:1.0;"/><line style="stroke:#181818;stroke-width:1.0;" x1="482" x2="702" y1="1110.9766" y2="1110.9766"/><text fill="#000000" font-family="sans-serif" font-size="13" lengthAdjust="spacing" textLength="135" x="494" y="1105.9106">runs super.updated()</text><polygon fill="#181818" points="1020.5,1136.1094,1030.5,1140.1094,1020.5,1144.1094,1024.5,1140.1094" style="stroke:#181818;stroke-width:1.0;"/><line style="stroke:#181818;stroke-width:1.0;" x1="477" x2="1026.5" y1="1140.1094" y2="1140.1094"/><text fill="#000000" font-family="sans-serif" font-size="13" lengthAdjust="spacing" textLength="69" x="484" y="1135.0435">dispatches</text><text fill="#000000" font-family="sans-serif" font-size="13" font-weight="bold" lengthAdjust="spacing" textLength="77" x="557" y="1135.0435">"updated"</text><text fill="#000000" font-family="sans-serif" font-size="13" lengthAdjust="spacing" textLength="36" x="638" y="1135.0435">event</text><line style="stroke:#181818;stroke-width:1.0;" x1="477" x2="519" y1="1176.2422" y2="1176.2422"/><line style="stroke:#181818;stroke-width:1.0;" x1="519" x2="519" y1="1176.2422" y2="1189.2422"/><line style="stroke:#181818;stroke-width:1.0;" x1="478" x2="519" y1="1189.2422" y2="1189.2422"/><polygon fill="#181818" points="488,1185.2422,478,1189.2422,488,1193.2422,484,1189.2422" style="stroke:#181818;stroke-width:1.0;"/><text fill="#000000" font-family="sans-serif" font-size="13" lengthAdjust="spacing" textLength="164" x="484" y="1171.1763">resolves updateComplete</text><!--MD5=[c4f6a46b931a1574d71e331170859804]
@startuml polar_plane_append
  title <polar-plane/> append workflow

  participant Window

  box <polar-plane/> #e0e0e0
    participant AbstractChartElement
    participant AbstractPlaneElement
    collections PolarPlaneElement
  end box

  -> Window: append <polar-plane/>
  Window -> PolarPlaneElement: creates new PolarPlaneElement()

  group #b3e5fc Pre-Update
    AbstractPlaneElement <- PolarPlaneElement: runs super()
    AbstractChartElement <- AbstractPlaneElement: runs super()
    Window <- AbstractChartElement: creates a shadow DOM
    Window <- AbstractChartElement: attaches styles to a shadow DOM

    group #039be5 connectedCallback
      AbstractChartElement -> PolarPlaneElement: runs this.connectedCallback()
      AbstractPlaneElement <- PolarPlaneElement: runs super.connectedCallback()
      AbstractChartElement <- AbstractPlaneElement: runs super.connectedCallback()
      AbstractChartElement -> Window: runs addEventListener(<b>"styles-changed"</b>)
    end

    AbstractChartElement -> AbstractChartElement: runs requestUpdate()
  end

  ==async==

  group #b3e5fc Update
    AbstractChartElement -> AbstractChartElement: runs performUpdate()
    AbstractChartElement -> AbstractChartElement: runs shouldUpdate()
    AbstractChartElement -> AbstractChartElement: runs willUpdate()
    AbstractChartElement -> AbstractChartElement: runs update()
    
    group #039be5 render
      AbstractChartElement -> PolarPlaneElement: runs render()
      AbstractChartElement <- PolarPlaneElement: returns template
    end

    Window <- AbstractChartElement: updates shadow tree
  end

  group #b3e5fc Post-Updated
    group #039be5 fistUpdated
      AbstractChartElement -> PolarPlaneElement: runs this.firstUpdated()
      AbstractPlaneElement <- PolarPlaneElement: runs super.firstUpdated()
      AbstractChartElement <- AbstractPlaneElement: runs super.firstUpdated()
    end

    group #039be5 updated
      AbstractChartElement -> PolarPlaneElement: runs this.updated()
      AbstractPlaneElement <- PolarPlaneElement: runs super.updated()
      AbstractChartElement <- AbstractPlaneElement: runs super.updated()
      AbstractChartElement -> : dispatches <b>"updated"</b> event
    end

    AbstractChartElement -> AbstractChartElement: resolves updateComplete
  end
@enduml

PlantUML version 1.2022.7(Mon Aug 22 19:01:30 CEST 2022)
(GPL source distribution)
Java Runtime: OpenJDK Runtime Environment
JVM: OpenJDK 64-Bit Server VM
Default Encoding: UTF-8
Language: en
Country: US
--></g></svg>