<?xml version="1.0" encoding="UTF-8" standalone="no"?><svg xmlns="http://www.w3.org/2000/svg" xmlns:xlink="http://www.w3.org/1999/xlink" contentStyleType="text/css" height="1148px" preserveAspectRatio="none" style="width:784px;height:1148px;background:#FFFFFF;" version="1.1" viewBox="0 0 784 1148" width="784px" zoomAndPan="magnify"><defs/><g><rect fill="none" height="26.2969" id="_title" style="stroke:none;stroke-width:1.0;" width="255" x="260.5" y="10"/><text fill="#000000" font-family="sans-serif" font-size="14" font-weight="bold" lengthAdjust="spacing" textLength="245" x="265.5" y="27.9951">Append &lt;hdml-view/&gt; element</text><rect fill="#E0E0E0" height="1099.5781" style="stroke:#181818;stroke-width:0.5;" width="389.5" x="361.5" y="43.2969"/><text fill="#000000" font-family="sans-serif" font-size="13" font-weight="bold" lengthAdjust="spacing" textLength="102" x="502.75" y="55.3638">&lt;hdml-view/&gt;</text><rect fill="#B3E5FC" height="265.1953" style="stroke:#000000;stroke-width:1.5;" width="655" x="112" y="172.9922"/><rect fill="#039BE5" height="75.3984" style="stroke:#000000;stroke-width:1.5;" width="635" x="122" y="313.6563"/><rect fill="#B3E5FC" height="273.0625" style="stroke:#000000;stroke-width:1.5;" width="635" x="122" y="495.3203"/><rect fill="#B3E5FC" height="305.1953" style="stroke:#000000;stroke-width:1.5;" width="635" x="122" y="782.3828"/><rect fill="#039BE5" height="59.2656" style="stroke:#000000;stroke-width:1.5;" width="252.5" x="355.5" y="906.9141"/><line style="stroke:#181818;stroke-width:0.5;stroke-dasharray:5.0,5.0;" x1="166" x2="166" y1="97.7266" y2="1104.5781"/><line style="stroke:#181818;stroke-width:0.5;stroke-dasharray:5.0,5.0;" x1="449.5" x2="449.5" y1="97.7266" y2="1104.5781"/><line style="stroke:#181818;stroke-width:0.5;stroke-dasharray:5.0,5.0;" x1="676" x2="676" y1="97.7266" y2="1104.5781"/><rect fill="#E2E2F0" height="30.2969" rx="2.5" ry="2.5" style="stroke:#181818;stroke-width:0.5;" width="68" x="132" y="66.4297"/><text fill="#000000" font-family="sans-serif" font-size="14" lengthAdjust="spacing" textLength="54" x="139" y="86.4248">Window</text><rect fill="#E2E2F0" height="30.2969" rx="2.5" ry="2.5" style="stroke:#181818;stroke-width:0.5;" width="68" x="132" y="1103.5781"/><text fill="#000000" font-family="sans-serif" font-size="14" lengthAdjust="spacing" textLength="54" x="139" y="1123.5732">Window</text><rect fill="#E2E2F0" height="30.2969" style="stroke:#181818;stroke-width:0.5;" width="165" x="369.5" y="62.4297"/><rect fill="#E2E2F0" height="30.2969" style="stroke:#181818;stroke-width:0.5;" width="165" x="365.5" y="66.4297"/><text fill="#000000" font-family="sans-serif" font-size="14" lengthAdjust="spacing" textLength="151" x="372.5" y="86.4248">AbstractChartElement</text><rect fill="#E2E2F0" height="30.2969" style="stroke:#181818;stroke-width:0.5;" width="165" x="369.5" y="1103.5781"/><rect fill="#E2E2F0" height="30.2969" style="stroke:#181818;stroke-width:0.5;" width="165" x="365.5" y="1107.5781"/><text fill="#000000" font-family="sans-serif" font-size="14" lengthAdjust="spacing" textLength="151" x="372.5" y="1127.5732">AbstractChartElement</text><rect fill="#E2E2F0" height="30.2969" style="stroke:#181818;stroke-width:0.5;" width="138" x="609" y="62.4297"/><rect fill="#E2E2F0" height="30.2969" style="stroke:#181818;stroke-width:0.5;" width="138" x="605" y="66.4297"/><text fill="#000000" font-family="sans-serif" font-size="14" lengthAdjust="spacing" textLength="124" x="612" y="86.4248">HdmlViewElement</text><rect fill="#E2E2F0" height="30.2969" style="stroke:#181818;stroke-width:0.5;" width="138" x="609" y="1103.5781"/><rect fill="#E2E2F0" height="30.2969" style="stroke:#181818;stroke-width:0.5;" width="138" x="605" y="1107.5781"/><text fill="#000000" font-family="sans-serif" font-size="14" lengthAdjust="spacing" textLength="124" x="612" y="1127.5732">HdmlViewElement</text><polygon fill="#181818" points="154,124.8594,164,128.8594,154,132.8594,158,128.8594" style="stroke:#181818;stroke-width:1.0;"/><line style="stroke:#181818;stroke-width:1.0;" x1="0" x2="160" y1="128.8594" y2="128.8594"/><text fill="#000000" font-family="sans-serif" font-size="13" lengthAdjust="spacing" textLength="142" x="7" y="123.7935">append &lt;hdml-view/&gt;</text><polygon fill="#181818" points="664,153.9922,674,157.9922,664,161.9922,668,157.9922" style="stroke:#181818;stroke-width:1.0;"/><line style="stroke:#181818;stroke-width:1.0;" x1="166" x2="670" y1="157.9922" y2="157.9922"/><text fill="#000000" font-family="sans-serif" font-size="13" lengthAdjust="spacing" textLength="207" x="173" y="152.9263">creates new HdmlViewElement()</text><path d="M112,172.9922 L241,172.9922 L241,180.125 L231,190.125 L112,190.125 L112,172.9922 " fill="#EEEEEE" style="stroke:#000000;stroke-width:1.5;"/><rect fill="none" height="265.1953" style="stroke:#000000;stroke-width:1.5;" width="655" x="112" y="172.9922"/><text fill="#000000" font-family="sans-serif" font-size="13" font-weight="bold" lengthAdjust="spacing" textLength="84" x="127" y="186.0591">Pre-Update</text><polygon fill="#181818" points="461,207.2578,451,211.2578,461,215.2578,457,211.2578" style="stroke:#181818;stroke-width:1.0;"/><line style="stroke:#181818;stroke-width:1.0;" x1="455" x2="675" y1="211.2578" y2="211.2578"/><text fill="#000000" font-family="sans-serif" font-size="13" lengthAdjust="spacing" textLength="78" x="467" y="206.1919">runs super()</text><polygon fill="#181818" points="177,236.3906,167,240.3906,177,244.3906,173,240.3906" style="stroke:#181818;stroke-width:1.0;"/><line style="stroke:#181818;stroke-width:1.0;" x1="171" x2="449" y1="240.3906" y2="240.3906"/><text fill="#000000" font-family="sans-serif" font-size="13" lengthAdjust="spacing" textLength="147" x="183" y="235.3247">creates a shadow DOM</text><polygon fill="#181818" points="177,265.5234,167,269.5234,177,273.5234,173,269.5234" style="stroke:#181818;stroke-width:1.0;"/><line style="stroke:#181818;stroke-width:1.0;" x1="171" x2="449" y1="269.5234" y2="269.5234"/><text fill="#000000" font-family="sans-serif" font-size="13" lengthAdjust="spacing" textLength="213" x="183" y="264.4575">attaches styles to a shadow DOM</text><polygon fill="#181818" points="664,294.6563,674,298.6563,664,302.6563,668,298.6563" style="stroke:#181818;stroke-width:1.0;"/><line style="stroke:#181818;stroke-width:1.0;" x1="450" x2="670" y1="298.6563" y2="298.6563"/><text fill="#000000" font-family="sans-serif" font-size="13" lengthAdjust="spacing" textLength="162" x="457" y="293.5903">runs connectedCallback()</text><path d="M122,313.6563 L307,313.6563 L307,320.7891 L297,330.7891 L122,330.7891 L122,313.6563 " fill="#EEEEEE" style="stroke:#000000;stroke-width:1.5;"/><rect fill="none" height="75.3984" style="stroke:#000000;stroke-width:1.5;" width="635" x="122" y="313.6563"/><text fill="#000000" font-family="sans-serif" font-size="13" font-weight="bold" lengthAdjust="spacing" textLength="140" x="137" y="326.7231">connectedCallback</text><polygon fill="#181818" points="461,347.9219,451,351.9219,461,355.9219,457,351.9219" style="stroke:#181818;stroke-width:1.0;"/><line style="stroke:#181818;stroke-width:1.0;" x1="455" x2="675" y1="351.9219" y2="351.9219"/><text fill="#000000" font-family="sans-serif" font-size="13" lengthAdjust="spacing" textLength="202" x="467" y="346.856">runs super.connectedCallback()</text><polygon fill="#181818" points="177,377.0547,167,381.0547,177,385.0547,173,381.0547" style="stroke:#181818;stroke-width:1.0;"/><line style="stroke:#181818;stroke-width:1.0;" x1="171" x2="449" y1="381.0547" y2="381.0547"/><text fill="#000000" font-family="sans-serif" font-size="13" lengthAdjust="spacing" textLength="260" x="183" y="375.9888">runs addEventListener("styles-changed")</text><line style="stroke:#181818;stroke-width:1.0;" x1="450" x2="492" y1="417.1875" y2="417.1875"/><line style="stroke:#181818;stroke-width:1.0;" x1="492" x2="492" y1="417.1875" y2="430.1875"/><line style="stroke:#181818;stroke-width:1.0;" x1="451" x2="492" y1="430.1875" y2="430.1875"/><polygon fill="#181818" points="461,426.1875,451,430.1875,461,434.1875,457,430.1875" style="stroke:#181818;stroke-width:1.0;"/><text fill="#000000" font-family="sans-serif" font-size="13" lengthAdjust="spacing" textLength="138" x="457" y="412.1216">runs requestUpdate()</text><rect fill="#EEEEEE" height="3" style="stroke:#EEEEEE;stroke-width:1.0;" width="777" x="0" y="465.7539"/><line style="stroke:#000000;stroke-width:1.0;" x1="0" x2="777" y1="465.7539" y2="465.7539"/><line style="stroke:#000000;stroke-width:1.0;" x1="0" x2="777" y1="468.7539" y2="468.7539"/><rect fill="#EEEEEE" height="23.1328" style="stroke:#000000;stroke-width:2.0;" width="56" x="360.5" y="455.1875"/><text fill="#000000" font-family="sans-serif" font-size="13" font-weight="bold" lengthAdjust="spacing" textLength="42" x="366.5" y="471.2544">async</text><path d="M122,495.3203 L221,495.3203 L221,502.4531 L211,512.4531 L122,512.4531 L122,495.3203 " fill="#EEEEEE" style="stroke:#000000;stroke-width:1.5;"/><rect fill="none" height="273.0625" style="stroke:#000000;stroke-width:1.5;" width="635" x="122" y="495.3203"/><text fill="#000000" font-family="sans-serif" font-size="13" font-weight="bold" lengthAdjust="spacing" textLength="54" x="137" y="508.3872">Update</text><line style="stroke:#181818;stroke-width:1.0;" x1="450" x2="492" y1="533.5859" y2="533.5859"/><line style="stroke:#181818;stroke-width:1.0;" x1="492" x2="492" y1="533.5859" y2="546.5859"/><line style="stroke:#181818;stroke-width:1.0;" x1="451" x2="492" y1="546.5859" y2="546.5859"/><polygon fill="#181818" points="461,542.5859,451,546.5859,461,550.5859,457,546.5859" style="stroke:#181818;stroke-width:1.0;"/><text fill="#000000" font-family="sans-serif" font-size="13" lengthAdjust="spacing" textLength="140" x="457" y="528.52">runs performUpdate()</text><line style="stroke:#181818;stroke-width:1.0;" x1="450" x2="492" y1="575.7188" y2="575.7188"/><line style="stroke:#181818;stroke-width:1.0;" x1="492" x2="492" y1="575.7188" y2="588.7188"/><line style="stroke:#181818;stroke-width:1.0;" x1="451" x2="492" y1="588.7188" y2="588.7188"/><polygon fill="#181818" points="461,584.7188,451,588.7188,461,592.7188,457,588.7188" style="stroke:#181818;stroke-width:1.0;"/><text fill="#000000" font-family="sans-serif" font-size="13" lengthAdjust="spacing" textLength="131" x="457" y="570.6528">runs shouldUpdate()</text><line style="stroke:#181818;stroke-width:1.0;" x1="450" x2="492" y1="617.8516" y2="617.8516"/><line style="stroke:#181818;stroke-width:1.0;" x1="492" x2="492" y1="617.8516" y2="630.8516"/><line style="stroke:#181818;stroke-width:1.0;" x1="451" x2="492" y1="630.8516" y2="630.8516"/><polygon fill="#181818" points="461,626.8516,451,630.8516,461,634.8516,457,630.8516" style="stroke:#181818;stroke-width:1.0;"/><text fill="#000000" font-family="sans-serif" font-size="13" lengthAdjust="spacing" textLength="107" x="457" y="612.7856">runs willUpdate()</text><line style="stroke:#181818;stroke-width:1.0;" x1="450" x2="492" y1="659.9844" y2="659.9844"/><line style="stroke:#181818;stroke-width:1.0;" x1="492" x2="492" y1="659.9844" y2="672.9844"/><line style="stroke:#181818;stroke-width:1.0;" x1="451" x2="492" y1="672.9844" y2="672.9844"/><polygon fill="#181818" points="461,668.9844,451,672.9844,461,676.9844,457,672.9844" style="stroke:#181818;stroke-width:1.0;"/><text fill="#000000" font-family="sans-serif" font-size="13" lengthAdjust="spacing" textLength="87" x="457" y="654.9185">runs update()</text><polygon fill="#181818" points="664,698.1172,674,702.1172,664,706.1172,668,702.1172" style="stroke:#181818;stroke-width:1.0;"/><line style="stroke:#181818;stroke-width:1.0;" x1="450" x2="670" y1="702.1172" y2="702.1172"/><text fill="#000000" font-family="sans-serif" font-size="13" lengthAdjust="spacing" textLength="84" x="457" y="697.0513">runs render()</text><polygon fill="#181818" points="461,727.25,451,731.25,461,735.25,457,731.25" style="stroke:#181818;stroke-width:1.0;"/><line style="stroke:#181818;stroke-width:1.0;" x1="455" x2="675" y1="731.25" y2="731.25"/><text fill="#000000" font-family="sans-serif" font-size="13" lengthAdjust="spacing" textLength="108" x="467" y="726.1841">returns template</text><polygon fill="#181818" points="177,756.3828,167,760.3828,177,764.3828,173,760.3828" style="stroke:#181818;stroke-width:1.0;"/><line style="stroke:#181818;stroke-width:1.0;" x1="171" x2="449" y1="760.3828" y2="760.3828"/><text fill="#000000" font-family="sans-serif" font-size="13" lengthAdjust="spacing" textLength="134" x="183" y="755.3169">updates shadow tree</text><path d="M122,782.3828 L269,782.3828 L269,789.5156 L259,799.5156 L122,799.5156 L122,782.3828 " fill="#EEEEEE" style="stroke:#000000;stroke-width:1.5;"/><rect fill="none" height="305.1953" style="stroke:#000000;stroke-width:1.5;" width="635" x="122" y="782.3828"/><text fill="#000000" font-family="sans-serif" font-size="13" font-weight="bold" lengthAdjust="spacing" textLength="102" x="137" y="795.4497">Post-Updated</text><polygon fill="#181818" points="664,816.6484,674,820.6484,664,824.6484,668,820.6484" style="stroke:#181818;stroke-width:1.0;"/><line style="stroke:#181818;stroke-width:1.0;" x1="450" x2="670" y1="820.6484" y2="820.6484"/><text fill="#000000" font-family="sans-serif" font-size="13" lengthAdjust="spacing" textLength="121" x="457" y="815.5825">runs firstUpdated()</text><polygon fill="#181818" points="177,845.7813,167,849.7813,177,853.7813,173,849.7813" style="stroke:#181818;stroke-width:1.0;"/><line style="stroke:#181818;stroke-width:1.0;" x1="171" x2="675" y1="849.7813" y2="849.7813"/><text fill="#000000" font-family="sans-serif" font-size="13" lengthAdjust="spacing" textLength="229" x="183" y="844.7153">initializes canvas in the shadow tree</text><line style="stroke:#181818;stroke-width:1.0;" x1="450" x2="492" y1="878.9141" y2="878.9141"/><line style="stroke:#181818;stroke-width:1.0;" x1="492" x2="492" y1="878.9141" y2="891.9141"/><line style="stroke:#181818;stroke-width:1.0;" x1="451" x2="492" y1="891.9141" y2="891.9141"/><polygon fill="#181818" points="461,887.9141,451,891.9141,461,895.9141,457,891.9141" style="stroke:#181818;stroke-width:1.0;"/><text fill="#000000" font-family="sans-serif" font-size="13" lengthAdjust="spacing" textLength="95" x="457" y="873.8481">runs updated()</text><path d="M355.5,906.9141 L463.5,906.9141 L463.5,914.0469 L453.5,924.0469 L355.5,924.0469 L355.5,906.9141 " fill="#EEEEEE" style="stroke:#000000;stroke-width:1.5;"/><rect fill="none" height="59.2656" style="stroke:#000000;stroke-width:1.5;" width="252.5" x="355.5" y="906.9141"/><text fill="#000000" font-family="sans-serif" font-size="13" font-weight="bold" lengthAdjust="spacing" textLength="63" x="370.5" y="919.981">updated</text><line style="stroke:#181818;stroke-width:1.0;" x1="450" x2="492" y1="945.1797" y2="945.1797"/><line style="stroke:#181818;stroke-width:1.0;" x1="492" x2="492" y1="945.1797" y2="958.1797"/><line style="stroke:#181818;stroke-width:1.0;" x1="451" x2="492" y1="958.1797" y2="958.1797"/><polygon fill="#181818" points="461,954.1797,451,958.1797,461,962.1797,457,958.1797" style="stroke:#181818;stroke-width:1.0;"/><text fill="#000000" font-family="sans-serif" font-size="13" lengthAdjust="spacing" textLength="139" x="457" y="940.1138">sets dispatch timeout</text><line style="stroke:#181818;stroke-width:1.0;" x1="450" x2="492" y1="994.3125" y2="994.3125"/><line style="stroke:#181818;stroke-width:1.0;" x1="492" x2="492" y1="994.3125" y2="1007.3125"/><line style="stroke:#181818;stroke-width:1.0;" x1="451" x2="492" y1="1007.3125" y2="1007.3125"/><polygon fill="#181818" points="461,1003.3125,451,1007.3125,461,1011.3125,457,1007.3125" style="stroke:#181818;stroke-width:1.0;"/><text fill="#000000" font-family="sans-serif" font-size="13" lengthAdjust="spacing" textLength="164" x="457" y="989.2466">resolves updateComplete</text><rect fill="#EEEEEE" height="3" style="stroke:#EEEEEE;stroke-width:1.0;" width="777" x="0" y="1035.8789"/><line style="stroke:#000000;stroke-width:1.0;" x1="0" x2="777" y1="1035.8789" y2="1035.8789"/><line style="stroke:#000000;stroke-width:1.0;" x1="0" x2="777" y1="1038.8789" y2="1038.8789"/><rect fill="#EEEEEE" height="23.1328" style="stroke:#000000;stroke-width:2.0;" width="56" x="360.5" y="1025.3125"/><text fill="#000000" font-family="sans-serif" font-size="13" font-weight="bold" lengthAdjust="spacing" textLength="42" x="366.5" y="1041.3794">async</text><polygon fill="#181818" points="765,1075.5781,775,1079.5781,765,1083.5781,769,1079.5781" style="stroke:#181818;stroke-width:1.0;"/><line style="stroke:#181818;stroke-width:1.0;" x1="450" x2="771" y1="1079.5781" y2="1079.5781"/><text fill="#000000" font-family="sans-serif" font-size="13" lengthAdjust="spacing" textLength="220" x="457" y="1074.5122">dispatches "styles-changed" event</text><!--MD5=[182fe9408f89a81a164ae7d05278ac3a]
@startuml append_hdml_view
  
  title Append <hdml-view/> element

  participant Window

  box <hdml-view/> #e0e0e0
    collections AbstractChartElement
    collections HdmlViewElement
  end box

  -> Window: append <hdml-view/>
  Window -> HdmlViewElement: creates new HdmlViewElement()

  group #b3e5fc Pre-Update
    AbstractChartElement <- HdmlViewElement: runs super()
    Window <- AbstractChartElement: creates a shadow DOM
    Window <- AbstractChartElement: attaches styles to a shadow DOM
    AbstractChartElement -> HdmlViewElement: runs connectedCallback()

    group #039be5 connectedCallback
      AbstractChartElement <- HdmlViewElement: runs super.connectedCallback()
      AbstractChartElement -> Window: runs addEventListener("styles-changed")
    end

    AbstractChartElement -> AbstractChartElement: runs requestUpdate()
  end

  ==async==

  group #b3e5fc Update
    AbstractChartElement -> AbstractChartElement: runs performUpdate()
    AbstractChartElement -> AbstractChartElement: runs shouldUpdate()
    AbstractChartElement -> AbstractChartElement: runs willUpdate()
    AbstractChartElement -> AbstractChartElement: runs update()
    AbstractChartElement -> HdmlViewElement: runs render()
    AbstractChartElement <- HdmlViewElement: returns template
    Window <- AbstractChartElement: updates shadow tree
  end

  group #b3e5fc Post-Updated
    AbstractChartElement -> HdmlViewElement: runs firstUpdated()
    Window <- HdmlViewElement: initializes canvas in the shadow tree
    AbstractChartElement -> AbstractChartElement: runs updated()
    group #039be5 updated
      AbstractChartElement -> AbstractChartElement: sets dispatch timeout
    end
    AbstractChartElement -> AbstractChartElement: resolves updateComplete
    
    ==async==

    AbstractChartElement -> : dispatches "styles-changed" event
  end

@enduml

PlantUML version 1.2022.7(Mon Aug 22 19:01:30 CEST 2022)
(GPL source distribution)
Java Runtime: OpenJDK Runtime Environment
JVM: OpenJDK 64-Bit Server VM
Default Encoding: UTF-8
Language: en
Country: US
--></g></svg>