<?xml version="1.0" encoding="UTF-8" standalone="no"?><svg xmlns="http://www.w3.org/2000/svg" xmlns:xlink="http://www.w3.org/1999/xlink" contentStyleType="text/css" height="1258px" preserveAspectRatio="none" style="width:1082px;height:1258px;background:#FFFFFF;" version="1.1" viewBox="0 0 1082 1258" width="1082px" zoomAndPan="magnify"><defs/><g><rect fill="none" height="26.2969" id="_title" style="stroke:none;stroke-width:1.0;" width="304" x="385" y="10"/><text fill="#000000" font-family="sans-serif" font-size="14" font-weight="bold" lengthAdjust="spacing" textLength="294" x="390" y="27.9951">&lt;cartesian-plane/&gt; append workflow</text><rect fill="#E0E0E0" height="1209.2422" style="stroke:#181818;stroke-width:0.5;" width="631.5" x="417.5" y="43.2969"/><text fill="#000000" font-family="sans-serif" font-size="13" font-weight="bold" lengthAdjust="spacing" textLength="141" x="660.25" y="55.3638">&lt;cartesian-plane/&gt;</text><rect fill="#B3E5FC" height="323.4609" style="stroke:#000000;stroke-width:1.5;" width="918" x="147" y="172.9922"/><rect fill="#039BE5" height="133.6641" style="stroke:#000000;stroke-width:1.5;" width="898" x="157" y="313.6563"/><rect fill="#B3E5FC" height="304.1953" style="stroke:#000000;stroke-width:1.5;" width="908" x="157" y="553.5859"/><rect fill="#039BE5" height="75.3984" style="stroke:#000000;stroke-width:1.5;" width="643.5" x="411.5" y="746.25"/><rect fill="#B3E5FC" height="325.4609" style="stroke:#000000;stroke-width:1.5;" width="663.5" x="401.5" y="871.7813"/><rect fill="#039BE5" height="104.5313" style="stroke:#000000;stroke-width:1.5;" width="643.5" x="411.5" y="895.9141"/><rect fill="#039BE5" height="133.6641" style="stroke:#000000;stroke-width:1.5;" width="643.5" x="411.5" y="1014.4453"/><line style="stroke:#181818;stroke-width:0.5;stroke-dasharray:5.0,5.0;" x1="201" x2="201" y1="97.7266" y2="1214.2422"/><line style="stroke:#181818;stroke-width:0.5;stroke-dasharray:5.0,5.0;" x1="503.5" x2="503.5" y1="97.7266" y2="1214.2422"/><line style="stroke:#181818;stroke-width:0.5;stroke-dasharray:5.0,5.0;" x1="730" x2="730" y1="97.7266" y2="1214.2422"/><line style="stroke:#181818;stroke-width:0.5;stroke-dasharray:5.0,5.0;" x1="956" x2="956" y1="97.7266" y2="1214.2422"/><rect fill="#E2E2F0" height="30.2969" rx="2.5" ry="2.5" style="stroke:#181818;stroke-width:0.5;" width="68" x="167" y="66.4297"/><text fill="#000000" font-family="sans-serif" font-size="14" lengthAdjust="spacing" textLength="54" x="174" y="86.4248">Window</text><rect fill="#E2E2F0" height="30.2969" rx="2.5" ry="2.5" style="stroke:#181818;stroke-width:0.5;" width="68" x="167" y="1213.2422"/><text fill="#000000" font-family="sans-serif" font-size="14" lengthAdjust="spacing" textLength="54" x="174" y="1233.2373">Window</text><rect fill="#E2E2F0" height="30.2969" rx="2.5" ry="2.5" style="stroke:#181818;stroke-width:0.5;" width="165" x="421.5" y="66.4297"/><text fill="#000000" font-family="sans-serif" font-size="14" lengthAdjust="spacing" textLength="151" x="428.5" y="86.4248">AbstractChartElement</text><rect fill="#E2E2F0" height="30.2969" rx="2.5" ry="2.5" style="stroke:#181818;stroke-width:0.5;" width="165" x="421.5" y="1213.2422"/><text fill="#000000" font-family="sans-serif" font-size="14" lengthAdjust="spacing" textLength="151" x="428.5" y="1233.2373">AbstractChartElement</text><rect fill="#E2E2F0" height="30.2969" rx="2.5" ry="2.5" style="stroke:#181818;stroke-width:0.5;" width="166" x="647" y="66.4297"/><text fill="#000000" font-family="sans-serif" font-size="14" lengthAdjust="spacing" textLength="152" x="654" y="86.4248">AbstractPlaneElement</text><rect fill="#E2E2F0" height="30.2969" rx="2.5" ry="2.5" style="stroke:#181818;stroke-width:0.5;" width="166" x="647" y="1213.2422"/><text fill="#000000" font-family="sans-serif" font-size="14" lengthAdjust="spacing" textLength="152" x="654" y="1233.2373">AbstractPlaneElement</text><rect fill="#E2E2F0" height="30.2969" style="stroke:#181818;stroke-width:0.5;" width="174" x="871" y="62.4297"/><rect fill="#E2E2F0" height="30.2969" style="stroke:#181818;stroke-width:0.5;" width="174" x="867" y="66.4297"/><text fill="#000000" font-family="sans-serif" font-size="14" lengthAdjust="spacing" textLength="160" x="874" y="86.4248">CartesianPlaneElement</text><rect fill="#E2E2F0" height="30.2969" style="stroke:#181818;stroke-width:0.5;" width="174" x="871" y="1213.2422"/><rect fill="#E2E2F0" height="30.2969" style="stroke:#181818;stroke-width:0.5;" width="174" x="867" y="1217.2422"/><text fill="#000000" font-family="sans-serif" font-size="14" lengthAdjust="spacing" textLength="160" x="874" y="1237.2373">CartesianPlaneElement</text><polygon fill="#181818" points="189,124.8594,199,128.8594,189,132.8594,193,128.8594" style="stroke:#181818;stroke-width:1.0;"/><line style="stroke:#181818;stroke-width:1.0;" x1="0" x2="195" y1="128.8594" y2="128.8594"/><text fill="#000000" font-family="sans-serif" font-size="13" lengthAdjust="spacing" textLength="177" x="7" y="123.7935">append &lt;cartesian-plane/&gt;</text><polygon fill="#181818" points="944,153.9922,954,157.9922,944,161.9922,948,157.9922" style="stroke:#181818;stroke-width:1.0;"/><line style="stroke:#181818;stroke-width:1.0;" x1="201" x2="950" y1="157.9922" y2="157.9922"/><text fill="#000000" font-family="sans-serif" font-size="13" lengthAdjust="spacing" textLength="240" x="208" y="152.9263">creates new CartesianPlaneElement()</text><path d="M147,172.9922 L276,172.9922 L276,180.125 L266,190.125 L147,190.125 L147,172.9922 " fill="#EEEEEE" style="stroke:#000000;stroke-width:1.5;"/><rect fill="none" height="323.4609" style="stroke:#000000;stroke-width:1.5;" width="918" x="147" y="172.9922"/><text fill="#000000" font-family="sans-serif" font-size="13" font-weight="bold" lengthAdjust="spacing" textLength="84" x="162" y="186.0591">Pre-Update</text><polygon fill="#181818" points="741,207.2578,731,211.2578,741,215.2578,737,211.2578" style="stroke:#181818;stroke-width:1.0;"/><line style="stroke:#181818;stroke-width:1.0;" x1="735" x2="955" y1="211.2578" y2="211.2578"/><text fill="#000000" font-family="sans-serif" font-size="13" lengthAdjust="spacing" textLength="78" x="747" y="206.1919">runs super()</text><polygon fill="#181818" points="515,236.3906,505,240.3906,515,244.3906,511,240.3906" style="stroke:#181818;stroke-width:1.0;"/><line style="stroke:#181818;stroke-width:1.0;" x1="509" x2="729" y1="240.3906" y2="240.3906"/><text fill="#000000" font-family="sans-serif" font-size="13" lengthAdjust="spacing" textLength="78" x="521" y="235.3247">runs super()</text><polygon fill="#181818" points="212,265.5234,202,269.5234,212,273.5234,208,269.5234" style="stroke:#181818;stroke-width:1.0;"/><line style="stroke:#181818;stroke-width:1.0;" x1="206" x2="503" y1="269.5234" y2="269.5234"/><text fill="#000000" font-family="sans-serif" font-size="13" lengthAdjust="spacing" textLength="147" x="218" y="264.4575">creates a shadow DOM</text><polygon fill="#181818" points="212,294.6563,202,298.6563,212,302.6563,208,298.6563" style="stroke:#181818;stroke-width:1.0;"/><line style="stroke:#181818;stroke-width:1.0;" x1="206" x2="503" y1="298.6563" y2="298.6563"/><text fill="#000000" font-family="sans-serif" font-size="13" lengthAdjust="spacing" textLength="213" x="218" y="293.5903">attaches styles to a shadow DOM</text><path d="M157,313.6563 L342,313.6563 L342,320.7891 L332,330.7891 L157,330.7891 L157,313.6563 " fill="#EEEEEE" style="stroke:#000000;stroke-width:1.5;"/><rect fill="none" height="133.6641" style="stroke:#000000;stroke-width:1.5;" width="898" x="157" y="313.6563"/><text fill="#000000" font-family="sans-serif" font-size="13" font-weight="bold" lengthAdjust="spacing" textLength="140" x="172" y="326.7231">connectedCallback</text><polygon fill="#181818" points="944,347.9219,954,351.9219,944,355.9219,948,351.9219" style="stroke:#181818;stroke-width:1.0;"/><line style="stroke:#181818;stroke-width:1.0;" x1="504" x2="950" y1="351.9219" y2="351.9219"/><text fill="#000000" font-family="sans-serif" font-size="13" lengthAdjust="spacing" textLength="189" x="511" y="346.856">runs this.connectedCallback()</text><polygon fill="#181818" points="741,377.0547,731,381.0547,741,385.0547,737,381.0547" style="stroke:#181818;stroke-width:1.0;"/><line style="stroke:#181818;stroke-width:1.0;" x1="735" x2="955" y1="381.0547" y2="381.0547"/><text fill="#000000" font-family="sans-serif" font-size="13" lengthAdjust="spacing" textLength="202" x="747" y="375.9888">runs super.connectedCallback()</text><polygon fill="#181818" points="515,406.1875,505,410.1875,515,414.1875,511,410.1875" style="stroke:#181818;stroke-width:1.0;"/><line style="stroke:#181818;stroke-width:1.0;" x1="509" x2="729" y1="410.1875" y2="410.1875"/><text fill="#000000" font-family="sans-serif" font-size="13" lengthAdjust="spacing" textLength="202" x="521" y="405.1216">runs super.connectedCallback()</text><polygon fill="#181818" points="212,435.3203,202,439.3203,212,443.3203,208,439.3203" style="stroke:#181818;stroke-width:1.0;"/><line style="stroke:#181818;stroke-width:1.0;" x1="206" x2="503" y1="439.3203" y2="439.3203"/><text fill="#000000" font-family="sans-serif" font-size="13" lengthAdjust="spacing" textLength="148" x="218" y="434.2544">runs addEventListener(</text><text fill="#000000" font-family="sans-serif" font-size="13" font-weight="bold" lengthAdjust="spacing" textLength="126" x="366" y="434.2544">"styles-changed"</text><text fill="#000000" font-family="sans-serif" font-size="13" lengthAdjust="spacing" textLength="5" x="492" y="434.2544">)</text><line style="stroke:#181818;stroke-width:1.0;" x1="504" x2="546" y1="475.4531" y2="475.4531"/><line style="stroke:#181818;stroke-width:1.0;" x1="546" x2="546" y1="475.4531" y2="488.4531"/><line style="stroke:#181818;stroke-width:1.0;" x1="505" x2="546" y1="488.4531" y2="488.4531"/><polygon fill="#181818" points="515,484.4531,505,488.4531,515,492.4531,511,488.4531" style="stroke:#181818;stroke-width:1.0;"/><text fill="#000000" font-family="sans-serif" font-size="13" lengthAdjust="spacing" textLength="138" x="511" y="470.3872">runs requestUpdate()</text><rect fill="#EEEEEE" height="3" style="stroke:#EEEEEE;stroke-width:1.0;" width="1075" x="0" y="524.0195"/><line style="stroke:#000000;stroke-width:1.0;" x1="0" x2="1075" y1="524.0195" y2="524.0195"/><line style="stroke:#000000;stroke-width:1.0;" x1="0" x2="1075" y1="527.0195" y2="527.0195"/><rect fill="#EEEEEE" height="23.1328" style="stroke:#000000;stroke-width:2.0;" width="56" x="509.5" y="513.4531"/><text fill="#000000" font-family="sans-serif" font-size="13" font-weight="bold" lengthAdjust="spacing" textLength="42" x="515.5" y="529.52">async</text><path d="M157,553.5859 L256,553.5859 L256,560.7188 L246,570.7188 L157,570.7188 L157,553.5859 " fill="#EEEEEE" style="stroke:#000000;stroke-width:1.5;"/><rect fill="none" height="304.1953" style="stroke:#000000;stroke-width:1.5;" width="908" x="157" y="553.5859"/><text fill="#000000" font-family="sans-serif" font-size="13" font-weight="bold" lengthAdjust="spacing" textLength="54" x="172" y="566.6528">Update</text><line style="stroke:#181818;stroke-width:1.0;" x1="504" x2="546" y1="591.8516" y2="591.8516"/><line style="stroke:#181818;stroke-width:1.0;" x1="546" x2="546" y1="591.8516" y2="604.8516"/><line style="stroke:#181818;stroke-width:1.0;" x1="505" x2="546" y1="604.8516" y2="604.8516"/><polygon fill="#181818" points="515,600.8516,505,604.8516,515,608.8516,511,604.8516" style="stroke:#181818;stroke-width:1.0;"/><text fill="#000000" font-family="sans-serif" font-size="13" lengthAdjust="spacing" textLength="140" x="511" y="586.7856">runs performUpdate()</text><line style="stroke:#181818;stroke-width:1.0;" x1="504" x2="546" y1="633.9844" y2="633.9844"/><line style="stroke:#181818;stroke-width:1.0;" x1="546" x2="546" y1="633.9844" y2="646.9844"/><line style="stroke:#181818;stroke-width:1.0;" x1="505" x2="546" y1="646.9844" y2="646.9844"/><polygon fill="#181818" points="515,642.9844,505,646.9844,515,650.9844,511,646.9844" style="stroke:#181818;stroke-width:1.0;"/><text fill="#000000" font-family="sans-serif" font-size="13" lengthAdjust="spacing" textLength="131" x="511" y="628.9185">runs shouldUpdate()</text><line style="stroke:#181818;stroke-width:1.0;" x1="504" x2="546" y1="676.1172" y2="676.1172"/><line style="stroke:#181818;stroke-width:1.0;" x1="546" x2="546" y1="676.1172" y2="689.1172"/><line style="stroke:#181818;stroke-width:1.0;" x1="505" x2="546" y1="689.1172" y2="689.1172"/><polygon fill="#181818" points="515,685.1172,505,689.1172,515,693.1172,511,689.1172" style="stroke:#181818;stroke-width:1.0;"/><text fill="#000000" font-family="sans-serif" font-size="13" lengthAdjust="spacing" textLength="107" x="511" y="671.0513">runs willUpdate()</text><line style="stroke:#181818;stroke-width:1.0;" x1="504" x2="546" y1="718.25" y2="718.25"/><line style="stroke:#181818;stroke-width:1.0;" x1="546" x2="546" y1="718.25" y2="731.25"/><line style="stroke:#181818;stroke-width:1.0;" x1="505" x2="546" y1="731.25" y2="731.25"/><polygon fill="#181818" points="515,727.25,505,731.25,515,735.25,511,731.25" style="stroke:#181818;stroke-width:1.0;"/><text fill="#000000" font-family="sans-serif" font-size="13" lengthAdjust="spacing" textLength="87" x="511" y="713.1841">runs update()</text><path d="M411.5,746.25 L505.5,746.25 L505.5,753.3828 L495.5,763.3828 L411.5,763.3828 L411.5,746.25 " fill="#EEEEEE" style="stroke:#000000;stroke-width:1.5;"/><rect fill="none" height="75.3984" style="stroke:#000000;stroke-width:1.5;" width="643.5" x="411.5" y="746.25"/><text fill="#000000" font-family="sans-serif" font-size="13" font-weight="bold" lengthAdjust="spacing" textLength="49" x="426.5" y="759.3169">render</text><polygon fill="#181818" points="944,780.5156,954,784.5156,944,788.5156,948,784.5156" style="stroke:#181818;stroke-width:1.0;"/><line style="stroke:#181818;stroke-width:1.0;" x1="504" x2="950" y1="784.5156" y2="784.5156"/><text fill="#000000" font-family="sans-serif" font-size="13" lengthAdjust="spacing" textLength="84" x="511" y="779.4497">runs render()</text><polygon fill="#181818" points="515,809.6484,505,813.6484,515,817.6484,511,813.6484" style="stroke:#181818;stroke-width:1.0;"/><line style="stroke:#181818;stroke-width:1.0;" x1="509" x2="955" y1="813.6484" y2="813.6484"/><text fill="#000000" font-family="sans-serif" font-size="13" lengthAdjust="spacing" textLength="108" x="521" y="808.5825">returns template</text><polygon fill="#181818" points="212,845.7813,202,849.7813,212,853.7813,208,849.7813" style="stroke:#181818;stroke-width:1.0;"/><line style="stroke:#181818;stroke-width:1.0;" x1="206" x2="503" y1="849.7813" y2="849.7813"/><text fill="#000000" font-family="sans-serif" font-size="13" lengthAdjust="spacing" textLength="134" x="218" y="844.7153">updates shadow tree</text><path d="M401.5,871.7813 L548.5,871.7813 L548.5,878.9141 L538.5,888.9141 L401.5,888.9141 L401.5,871.7813 " fill="#EEEEEE" style="stroke:#000000;stroke-width:1.5;"/><rect fill="none" height="325.4609" style="stroke:#000000;stroke-width:1.5;" width="663.5" x="401.5" y="871.7813"/><text fill="#000000" font-family="sans-serif" font-size="13" font-weight="bold" lengthAdjust="spacing" textLength="102" x="416.5" y="884.8481">Post-Updated</text><path d="M411.5,895.9141 L544.5,895.9141 L544.5,903.0469 L534.5,913.0469 L411.5,913.0469 L411.5,895.9141 " fill="#EEEEEE" style="stroke:#000000;stroke-width:1.5;"/><rect fill="none" height="104.5313" style="stroke:#000000;stroke-width:1.5;" width="643.5" x="411.5" y="895.9141"/><text fill="#000000" font-family="sans-serif" font-size="13" font-weight="bold" lengthAdjust="spacing" textLength="88" x="426.5" y="908.981">fistUpdated</text><polygon fill="#181818" points="944,930.1797,954,934.1797,944,938.1797,948,934.1797" style="stroke:#181818;stroke-width:1.0;"/><line style="stroke:#181818;stroke-width:1.0;" x1="504" x2="950" y1="934.1797" y2="934.1797"/><text fill="#000000" font-family="sans-serif" font-size="13" lengthAdjust="spacing" textLength="148" x="511" y="929.1138">runs this.firstUpdated()</text><polygon fill="#181818" points="741,959.3125,731,963.3125,741,967.3125,737,963.3125" style="stroke:#181818;stroke-width:1.0;"/><line style="stroke:#181818;stroke-width:1.0;" x1="735" x2="955" y1="963.3125" y2="963.3125"/><text fill="#000000" font-family="sans-serif" font-size="13" lengthAdjust="spacing" textLength="161" x="747" y="958.2466">runs super.firstUpdated()</text><polygon fill="#181818" points="515,988.4453,505,992.4453,515,996.4453,511,992.4453" style="stroke:#181818;stroke-width:1.0;"/><line style="stroke:#181818;stroke-width:1.0;" x1="509" x2="729" y1="992.4453" y2="992.4453"/><text fill="#000000" font-family="sans-serif" font-size="13" lengthAdjust="spacing" textLength="161" x="521" y="987.3794">runs super.firstUpdated()</text><path d="M411.5,1014.4453 L519.5,1014.4453 L519.5,1021.5781 L509.5,1031.5781 L411.5,1031.5781 L411.5,1014.4453 " fill="#EEEEEE" style="stroke:#000000;stroke-width:1.5;"/><rect fill="none" height="133.6641" style="stroke:#000000;stroke-width:1.5;" width="643.5" x="411.5" y="1014.4453"/><text fill="#000000" font-family="sans-serif" font-size="13" font-weight="bold" lengthAdjust="spacing" textLength="63" x="426.5" y="1027.5122">updated</text><polygon fill="#181818" points="944,1048.7109,954,1052.7109,944,1056.7109,948,1052.7109" style="stroke:#181818;stroke-width:1.0;"/><line style="stroke:#181818;stroke-width:1.0;" x1="504" x2="950" y1="1052.7109" y2="1052.7109"/><text fill="#000000" font-family="sans-serif" font-size="13" lengthAdjust="spacing" textLength="122" x="511" y="1047.645">runs this.updated()</text><polygon fill="#181818" points="741,1077.8438,731,1081.8438,741,1085.8438,737,1081.8438" style="stroke:#181818;stroke-width:1.0;"/><line style="stroke:#181818;stroke-width:1.0;" x1="735" x2="955" y1="1081.8438" y2="1081.8438"/><text fill="#000000" font-family="sans-serif" font-size="13" lengthAdjust="spacing" textLength="135" x="747" y="1076.7778">runs super.updated()</text><polygon fill="#181818" points="515,1106.9766,505,1110.9766,515,1114.9766,511,1110.9766" style="stroke:#181818;stroke-width:1.0;"/><line style="stroke:#181818;stroke-width:1.0;" x1="509" x2="729" y1="1110.9766" y2="1110.9766"/><text fill="#000000" font-family="sans-serif" font-size="13" lengthAdjust="spacing" textLength="135" x="521" y="1105.9106">runs super.updated()</text><polygon fill="#181818" points="1063,1136.1094,1073,1140.1094,1063,1144.1094,1067,1140.1094" style="stroke:#181818;stroke-width:1.0;"/><line style="stroke:#181818;stroke-width:1.0;" x1="504" x2="1069" y1="1140.1094" y2="1140.1094"/><text fill="#000000" font-family="sans-serif" font-size="13" lengthAdjust="spacing" textLength="69" x="511" y="1135.0435">dispatches</text><text fill="#000000" font-family="sans-serif" font-size="13" font-weight="bold" lengthAdjust="spacing" textLength="77" x="584" y="1135.0435">"updated"</text><text fill="#000000" font-family="sans-serif" font-size="13" lengthAdjust="spacing" textLength="36" x="665" y="1135.0435">event</text><line style="stroke:#181818;stroke-width:1.0;" x1="504" x2="546" y1="1176.2422" y2="1176.2422"/><line style="stroke:#181818;stroke-width:1.0;" x1="546" x2="546" y1="1176.2422" y2="1189.2422"/><line style="stroke:#181818;stroke-width:1.0;" x1="505" x2="546" y1="1189.2422" y2="1189.2422"/><polygon fill="#181818" points="515,1185.2422,505,1189.2422,515,1193.2422,511,1189.2422" style="stroke:#181818;stroke-width:1.0;"/><text fill="#000000" font-family="sans-serif" font-size="13" lengthAdjust="spacing" textLength="164" x="511" y="1171.1763">resolves updateComplete</text><!--MD5=[687015967ee27d0440ee76731fbb3c70]
@startuml cartesian_plane_append
  title <cartesian-plane/> append workflow

  participant Window

  box <cartesian-plane/> #e0e0e0
    participant AbstractChartElement
    participant AbstractPlaneElement
    collections CartesianPlaneElement
  end box

  -> Window: append <cartesian-plane/>
  Window -> CartesianPlaneElement: creates new CartesianPlaneElement()

  group #b3e5fc Pre-Update
    AbstractPlaneElement <- CartesianPlaneElement: runs super()
    AbstractChartElement <- AbstractPlaneElement: runs super()
    Window <- AbstractChartElement: creates a shadow DOM
    Window <- AbstractChartElement: attaches styles to a shadow DOM

    group #039be5 connectedCallback
      AbstractChartElement -> CartesianPlaneElement: runs this.connectedCallback()
      AbstractPlaneElement <- CartesianPlaneElement: runs super.connectedCallback()
      AbstractChartElement <- AbstractPlaneElement: runs super.connectedCallback()
      AbstractChartElement -> Window: runs addEventListener(<b>"styles-changed"</b>)
    end

    AbstractChartElement -> AbstractChartElement: runs requestUpdate()
  end

  ==async==

  group #b3e5fc Update
    AbstractChartElement -> AbstractChartElement: runs performUpdate()
    AbstractChartElement -> AbstractChartElement: runs shouldUpdate()
    AbstractChartElement -> AbstractChartElement: runs willUpdate()
    AbstractChartElement -> AbstractChartElement: runs update()
    
    group #039be5 render
      AbstractChartElement -> CartesianPlaneElement: runs render()
      AbstractChartElement <- CartesianPlaneElement: returns template
    end

    Window <- AbstractChartElement: updates shadow tree
  end

  group #b3e5fc Post-Updated
    group #039be5 fistUpdated
      AbstractChartElement -> CartesianPlaneElement: runs this.firstUpdated()
      AbstractPlaneElement <- CartesianPlaneElement: runs super.firstUpdated()
      AbstractChartElement <- AbstractPlaneElement: runs super.firstUpdated()
    end

    group #039be5 updated
      AbstractChartElement -> CartesianPlaneElement: runs this.updated()
      AbstractPlaneElement <- CartesianPlaneElement: runs super.updated()
      AbstractChartElement <- AbstractPlaneElement: runs super.updated()
      AbstractChartElement -> : dispatches <b>"updated"</b> event
    end

    AbstractChartElement -> AbstractChartElement: resolves updateComplete
  end
@enduml

PlantUML version 1.2022.7(Mon Aug 22 19:01:30 CEST 2022)
(GPL source distribution)
Java Runtime: OpenJDK Runtime Environment
JVM: OpenJDK 64-Bit Server VM
Default Encoding: UTF-8
Language: en
Country: US
--></g></svg>