<?xml version="1.0" encoding="UTF-8" standalone="no"?><svg xmlns="http://www.w3.org/2000/svg" xmlns:xlink="http://www.w3.org/1999/xlink" contentStyleType="text/css" height="412px" preserveAspectRatio="none" style="width:1133px;height:412px;background:#FFFFFF;" version="1.1" viewBox="0 0 1133 412" width="1133px" zoomAndPan="magnify"><defs/><g><rect fill="none" height="26.2969" id="_title" style="stroke:none;stroke-width:1.0;" width="305" x="415.5" y="10"/><text fill="#000000" font-family="sans-serif" font-size="14" font-weight="bold" lengthAdjust="spacing" textLength="295" x="420.5" y="27.9951">&lt;cartesian-plane/&gt; remove workflow</text><rect fill="#E0E0E0" height="362.7891" style="stroke:#181818;stroke-width:0.5;" width="667.5" x="443.5" y="43.2969"/><text fill="#000000" font-family="sans-serif" font-size="13" font-weight="bold" lengthAdjust="spacing" textLength="141" x="704.25" y="55.3638">&lt;cartesian-plane/&gt;</text><rect fill="#B3E5FC" height="206.9297" style="stroke:#000000;stroke-width:1.5;" width="979" x="148" y="143.8594"/><rect fill="#039BE5" height="133.6641" style="stroke:#000000;stroke-width:1.5;" width="959" x="158" y="167.9922"/><line style="stroke:#181818;stroke-width:0.5;stroke-dasharray:5.0,5.0;" x1="202" x2="202" y1="97.7266" y2="367.7891"/><line style="stroke:#181818;stroke-width:0.5;stroke-dasharray:5.0,5.0;" x1="529.5" x2="529.5" y1="97.7266" y2="367.7891"/><line style="stroke:#181818;stroke-width:0.5;stroke-dasharray:5.0,5.0;" x1="774" x2="774" y1="97.7266" y2="367.7891"/><line style="stroke:#181818;stroke-width:0.5;stroke-dasharray:5.0,5.0;" x1="1018" x2="1018" y1="97.7266" y2="367.7891"/><rect fill="#E2E2F0" height="30.2969" rx="2.5" ry="2.5" style="stroke:#181818;stroke-width:0.5;" width="68" x="168" y="66.4297"/><text fill="#000000" font-family="sans-serif" font-size="14" lengthAdjust="spacing" textLength="54" x="175" y="86.4248">Window</text><rect fill="#E2E2F0" height="30.2969" rx="2.5" ry="2.5" style="stroke:#181818;stroke-width:0.5;" width="68" x="168" y="366.7891"/><text fill="#000000" font-family="sans-serif" font-size="14" lengthAdjust="spacing" textLength="54" x="175" y="386.7842">Window</text><rect fill="#E2E2F0" height="30.2969" rx="2.5" ry="2.5" style="stroke:#181818;stroke-width:0.5;" width="165" x="447.5" y="66.4297"/><text fill="#000000" font-family="sans-serif" font-size="14" lengthAdjust="spacing" textLength="151" x="454.5" y="86.4248">AbstractChartElement</text><rect fill="#E2E2F0" height="30.2969" rx="2.5" ry="2.5" style="stroke:#181818;stroke-width:0.5;" width="165" x="447.5" y="366.7891"/><text fill="#000000" font-family="sans-serif" font-size="14" lengthAdjust="spacing" textLength="151" x="454.5" y="386.7842">AbstractChartElement</text><rect fill="#E2E2F0" height="30.2969" rx="2.5" ry="2.5" style="stroke:#181818;stroke-width:0.5;" width="166" x="691" y="66.4297"/><text fill="#000000" font-family="sans-serif" font-size="14" lengthAdjust="spacing" textLength="152" x="698" y="86.4248">AbstractPlaneElement</text><rect fill="#E2E2F0" height="30.2969" rx="2.5" ry="2.5" style="stroke:#181818;stroke-width:0.5;" width="166" x="691" y="366.7891"/><text fill="#000000" font-family="sans-serif" font-size="14" lengthAdjust="spacing" textLength="152" x="698" y="386.7842">AbstractPlaneElement</text><rect fill="#E2E2F0" height="30.2969" style="stroke:#181818;stroke-width:0.5;" width="174" x="933" y="62.4297"/><rect fill="#E2E2F0" height="30.2969" style="stroke:#181818;stroke-width:0.5;" width="174" x="929" y="66.4297"/><text fill="#000000" font-family="sans-serif" font-size="14" lengthAdjust="spacing" textLength="160" x="936" y="86.4248">CartesianPlaneElement</text><rect fill="#E2E2F0" height="30.2969" style="stroke:#181818;stroke-width:0.5;" width="174" x="933" y="366.7891"/><rect fill="#E2E2F0" height="30.2969" style="stroke:#181818;stroke-width:0.5;" width="174" x="929" y="370.7891"/><text fill="#000000" font-family="sans-serif" font-size="14" lengthAdjust="spacing" textLength="160" x="936" y="390.7842">CartesianPlaneElement</text><polygon fill="#181818" points="190,124.8594,200,128.8594,190,132.8594,194,128.8594" style="stroke:#181818;stroke-width:1.0;"/><line style="stroke:#181818;stroke-width:1.0;" x1="0" x2="196" y1="128.8594" y2="128.8594"/><text fill="#000000" font-family="sans-serif" font-size="13" lengthAdjust="spacing" textLength="178" x="7" y="123.7935">remove &lt;cartesian-plane/&gt;</text><path d="M148,143.8594 L277,143.8594 L277,150.9922 L267,160.9922 L148,160.9922 L148,143.8594 " fill="#EEEEEE" style="stroke:#000000;stroke-width:1.5;"/><rect fill="none" height="206.9297" style="stroke:#000000;stroke-width:1.5;" width="979" x="148" y="143.8594"/><text fill="#000000" font-family="sans-serif" font-size="13" font-weight="bold" lengthAdjust="spacing" textLength="84" x="163" y="156.9263">Pre-Update</text><path d="M158,167.9922 L365,167.9922 L365,175.125 L355,185.125 L158,185.125 L158,167.9922 " fill="#EEEEEE" style="stroke:#000000;stroke-width:1.5;"/><rect fill="none" height="133.6641" style="stroke:#000000;stroke-width:1.5;" width="959" x="158" y="167.9922"/><text fill="#000000" font-family="sans-serif" font-size="13" font-weight="bold" lengthAdjust="spacing" textLength="162" x="173" y="181.0591">disconnectedCallback</text><polygon fill="#181818" points="1006,202.2578,1016,206.2578,1006,210.2578,1010,206.2578" style="stroke:#181818;stroke-width:1.0;"/><line style="stroke:#181818;stroke-width:1.0;" x1="530" x2="1012" y1="206.2578" y2="206.2578"/><text fill="#000000" font-family="sans-serif" font-size="13" lengthAdjust="spacing" textLength="207" x="537" y="201.1919">runs this.disconnectedCallback()</text><polygon fill="#181818" points="785,231.3906,775,235.3906,785,239.3906,781,235.3906" style="stroke:#181818;stroke-width:1.0;"/><line style="stroke:#181818;stroke-width:1.0;" x1="779" x2="1017" y1="235.3906" y2="235.3906"/><text fill="#000000" font-family="sans-serif" font-size="13" lengthAdjust="spacing" textLength="220" x="791" y="230.3247">runs super.disconnectedCallback()</text><polygon fill="#181818" points="541,260.5234,531,264.5234,541,268.5234,537,264.5234" style="stroke:#181818;stroke-width:1.0;"/><line style="stroke:#181818;stroke-width:1.0;" x1="535" x2="773" y1="264.5234" y2="264.5234"/><text fill="#000000" font-family="sans-serif" font-size="13" lengthAdjust="spacing" textLength="220" x="547" y="259.4575">runs super.disconnectedCallback()</text><polygon fill="#181818" points="213,289.6563,203,293.6563,213,297.6563,209,293.6563" style="stroke:#181818;stroke-width:1.0;"/><line style="stroke:#181818;stroke-width:1.0;" x1="207" x2="529" y1="293.6563" y2="293.6563"/><text fill="#000000" font-family="sans-serif" font-size="13" lengthAdjust="spacing" textLength="173" x="219" y="288.5903">runs removeEventListener(</text><text fill="#000000" font-family="sans-serif" font-size="13" font-weight="bold" lengthAdjust="spacing" textLength="126" x="392" y="288.5903">"styles-changed"</text><text fill="#000000" font-family="sans-serif" font-size="13" lengthAdjust="spacing" textLength="5" x="518" y="288.5903">)</text><line style="stroke:#181818;stroke-width:1.0;" x1="530" x2="572" y1="329.7891" y2="329.7891"/><line style="stroke:#181818;stroke-width:1.0;" x1="572" x2="572" y1="329.7891" y2="342.7891"/><line style="stroke:#181818;stroke-width:1.0;" x1="531" x2="572" y1="342.7891" y2="342.7891"/><polygon fill="#181818" points="541,338.7891,531,342.7891,541,346.7891,537,342.7891" style="stroke:#181818;stroke-width:1.0;"/><text fill="#000000" font-family="sans-serif" font-size="13" lengthAdjust="spacing" textLength="138" x="537" y="324.7231">runs requestUpdate()</text><!--MD5=[697d5f89620eabdc03ca1511c04fe8fa]
@startuml cartesian_plane_remove
  title <cartesian-plane/> remove workflow

  participant Window

  box <cartesian-plane/> #e0e0e0
    participant AbstractChartElement
    participant AbstractPlaneElement
    collections CartesianPlaneElement
  end box

  -> Window: remove <cartesian-plane/>

  group #b3e5fc Pre-Update

    group #039be5 disconnectedCallback
      AbstractChartElement -> CartesianPlaneElement: runs this.disconnectedCallback()
      AbstractPlaneElement <- CartesianPlaneElement: runs super.disconnectedCallback()
      AbstractChartElement <- AbstractPlaneElement: runs super.disconnectedCallback()
      AbstractChartElement -> Window: runs removeEventListener(<b>"styles-changed"</b>)
    end

    AbstractChartElement -> AbstractChartElement: runs requestUpdate()
  end
@enduml

PlantUML version 1.2022.7(Mon Aug 22 19:01:30 CEST 2022)
(GPL source distribution)
Java Runtime: OpenJDK Runtime Environment
JVM: OpenJDK 64-Bit Server VM
Default Encoding: UTF-8
Language: en
Country: US
--></g></svg>