<?xml version="1.0" encoding="UTF-8" standalone="no"?><svg xmlns="http://www.w3.org/2000/svg" xmlns:xlink="http://www.w3.org/1999/xlink" contentStyleType="text/css" height="663px" preserveAspectRatio="none" style="width:1676px;height:663px;background:#FFFFFF;" version="1.1" viewBox="0 0 1676 663" width="1676px" zoomAndPan="magnify"><defs/><g><rect fill="none" height="26.2969" id="_title" style="stroke:none;stroke-width:1.0;" width="183" x="739.75" y="5"/><text fill="#000000" font-family="sans-serif" font-size="14" font-weight="bold" lengthAdjust="spacing" textLength="173" x="744.75" y="22.9951">AbstractChartElement</text><!--MD5=[c2629c0e7522c4fdd0ee6b9269f21269]
cluster hdml_elements_pkg--><g id="cluster_hdml_elements_pkg"><path d="M8.5,288.7969 L139.5,288.7969 A3.75,3.75 0 0 1 142,291.2969 L149,311.0938 L770.5,311.0938 A2.5,2.5 0 0 1 773,313.5938 L773,580.2969 A2.5,2.5 0 0 1 770.5,582.7969 L8.5,582.7969 A2.5,2.5 0 0 1 6,580.2969 L6,291.2969 A2.5,2.5 0 0 1 8.5,288.7969 " fill="none" style="stroke:#000000;stroke-width:1.5;"/><line style="stroke:#000000;stroke-width:1.5;" x1="6" x2="149" y1="311.0938" y2="311.0938"/><text fill="#000000" font-family="sans-serif" font-size="14" font-weight="bold" lengthAdjust="spacing" textLength="130" x="10" y="303.792">@hdml/elements</text></g><!--MD5=[6316eb990f5110d6cc679acd450eaaf6]
class LitElement--><g id="elem_LitElement"><rect codeLine="4" fill="#F1F1F1" height="243.2656" id="LitElement" rx="2.5" ry="2.5" style="stroke:#181818;stroke-width:0.5;" width="340" x="22" y="323.7969"/><ellipse cx="151.75" cy="339.7969" fill="#ADD1B2" rx="11" ry="11" style="stroke:#181818;stroke-width:1.0;"/><path d="M154.7188,345.4375 Q154.1406,345.7344 153.5,345.875 Q152.8594,346.0313 152.1563,346.0313 Q149.6563,346.0313 148.3281,344.3906 Q147.0156,342.7344 147.0156,339.6094 Q147.0156,336.4844 148.3281,334.8281 Q149.6563,333.1719 152.1563,333.1719 Q152.8594,333.1719 153.5,333.3281 Q154.1563,333.4844 154.7188,333.7813 L154.7188,336.5 Q154.0938,335.9219 153.5,335.6563 Q152.9063,335.375 152.2813,335.375 Q150.9375,335.375 150.25,336.4531 Q149.5625,337.5156 149.5625,339.6094 Q149.5625,341.7031 150.25,342.7813 Q150.9375,343.8438 152.2813,343.8438 Q152.9063,343.8438 153.5,343.5781 Q154.0938,343.2969 154.7188,342.7188 L154.7188,345.4375 Z " fill="#000000"/><text fill="#000000" font-family="sans-serif" font-size="14" lengthAdjust="spacing" textLength="72" x="172.25" y="344.6436">LitElement</text><line style="stroke:#181818;stroke-width:0.5;" x1="23" x2="361" y1="355.7969" y2="355.7969"/><ellipse cx="33" cy="369.4453" fill="none" rx="3" ry="3" style="stroke:#038048;stroke-width:1.0;"/><text fill="#000000" font-family="sans-serif" font-size="14" lengthAdjust="spacing" textLength="233" x="42" y="372.792">updateComplete: Promise&lt;void&gt;</text><line style="stroke:#181818;stroke-width:1.0;stroke-dasharray:1.0,2.0;" x1="23" x2="361" y1="380.0938" y2="380.0938"/><ellipse cx="33" cy="393.7422" fill="#84BE84" rx="3" ry="3" style="stroke:#038048;stroke-width:1.0;"/><text fill="#000000" font-family="sans-serif" font-size="14" lengthAdjust="spacing" textLength="179" x="42" y="397.0889">connectedCallback(): void</text><ellipse cx="33" cy="410.0391" fill="#84BE84" rx="3" ry="3" style="stroke:#038048;stroke-width:1.0;"/><text fill="#000000" font-family="sans-serif" font-size="14" lengthAdjust="spacing" textLength="199" x="42" y="413.3857">disconnectedCallback(): void</text><ellipse cx="33" cy="426.3359" fill="#84BE84" rx="3" ry="3" style="stroke:#038048;stroke-width:1.0;"/><text fill="#000000" font-family="sans-serif" font-size="14" lengthAdjust="spacing" textLength="151" x="42" y="429.6826">requestUpdate(): void</text><line style="stroke:#181818;stroke-width:1.0;stroke-dasharray:1.0,2.0;" x1="23" x2="361" y1="436.9844" y2="436.9844"/><ellipse cx="33" cy="450.6328" fill="#84BE84" rx="3" ry="3" style="stroke:#038048;stroke-width:1.0;"/><text fill="#000000" font-family="sans-serif" font-size="14" lengthAdjust="spacing" textLength="147" x="42" y="453.9795">performUpdate(): any</text><ellipse cx="33" cy="466.9297" fill="#84BE84" rx="3" ry="3" style="stroke:#038048;stroke-width:1.0;"/><text fill="#000000" font-family="sans-serif" font-size="14" lengthAdjust="spacing" textLength="314" x="42" y="470.2764">shouldUpdate(changedProperties: Map): true</text><ellipse cx="33" cy="483.2266" fill="#84BE84" rx="3" ry="3" style="stroke:#038048;stroke-width:1.0;"/><text fill="#000000" font-family="sans-serif" font-size="14" lengthAdjust="spacing" textLength="287" x="42" y="486.5732">willUpdate(changedProperties: Map): void</text><ellipse cx="33" cy="499.5234" fill="#84BE84" rx="3" ry="3" style="stroke:#038048;stroke-width:1.0;"/><text fill="#000000" font-family="sans-serif" font-size="14" lengthAdjust="spacing" textLength="266" x="42" y="502.8701">update(changedProperties: Map): void</text><ellipse cx="33" cy="515.8203" fill="#84BE84" rx="3" ry="3" style="stroke:#038048;stroke-width:1.0;"/><text fill="#000000" font-family="sans-serif" font-size="14" lengthAdjust="spacing" textLength="174" x="42" y="519.167">render(): TemplateResult</text><line style="stroke:#181818;stroke-width:1.0;stroke-dasharray:1.0,2.0;" x1="23" x2="361" y1="526.4688" y2="526.4688"/><ellipse cx="33" cy="540.1172" fill="#84BE84" rx="3" ry="3" style="stroke:#038048;stroke-width:1.0;"/><text fill="#000000" font-family="sans-serif" font-size="14" lengthAdjust="spacing" textLength="301" x="42" y="543.4639">firstUpdated(changedProperties: Map): void</text><ellipse cx="33" cy="556.4141" fill="#84BE84" rx="3" ry="3" style="stroke:#038048;stroke-width:1.0;"/><text fill="#000000" font-family="sans-serif" font-size="14" lengthAdjust="spacing" textLength="275" x="42" y="559.7607">updated(changedProperties: Map): void</text></g><!--MD5=[9c587460f15f5fc853e72759c3ec25a4]
class UnifiedElement--><g id="elem_UnifiedElement"><rect codeLine="21" fill="#F1F1F1" height="96.8906" id="UnifiedElement" rx="2.5" ry="2.5" style="stroke:#181818;stroke-width:0.5;" width="360" x="397" y="396.7969"/><ellipse cx="520.75" cy="412.7969" fill="#ADD1B2" rx="11" ry="11" style="stroke:#181818;stroke-width:1.0;"/><path d="M523.7188,418.4375 Q523.1406,418.7344 522.5,418.875 Q521.8594,419.0313 521.1563,419.0313 Q518.6563,419.0313 517.3281,417.3906 Q516.0156,415.7344 516.0156,412.6094 Q516.0156,409.4844 517.3281,407.8281 Q518.6563,406.1719 521.1563,406.1719 Q521.8594,406.1719 522.5,406.3281 Q523.1563,406.4844 523.7188,406.7813 L523.7188,409.5 Q523.0938,408.9219 522.5,408.6563 Q521.9063,408.375 521.2813,408.375 Q519.9375,408.375 519.25,409.4531 Q518.5625,410.5156 518.5625,412.6094 Q518.5625,414.7031 519.25,415.7813 Q519.9375,416.8438 521.2813,416.8438 Q521.9063,416.8438 522.5,416.5781 Q523.0938,416.2969 523.7188,415.7188 L523.7188,418.4375 Z " fill="#000000"/><text fill="#000000" font-family="sans-serif" font-size="14" lengthAdjust="spacing" textLength="104" x="541.25" y="417.6436">UnifiedElement</text><line style="stroke:#181818;stroke-width:0.5;" x1="398" x2="756" y1="428.7969" y2="428.7969"/><ellipse cx="408" cy="442.4453" fill="#84BE84" rx="3" ry="3" style="stroke:#038048;stroke-width:1.0;"/><text fill="#000000" font-family="sans-serif" font-size="14" lengthAdjust="spacing" textLength="106" x="417" y="445.792">get uid(): string</text><line style="stroke:#181818;stroke-width:1.0;stroke-dasharray:1.0,2.0;" x1="398" x2="756" y1="453.0938" y2="453.0938"/><ellipse cx="408" cy="466.7422" fill="#84BE84" rx="3" ry="3" style="stroke:#038048;stroke-width:1.0;"/><text fill="#000000" font-family="sans-serif" font-size="14" lengthAdjust="spacing" textLength="303" x="417" y="470.0889">verify(component: UnifiedElement): boolean</text><ellipse cx="408" cy="483.0391" fill="#84BE84" rx="3" ry="3" style="stroke:#038048;stroke-width:1.0;"/><text fill="#000000" font-family="sans-serif" font-size="14" lengthAdjust="spacing" textLength="334" x="417" y="486.3857">queryHdmlChildren(tag: string): UnifiedElement[]</text></g><!--MD5=[229218c94b1d7e35f135f1bd84bd9463]
class StyleChangedEvent--><g id="elem_StyleChangedEvent"><rect codeLine="30" fill="#F1F1F1" height="113.1875" id="StyleChangedEvent" rx="2.5" ry="2.5" style="stroke:#181818;stroke-width:0.5;" width="186" x="784" y="44.2969"/><ellipse cx="807.55" cy="60.2969" fill="#ADD1B2" rx="11" ry="11" style="stroke:#181818;stroke-width:1.0;"/><path d="M810.5188,65.9375 Q809.9406,66.2344 809.3,66.375 Q808.6594,66.5313 807.9563,66.5313 Q805.4563,66.5313 804.1281,64.8906 Q802.8156,63.2344 802.8156,60.1094 Q802.8156,56.9844 804.1281,55.3281 Q805.4563,53.6719 807.9563,53.6719 Q808.6594,53.6719 809.3,53.8281 Q809.9563,53.9844 810.5188,54.2813 L810.5188,57 Q809.8938,56.4219 809.3,56.1563 Q808.7063,55.875 808.0813,55.875 Q806.7375,55.875 806.05,56.9531 Q805.3625,58.0156 805.3625,60.1094 Q805.3625,62.2031 806.05,63.2813 Q806.7375,64.3438 808.0813,64.3438 Q808.7063,64.3438 809.3,64.0781 Q809.8938,63.7969 810.5188,63.2188 L810.5188,65.9375 Z " fill="#000000"/><text fill="#000000" font-family="sans-serif" font-size="14" lengthAdjust="spacing" textLength="135" x="823.45" y="65.1436">StyleChangedEvent</text><line style="stroke:#181818;stroke-width:0.5;" x1="785" x2="969" y1="76.2969" y2="76.2969"/><ellipse cx="795" cy="89.9453" fill="none" rx="3" ry="3" style="stroke:#038048;stroke-width:1.0;"/><text fill="#000000" font-family="sans-serif" font-size="14" lengthAdjust="spacing" textLength="35" x="804" y="93.292">type:</text><text fill="#000000" font-family="sans-serif" font-size="14" font-weight="bold" lengthAdjust="spacing" textLength="121" x="843" y="93.292">styles-changed</text><ellipse cx="795" cy="106.2422" fill="none" rx="3" ry="3" style="stroke:#038048;stroke-width:1.0;"/><text fill="#000000" font-family="sans-serif" font-size="14" lengthAdjust="spacing" textLength="115" x="804" y="109.5889">cancelable: false</text><ellipse cx="795" cy="122.5391" fill="none" rx="3" ry="3" style="stroke:#038048;stroke-width:1.0;"/><text fill="#000000" font-family="sans-serif" font-size="14" lengthAdjust="spacing" textLength="115" x="804" y="125.8857">composed: false</text><ellipse cx="795" cy="138.8359" fill="none" rx="3" ry="3" style="stroke:#038048;stroke-width:1.0;"/><text fill="#000000" font-family="sans-serif" font-size="14" lengthAdjust="spacing" textLength="97" x="804" y="142.1826">bubbles: false</text><line style="stroke:#181818;stroke-width:0.5;" x1="785" x2="969" y1="149.4844" y2="149.4844"/></g><!--MD5=[4f376d77b04bbe0e93e92e98bbb64719]
class UpdatedEvent--><g id="elem_UpdatedEvent"><rect codeLine="37" fill="#F1F1F1" height="113.1875" id="UpdatedEvent" rx="2.5" ry="2.5" style="stroke:#181818;stroke-width:0.5;" width="141" x="1005.5" y="44.2969"/><ellipse cx="1025.45" cy="60.2969" fill="#ADD1B2" rx="11" ry="11" style="stroke:#181818;stroke-width:1.0;"/><path d="M1028.4188,65.9375 Q1027.8406,66.2344 1027.2,66.375 Q1026.5594,66.5313 1025.8563,66.5313 Q1023.3563,66.5313 1022.0281,64.8906 Q1020.7156,63.2344 1020.7156,60.1094 Q1020.7156,56.9844 1022.0281,55.3281 Q1023.3563,53.6719 1025.8563,53.6719 Q1026.5594,53.6719 1027.2,53.8281 Q1027.8563,53.9844 1028.4188,54.2813 L1028.4188,57 Q1027.7938,56.4219 1027.2,56.1563 Q1026.6063,55.875 1025.9813,55.875 Q1024.6375,55.875 1023.95,56.9531 Q1023.2625,58.0156 1023.2625,60.1094 Q1023.2625,62.2031 1023.95,63.2813 Q1024.6375,64.3438 1025.9813,64.3438 Q1026.6063,64.3438 1027.2,64.0781 Q1027.7938,63.7969 1028.4188,63.2188 L1028.4188,65.9375 Z " fill="#000000"/><text fill="#000000" font-family="sans-serif" font-size="14" lengthAdjust="spacing" textLength="98" x="1040.55" y="65.1436">UpdatedEvent</text><line style="stroke:#181818;stroke-width:0.5;" x1="1006.5" x2="1145.5" y1="76.2969" y2="76.2969"/><ellipse cx="1016.5" cy="89.9453" fill="none" rx="3" ry="3" style="stroke:#038048;stroke-width:1.0;"/><text fill="#000000" font-family="sans-serif" font-size="14" lengthAdjust="spacing" textLength="35" x="1025.5" y="93.292">type:</text><text fill="#000000" font-family="sans-serif" font-size="14" font-weight="bold" lengthAdjust="spacing" textLength="65" x="1064.5" y="93.292">updated</text><ellipse cx="1016.5" cy="106.2422" fill="none" rx="3" ry="3" style="stroke:#038048;stroke-width:1.0;"/><text fill="#000000" font-family="sans-serif" font-size="14" lengthAdjust="spacing" textLength="115" x="1025.5" y="109.5889">cancelable: false</text><ellipse cx="1016.5" cy="122.5391" fill="none" rx="3" ry="3" style="stroke:#038048;stroke-width:1.0;"/><text fill="#000000" font-family="sans-serif" font-size="14" lengthAdjust="spacing" textLength="115" x="1025.5" y="125.8857">composed: false</text><ellipse cx="1016.5" cy="138.8359" fill="none" rx="3" ry="3" style="stroke:#038048;stroke-width:1.0;"/><text fill="#000000" font-family="sans-serif" font-size="14" lengthAdjust="spacing" textLength="97" x="1025.5" y="142.1826">bubbles: false</text><line style="stroke:#181818;stroke-width:0.5;" x1="1006.5" x2="1145.5" y1="149.4844" y2="149.4844"/></g><!--MD5=[d576a5fe9ad5a4422f129e6d9bfb75db]
class AbstractChartElement--><g id="elem_AbstractChartElement"><rect codeLine="44" fill="#F1F1F1" height="421.9375" id="AbstractChartElement" rx="2.5" ry="2.5" style="stroke:#181818;stroke-width:0.5;" width="368" x="792" y="234.2969"/><ellipse cx="896.25" cy="250.2969" fill="#A9DCDF" rx="11" ry="11" style="stroke:#181818;stroke-width:1.0;"/><path d="M896.3594,245.6406 L895.2031,250.7188 L897.5313,250.7188 L896.3594,245.6406 Z M894.875,243.4063 L897.8594,243.4063 L901.2188,255.7969 L898.7656,255.7969 L898,252.7344 L894.7188,252.7344 L893.9688,255.7969 L891.5313,255.7969 L894.875,243.4063 Z " fill="#000000"/><text fill="#000000" font-family="sans-serif" font-size="14" font-style="italic" lengthAdjust="spacing" textLength="151" x="916.75" y="255.1436">AbstractChartElement</text><line style="stroke:#181818;stroke-width:0.5;" x1="793" x2="1159" y1="266.2969" y2="266.2969"/><rect fill="none" height="6" style="stroke:#C82930;stroke-width:1.0;" width="6" x="800" y="276.9453"/><text fill="#000000" font-family="sans-serif" font-size="14" lengthAdjust="spacing" textLength="207" x="812" y="283.292">_view: null | HdmlViewElement</text><rect fill="none" height="6" style="stroke:#C82930;stroke-width:1.0;" width="6" x="800" y="293.2422"/><text fill="#000000" font-family="sans-serif" font-size="14" lengthAdjust="spacing" textLength="166" x="812" y="299.5889">_ssheet: CSSStyleSheet</text><rect fill="none" height="6" style="stroke:#C82930;stroke-width:1.0;" width="6" x="800" y="309.5391"/><text fill="#000000" font-family="sans-serif" font-size="14" lengthAdjust="spacing" textLength="195" x="812" y="315.8857">_styles: CSSStyleDeclaration</text><rect fill="none" height="6" style="stroke:#C82930;stroke-width:1.0;" width="6" x="800" y="325.8359"/><text fill="#000000" font-family="sans-serif" font-size="14" lengthAdjust="spacing" textLength="158" x="812" y="332.1826">_stored: TrackedStyles</text><line style="stroke:#181818;stroke-width:1.0;stroke-dasharray:1.0,2.0;" x1="793" x2="1159" y1="339.4844" y2="339.4844"/><polygon fill="none" points="803,348.1328,807,352.1328,803,356.1328,799,352.1328" style="stroke:#B38D22;stroke-width:1.0;"/><text fill="#000000" font-family="sans-serif" font-size="14" font-style="italic" lengthAdjust="spacing" textLength="171" x="812" y="356.4795">geometrySelector: string</text><line style="stroke:#181818;stroke-width:1.0;stroke-dasharray:1.0,2.0;" x1="793" x2="1159" y1="363.7813" y2="363.7813"/><ellipse cx="803" cy="377.4297" fill="#84BE84" rx="3" ry="3" style="stroke:#038048;stroke-width:1.0;"/><text fill="#000000" font-family="sans-serif" font-size="14" lengthAdjust="spacing" textLength="237" x="812" y="380.7764">get view(): null | HdmlViewElement</text><ellipse cx="803" cy="393.7266" fill="#84BE84" rx="3" ry="3" style="stroke:#038048;stroke-width:1.0;"/><text fill="#000000" font-family="sans-serif" font-size="14" lengthAdjust="spacing" textLength="225" x="812" y="397.0732">get styles(): CSSStyleDeclaration</text><ellipse cx="803" cy="410.0234" fill="#84BE84" rx="3" ry="3" style="stroke:#038048;stroke-width:1.0;"/><text fill="#000000" font-family="sans-serif" font-size="14" lengthAdjust="spacing" textLength="195" x="812" y="413.3701">get tracked(): TrackedStyles</text><ellipse cx="803" cy="426.3203" fill="#84BE84" rx="3" ry="3" style="stroke:#038048;stroke-width:1.0;"/><text fill="#000000" font-family="sans-serif" font-size="14" lengthAdjust="spacing" textLength="188" x="812" y="429.667">get stored(): TrackedStyles</text><line style="stroke:#181818;stroke-width:1.0;stroke-dasharray:1.0,2.0;" x1="793" x2="1159" y1="436.9688" y2="436.9688"/><ellipse cx="803" cy="450.6172" fill="#84BE84" rx="3" ry="3" style="stroke:#038048;stroke-width:1.0;"/><text fill="#000000" font-family="sans-serif" font-size="14" lengthAdjust="spacing" textLength="179" x="812" y="453.9639">connectedCallback(): void</text><ellipse cx="803" cy="466.9141" fill="#84BE84" rx="3" ry="3" style="stroke:#038048;stroke-width:1.0;"/><text fill="#000000" font-family="sans-serif" font-size="14" lengthAdjust="spacing" textLength="199" x="812" y="470.2607">disconnectedCallback(): void</text><line style="stroke:#181818;stroke-width:1.0;stroke-dasharray:1.0,2.0;" x1="793" x2="1159" y1="477.5625" y2="477.5625"/><ellipse cx="803" cy="491.2109" fill="#84BE84" rx="3" ry="3" style="stroke:#038048;stroke-width:1.0;"/><text fill="#000000" font-family="sans-serif" font-size="14" lengthAdjust="spacing" textLength="342" x="812" y="494.5576">shouldUpdate(changedProperties: Map): boolean</text><line style="stroke:#181818;stroke-width:1.0;stroke-dasharray:1.0,2.0;" x1="793" x2="1159" y1="501.8594" y2="501.8594"/><ellipse cx="803" cy="515.5078" fill="#84BE84" rx="3" ry="3" style="stroke:#038048;stroke-width:1.0;"/><text fill="#000000" font-family="sans-serif" font-size="14" lengthAdjust="spacing" textLength="301" x="812" y="518.8545">firstUpdated(changedProperties: Map): void</text><ellipse cx="803" cy="531.8047" fill="#84BE84" rx="3" ry="3" style="stroke:#038048;stroke-width:1.0;"/><text fill="#000000" font-family="sans-serif" font-size="14" lengthAdjust="spacing" textLength="275" x="812" y="535.1514">updated(changedProperties: Map): void</text><line style="stroke:#181818;stroke-width:1.0;stroke-dasharray:1.0,2.0;" x1="793" x2="1159" y1="542.4531" y2="542.4531"/><polygon fill="#FFFF44" points="803,551.1016,807,555.1016,803,559.1016,799,555.1016" style="stroke:#B38D22;stroke-width:1.0;"/><text fill="#000000" font-family="sans-serif" font-size="14" lengthAdjust="spacing" textLength="333" x="812" y="559.4482">resetStylesheets(sheets: CSSStyleSheet[]): void</text><polygon fill="#FFFF44" points="803,567.3984,807,571.3984,803,575.3984,799,571.3984" style="stroke:#B38D22;stroke-width:1.0;"/><text fill="#000000" font-family="sans-serif" font-size="14" lengthAdjust="spacing" textLength="137" x="812" y="575.7451">updateStyles(): void</text><polygon fill="#FFFF44" points="803,583.6953,807,587.6953,803,591.6953,799,587.6953" style="stroke:#B38D22;stroke-width:1.0;"/><text fill="#000000" font-family="sans-serif" font-size="14" font-style="italic" lengthAdjust="spacing" textLength="161" x="812" y="592.042">renderGeometry(): void</text><polygon fill="#FFFF44" points="803,599.9922,807,603.9922,803,607.9922,799,603.9922" style="stroke:#B38D22;stroke-width:1.0;"/><text fill="#000000" font-family="sans-serif" font-size="14" font-style="italic" lengthAdjust="spacing" textLength="164" x="812" y="608.3389">updateGeometry(): void</text><line style="stroke:#181818;stroke-width:1.0;stroke-dasharray:1.0,2.0;" x1="793" x2="1159" y1="615.6406" y2="615.6406"/><rect fill="#F24D5C" height="6" style="stroke:#C82930;stroke-width:1.0;" width="6" x="800" y="626.2891"/><text fill="#000000" font-family="sans-serif" font-size="14" lengthAdjust="spacing" textLength="205" x="812" y="632.6357">stylesChangedListener(): void</text><rect fill="#F24D5C" height="6" style="stroke:#C82930;stroke-width:1.0;" width="6" x="800" y="642.5859"/><text fill="#000000" font-family="sans-serif" font-size="14" lengthAdjust="spacing" textLength="193" x="812" y="648.9326">getStaticStyles(): CSSResult</text></g><!--MD5=[91073faa76cbbf752cd6ab6dc4ac57e4]
class HdmlViewElement--><g id="elem_HdmlViewElement"><rect codeLine="77" fill="#F1F1F1" height="291.5625" id="HdmlViewElement" rx="2.5" ry="2.5" style="stroke:#181818;stroke-width:0.5;" width="381" x="1288.5" y="299.2969"/><ellipse cx="1412.75" cy="315.2969" fill="#ADD1B2" rx="11" ry="11" style="stroke:#181818;stroke-width:1.0;"/><path d="M1415.7188,320.9375 Q1415.1406,321.2344 1414.5,321.375 Q1413.8594,321.5313 1413.1563,321.5313 Q1410.6563,321.5313 1409.3281,319.8906 Q1408.0156,318.2344 1408.0156,315.1094 Q1408.0156,311.9844 1409.3281,310.3281 Q1410.6563,308.6719 1413.1563,308.6719 Q1413.8594,308.6719 1414.5,308.8281 Q1415.1563,308.9844 1415.7188,309.2813 L1415.7188,312 Q1415.0938,311.4219 1414.5,311.1563 Q1413.9063,310.875 1413.2813,310.875 Q1411.9375,310.875 1411.25,311.9531 Q1410.5625,313.0156 1410.5625,315.1094 Q1410.5625,317.2031 1411.25,318.2813 Q1411.9375,319.3438 1413.2813,319.3438 Q1413.9063,319.3438 1414.5,319.0781 Q1415.0938,318.7969 1415.7188,318.2188 L1415.7188,320.9375 Z " fill="#000000"/><text fill="#000000" font-family="sans-serif" font-size="14" lengthAdjust="spacing" textLength="124" x="1433.25" y="320.1436">HdmlViewElement</text><line style="stroke:#181818;stroke-width:0.5;" x1="1289.5" x2="1668.5" y1="331.2969" y2="331.2969"/><ellipse cx="1299.5" cy="344.9453" fill="none" rx="3" ry="3" style="stroke:#038048;stroke-width:1.0;"/><text fill="#000000" font-family="sans-serif" font-size="14" lengthAdjust="spacing" text-decoration="underline" textLength="121" x="1308.5" y="348.292">styles: CSSResult</text><line style="stroke:#181818;stroke-width:1.0;stroke-dasharray:1.0,2.0;" x1="1289.5" x2="1668.5" y1="355.5938" y2="355.5938"/><rect fill="none" height="6" style="stroke:#C82930;stroke-width:1.0;" width="6" x="1296.5" y="366.2422"/><text fill="#000000" font-family="sans-serif" font-size="14" lengthAdjust="spacing" textLength="280" x="1308.5" y="372.5889">_svg: null | Selection&lt;SVGSVGElement&gt;</text><rect fill="none" height="6" style="stroke:#C82930;stroke-width:1.0;" width="6" x="1296.5" y="382.5391"/><text fill="#000000" font-family="sans-serif" font-size="14" lengthAdjust="spacing" textLength="245" x="1308.5" y="388.8857">_stylesheets: Set&lt;CSSStyleSheet&gt;</text><line style="stroke:#181818;stroke-width:1.0;stroke-dasharray:1.0,2.0;" x1="1289.5" x2="1668.5" y1="396.1875" y2="396.1875"/><polygon fill="none" points="1299.5,404.8359,1303.5,408.8359,1299.5,412.8359,1295.5,408.8359" style="stroke:#B38D22;stroke-width:1.0;"/><text fill="#000000" font-family="sans-serif" font-size="14" lengthAdjust="spacing" textLength="171" x="1308.5" y="413.1826">geometrySelector: string</text><line style="stroke:#181818;stroke-width:1.0;stroke-dasharray:1.0,2.0;" x1="1289.5" x2="1668.5" y1="420.4844" y2="420.4844"/><ellipse cx="1299.5" cy="434.1328" fill="#84BE84" rx="3" ry="3" style="stroke:#038048;stroke-width:1.0;"/><text fill="#000000" font-family="sans-serif" font-size="14" lengthAdjust="spacing" textLength="310" x="1308.5" y="437.4795">get svg(): null | Selection&lt;SVGSVGElement&gt;</text><line style="stroke:#181818;stroke-width:1.0;stroke-dasharray:1.0,2.0;" x1="1289.5" x2="1668.5" y1="444.7813" y2="444.7813"/><ellipse cx="1299.5" cy="458.4297" fill="#84BE84" rx="3" ry="3" style="stroke:#038048;stroke-width:1.0;"/><text fill="#000000" font-family="sans-serif" font-size="14" lengthAdjust="spacing" textLength="174" x="1308.5" y="461.7764">render(): TemplateResult</text><line style="stroke:#181818;stroke-width:1.0;stroke-dasharray:1.0,2.0;" x1="1289.5" x2="1668.5" y1="469.0781" y2="469.0781"/><ellipse cx="1299.5" cy="482.7266" fill="#84BE84" rx="3" ry="3" style="stroke:#038048;stroke-width:1.0;"/><text fill="#000000" font-family="sans-serif" font-size="14" lengthAdjust="spacing" textLength="301" x="1308.5" y="486.0732">firstUpdated(changedProperties: Map): void</text><ellipse cx="1299.5" cy="499.0234" fill="#84BE84" rx="3" ry="3" style="stroke:#038048;stroke-width:1.0;"/><text fill="#000000" font-family="sans-serif" font-size="14" lengthAdjust="spacing" textLength="275" x="1308.5" y="502.3701">updated(changedProperties: Map): void</text><line style="stroke:#181818;stroke-width:1.0;stroke-dasharray:1.0,2.0;" x1="1289.5" x2="1668.5" y1="509.6719" y2="509.6719"/><polygon fill="#FFFF44" points="1299.5,518.3203,1303.5,522.3203,1299.5,526.3203,1295.5,522.3203" style="stroke:#B38D22;stroke-width:1.0;"/><text fill="#000000" font-family="sans-serif" font-size="14" lengthAdjust="spacing" textLength="161" x="1308.5" y="526.667">renderGeometry(): void</text><polygon fill="#FFFF44" points="1299.5,534.6172,1303.5,538.6172,1299.5,542.6172,1295.5,538.6172" style="stroke:#B38D22;stroke-width:1.0;"/><text fill="#000000" font-family="sans-serif" font-size="14" lengthAdjust="spacing" textLength="164" x="1308.5" y="542.9639">updateGeometry(): void</text><line style="stroke:#181818;stroke-width:1.0;stroke-dasharray:1.0,2.0;" x1="1289.5" x2="1668.5" y1="550.2656" y2="550.2656"/><ellipse cx="1299.5" cy="563.9141" fill="#84BE84" rx="3" ry="3" style="stroke:#038048;stroke-width:1.0;"/><text fill="#000000" font-family="sans-serif" font-size="14" lengthAdjust="spacing" textLength="329" x="1308.5" y="567.2607">addStylesheet(stylesheet: CSSStyleSheet): void</text><ellipse cx="1299.5" cy="580.2109" fill="#84BE84" rx="3" ry="3" style="stroke:#038048;stroke-width:1.0;"/><text fill="#000000" font-family="sans-serif" font-size="14" lengthAdjust="spacing" textLength="355" x="1308.5" y="583.5576">removeStylesheet(stylesheet: CSSStyleSheet): void</text></g><!--MD5=[1f8840acb7b03cd75d83174263f3df93]
reverse link LitElement to UnifiedElement--><g id="link_LitElement_UnifiedElement"><path codeLine="27" d="M382.46,445.2969 C387.21,445.2969 391.95,445.2969 396.7,445.2969 " fill="none" id="LitElement-backto-UnifiedElement" style="stroke:#181818;stroke-width:1.0;"/><polygon fill="none" points="382.32,452.2969,362.32,445.2969,382.32,438.2969,382.32,452.2969" style="stroke:#181818;stroke-width:1.0;"/></g><!--MD5=[23cf48b7ec67da3a92458740c5b95bf8]
reverse link UnifiedElement to AbstractChartElement--><g id="link_UnifiedElement_AbstractChartElement"><path codeLine="73" d="M777.05,445.2969 C781.92,445.2969 786.79,445.2969 791.66,445.2969 " fill="none" id="UnifiedElement-backto-AbstractChartElement" style="stroke:#181818;stroke-width:1.0;"/><polygon fill="none" points="777.02,452.2969,757.02,445.2969,777.02,438.2969,777.02,452.2969" style="stroke:#181818;stroke-width:1.0;"/></g><!--MD5=[f150775826f130896b4fdbfacb6df8e4]
link StyleChangedEvent to AbstractChartElement--><g id="link_StyleChangedEvent_AbstractChartElement"><path codeLine="74" d="M893.13,157.5869 C899.08,178.1969 906.25,202.9869 913.84,229.2469 " fill="none" id="StyleChangedEvent-to-AbstractChartElement" style="stroke:#181818;stroke-width:1.0;"/><polygon fill="#181818" points="915.26,234.1669,916.6068,224.4105,913.8732,229.3631,908.9207,226.6294,915.26,234.1669" style="stroke:#181818;stroke-width:1.0;"/><text fill="#000000" font-family="sans-serif" font-size="13" lengthAdjust="spacing" textLength="55" x="908" y="200.3638">listen for</text></g><!--MD5=[d04b540c8dcd6bdbad64d1336b8aedb0]
reverse link UpdatedEvent to AbstractChartElement--><g id="link_UpdatedEvent_AbstractChartElement"><path codeLine="75" d="M1058.27,162.5369 C1052.16,183.4369 1044.94,208.1669 1037.35,234.1669 " fill="none" id="UpdatedEvent-backto-AbstractChartElement" style="stroke:#181818;stroke-width:1.0;"/><polygon fill="#181818" points="1059.71,157.5869,1053.35,165.1069,1058.31,162.3869,1061.03,167.3469,1059.71,157.5869" style="stroke:#181818;stroke-width:1.0;"/><text fill="#000000" font-family="sans-serif" font-size="13" lengthAdjust="spacing" textLength="69" x="1051" y="200.3638">dispatches</text></g><!--MD5=[fa668c4a658f66cbc119430718e8c789]
reverse link AbstractChartElement to HdmlViewElement--><g id="link_AbstractChartElement_HdmlViewElement"><path codeLine="98" d="M1180.36,448.1269 C1187.95,448.1869 1195.46,448.2469 1202.83,448.2969 C1230.52,448.4769 1259.77,448.4269 1288.47,448.2369 " fill="none" id="AbstractChartElement-backto-HdmlViewElement" style="stroke:#181818;stroke-width:1.0;"/><polygon fill="none" points="1180.08,455.1269,1160.15,447.9369,1180.21,441.1269,1180.08,455.1269" style="stroke:#181818;stroke-width:1.0;"/></g><!--MD5=[5608cf804dee8598ad14db0bf18c9a37]
link AbstractChartElement to HdmlViewElement--><g id="link_AbstractChartElement_HdmlViewElement"><path codeLine="99" d="M1160.09,445.2969 C1200.09,445.2969 1242.54,445.2969 1282.99,445.2969 " fill="none" id="AbstractChartElement-to-HdmlViewElement" style="stroke:#181818;stroke-width:1.0;"/><polygon fill="#181818" points="1288.42,445.2969,1279.42,441.2969,1283.42,445.2969,1279.42,449.2969,1288.42,445.2969" style="stroke:#181818;stroke-width:1.0;"/><text fill="#000000" font-family="sans-serif" font-size="13" lengthAdjust="spacing" textLength="91" x="1178.75" y="408.3638">has an access</text><text fill="#000000" font-family="sans-serif" font-size="13" lengthAdjust="spacing" textLength="92" x="1178.25" y="423.4966">to through the</text><text fill="#000000" font-family="sans-serif" font-size="13" lengthAdjust="spacing" textLength="70" x="1189.25" y="438.6294">view getter</text></g><!--MD5=[9600d1b90e2bb9270ae9f97ad84aaca4]
@startuml classes
  title AbstractChartElement

  package "@hdml/elements" as hdml_elements_pkg {
    class LitElement {
      +updateComplete: Promise<void>
      ....
      +connectedCallback(): void
      +disconnectedCallback(): void
      +requestUpdate(): void
      ....
      +performUpdate(): any
      +shouldUpdate(changedProperties: Map): true
      +willUpdate(changedProperties: Map): void
      +update(changedProperties: Map): void
      +render(): TemplateResult
      ....
      +firstUpdated(changedProperties: Map): void
      +updated(changedProperties: Map): void
    }

    class UnifiedElement {
      +get uid(): string
      ....
      +verify(component: UnifiedElement): boolean
      +queryHdmlChildren(tag: string): UnifiedElement[]
    }
    LitElement <|- UnifiedElement
  }

  class StyleChangedEvent {
    +type: <b>styles-changed</b>
    +cancelable: false
    +composed: false
    +bubbles: false
  }

  class UpdatedEvent {
    +type: <b>updated</b>
    +cancelable: false
    +composed: false
    +bubbles: false
  }

  abstract class AbstractChartElement {
    -_view: null | HdmlViewElement
    -_ssheet: CSSStyleSheet
    -_styles: CSSStyleDeclaration
    -_stored: TrackedStyles
    ....
    #{abstract} geometrySelector: string
    ....
    +get view(): null | HdmlViewElement
    +get styles(): CSSStyleDeclaration
    +get tracked(): TrackedStyles
    +get stored(): TrackedStyles
    ....
    +connectedCallback(): void
    +disconnectedCallback(): void
    ....
    +shouldUpdate(changedProperties: Map): boolean
    ....
    +firstUpdated(changedProperties: Map): void
    +updated(changedProperties: Map): void
    ....
    #resetStylesheets(sheets: CSSStyleSheet[]): void
    #updateStyles(): void
    #{abstract} renderGeometry(): void
    #{abstract} updateGeometry(): void
    ....
    -stylesChangedListener(): void
    -getStaticStyles(): CSSResult
  }
  UnifiedElement <|- AbstractChartElement
  StyleChangedEvent - -> AbstractChartElement: listen for
  UpdatedEvent <- - AbstractChartElement: dispatches

  class HdmlViewElement {
    +{static} styles: CSSResult
    ....
    -_svg: null | Selection<SVGSVGElement>
    -_stylesheets: Set<CSSStyleSheet>
    ....
    #geometrySelector: string
    ....
    +get svg(): null | Selection<SVGSVGElement>
    ....
    +render(): TemplateResult
    ....
    +firstUpdated(changedProperties: Map): void
    +updated(changedProperties: Map): void
    ....
    #renderGeometry(): void
    #updateGeometry(): void
    ....
    +addStylesheet(stylesheet: CSSStyleSheet): void
    +removeStylesheet(stylesheet: CSSStyleSheet): void
  }
  AbstractChartElement <|- HdmlViewElement
  AbstractChartElement -> HdmlViewElement: has an access\nto through the\nview getter
@enduml

PlantUML version 1.2022.7(Mon Aug 22 19:01:30 CEST 2022)
(GPL source distribution)
Java Runtime: OpenJDK Runtime Environment
JVM: OpenJDK 64-Bit Server VM
Default Encoding: UTF-8
Language: en
Country: US
--></g></svg>