<?xml version="1.0" encoding="UTF-8" standalone="no"?><svg xmlns="http://www.w3.org/2000/svg" xmlns:xlink="http://www.w3.org/1999/xlink" contentStyleType="text/css" height="1200px" preserveAspectRatio="none" style="width:803px;height:1200px;background:#FFFFFF;" version="1.1" viewBox="0 0 803 1200" width="803px" zoomAndPan="magnify"><defs/><g><rect fill="none" height="26.2969" id="_title" style="stroke:none;stroke-width:1.0;" width="263" x="266" y="10"/><text fill="#000000" font-family="sans-serif" font-size="14" font-weight="bold" lengthAdjust="spacing" textLength="253" x="271" y="27.9951">&lt;hdml-view/&gt; append workflow</text><rect fill="#E0E0E0" height="1150.9766" style="stroke:#181818;stroke-width:0.5;" width="387.5" x="382.5" y="43.2969"/><text fill="#000000" font-family="sans-serif" font-size="13" font-weight="bold" lengthAdjust="spacing" textLength="102" x="522.75" y="55.3638">&lt;hdml-view/&gt;</text><rect fill="#B3E5FC" height="265.1953" style="stroke:#000000;stroke-width:1.5;" width="674" x="112" y="172.9922"/><rect fill="#039BE5" height="104.5313" style="stroke:#000000;stroke-width:1.5;" width="654" x="122" y="284.5234"/><rect fill="#B3E5FC" height="304.1953" style="stroke:#000000;stroke-width:1.5;" width="664" x="122" y="495.3203"/><rect fill="#039BE5" height="75.3984" style="stroke:#000000;stroke-width:1.5;" width="399.5" x="376.5" y="687.9844"/><rect fill="#B3E5FC" height="325.4609" style="stroke:#000000;stroke-width:1.5;" width="674" x="112" y="813.5156"/><rect fill="#039BE5" height="104.5313" style="stroke:#000000;stroke-width:1.5;" width="654" x="122" y="837.6484"/><rect fill="#039BE5" height="133.6641" style="stroke:#000000;stroke-width:1.5;" width="654" x="122" y="956.1797"/><line style="stroke:#181818;stroke-width:0.5;stroke-dasharray:5.0,5.0;" x1="166" x2="166" y1="97.7266" y2="1155.9766"/><line style="stroke:#181818;stroke-width:0.5;stroke-dasharray:5.0,5.0;" x1="468.5" x2="468.5" y1="97.7266" y2="1155.9766"/><line style="stroke:#181818;stroke-width:0.5;stroke-dasharray:5.0,5.0;" x1="695" x2="695" y1="97.7266" y2="1155.9766"/><rect fill="#E2E2F0" height="30.2969" rx="2.5" ry="2.5" style="stroke:#181818;stroke-width:0.5;" width="68" x="132" y="66.4297"/><text fill="#000000" font-family="sans-serif" font-size="14" lengthAdjust="spacing" textLength="54" x="139" y="86.4248">Window</text><rect fill="#E2E2F0" height="30.2969" rx="2.5" ry="2.5" style="stroke:#181818;stroke-width:0.5;" width="68" x="132" y="1154.9766"/><text fill="#000000" font-family="sans-serif" font-size="14" lengthAdjust="spacing" textLength="54" x="139" y="1174.9717">Window</text><rect fill="#E2E2F0" height="30.2969" rx="2.5" ry="2.5" style="stroke:#181818;stroke-width:0.5;" width="165" x="386.5" y="66.4297"/><text fill="#000000" font-family="sans-serif" font-size="14" lengthAdjust="spacing" textLength="151" x="393.5" y="86.4248">AbstractChartElement</text><rect fill="#E2E2F0" height="30.2969" rx="2.5" ry="2.5" style="stroke:#181818;stroke-width:0.5;" width="165" x="386.5" y="1154.9766"/><text fill="#000000" font-family="sans-serif" font-size="14" lengthAdjust="spacing" textLength="151" x="393.5" y="1174.9717">AbstractChartElement</text><rect fill="#E2E2F0" height="30.2969" style="stroke:#181818;stroke-width:0.5;" width="138" x="628" y="62.4297"/><rect fill="#E2E2F0" height="30.2969" style="stroke:#181818;stroke-width:0.5;" width="138" x="624" y="66.4297"/><text fill="#000000" font-family="sans-serif" font-size="14" lengthAdjust="spacing" textLength="124" x="631" y="86.4248">HdmlViewElement</text><rect fill="#E2E2F0" height="30.2969" style="stroke:#181818;stroke-width:0.5;" width="138" x="628" y="1154.9766"/><rect fill="#E2E2F0" height="30.2969" style="stroke:#181818;stroke-width:0.5;" width="138" x="624" y="1158.9766"/><text fill="#000000" font-family="sans-serif" font-size="14" lengthAdjust="spacing" textLength="124" x="631" y="1178.9717">HdmlViewElement</text><polygon fill="#181818" points="154,124.8594,164,128.8594,154,132.8594,158,128.8594" style="stroke:#181818;stroke-width:1.0;"/><line style="stroke:#181818;stroke-width:1.0;" x1="0" x2="160" y1="128.8594" y2="128.8594"/><text fill="#000000" font-family="sans-serif" font-size="13" lengthAdjust="spacing" textLength="142" x="7" y="123.7935">append &lt;hdml-view/&gt;</text><polygon fill="#181818" points="683,153.9922,693,157.9922,683,161.9922,687,157.9922" style="stroke:#181818;stroke-width:1.0;"/><line style="stroke:#181818;stroke-width:1.0;" x1="166" x2="689" y1="157.9922" y2="157.9922"/><text fill="#000000" font-family="sans-serif" font-size="13" lengthAdjust="spacing" textLength="207" x="173" y="152.9263">creates new HdmlViewElement()</text><path d="M112,172.9922 L241,172.9922 L241,180.125 L231,190.125 L112,190.125 L112,172.9922 " fill="#EEEEEE" style="stroke:#000000;stroke-width:1.5;"/><rect fill="none" height="265.1953" style="stroke:#000000;stroke-width:1.5;" width="674" x="112" y="172.9922"/><text fill="#000000" font-family="sans-serif" font-size="13" font-weight="bold" lengthAdjust="spacing" textLength="84" x="127" y="186.0591">Pre-Update</text><polygon fill="#181818" points="480,207.2578,470,211.2578,480,215.2578,476,211.2578" style="stroke:#181818;stroke-width:1.0;"/><line style="stroke:#181818;stroke-width:1.0;" x1="474" x2="694" y1="211.2578" y2="211.2578"/><text fill="#000000" font-family="sans-serif" font-size="13" lengthAdjust="spacing" textLength="78" x="486" y="206.1919">runs super()</text><polygon fill="#181818" points="177,236.3906,167,240.3906,177,244.3906,173,240.3906" style="stroke:#181818;stroke-width:1.0;"/><line style="stroke:#181818;stroke-width:1.0;" x1="171" x2="468" y1="240.3906" y2="240.3906"/><text fill="#000000" font-family="sans-serif" font-size="13" lengthAdjust="spacing" textLength="147" x="183" y="235.3247">creates a shadow DOM</text><polygon fill="#181818" points="177,265.5234,167,269.5234,177,273.5234,173,269.5234" style="stroke:#181818;stroke-width:1.0;"/><line style="stroke:#181818;stroke-width:1.0;" x1="171" x2="468" y1="269.5234" y2="269.5234"/><text fill="#000000" font-family="sans-serif" font-size="13" lengthAdjust="spacing" textLength="213" x="183" y="264.4575">attaches styles to a shadow DOM</text><path d="M122,284.5234 L307,284.5234 L307,291.6563 L297,301.6563 L122,301.6563 L122,284.5234 " fill="#EEEEEE" style="stroke:#000000;stroke-width:1.5;"/><rect fill="none" height="104.5313" style="stroke:#000000;stroke-width:1.5;" width="654" x="122" y="284.5234"/><text fill="#000000" font-family="sans-serif" font-size="13" font-weight="bold" lengthAdjust="spacing" textLength="140" x="137" y="297.5903">connectedCallback</text><polygon fill="#181818" points="683,318.7891,693,322.7891,683,326.7891,687,322.7891" style="stroke:#181818;stroke-width:1.0;"/><line style="stroke:#181818;stroke-width:1.0;" x1="469" x2="689" y1="322.7891" y2="322.7891"/><text fill="#000000" font-family="sans-serif" font-size="13" lengthAdjust="spacing" textLength="189" x="476" y="317.7231">runs this.connectedCallback()</text><polygon fill="#181818" points="480,347.9219,470,351.9219,480,355.9219,476,351.9219" style="stroke:#181818;stroke-width:1.0;"/><line style="stroke:#181818;stroke-width:1.0;" x1="474" x2="694" y1="351.9219" y2="351.9219"/><text fill="#000000" font-family="sans-serif" font-size="13" lengthAdjust="spacing" textLength="202" x="486" y="346.856">runs super.connectedCallback()</text><polygon fill="#181818" points="177,377.0547,167,381.0547,177,385.0547,173,381.0547" style="stroke:#181818;stroke-width:1.0;"/><line style="stroke:#181818;stroke-width:1.0;" x1="171" x2="468" y1="381.0547" y2="381.0547"/><text fill="#000000" font-family="sans-serif" font-size="13" lengthAdjust="spacing" textLength="148" x="183" y="375.9888">runs addEventListener(</text><text fill="#000000" font-family="sans-serif" font-size="13" font-weight="bold" lengthAdjust="spacing" textLength="126" x="331" y="375.9888">"styles-changed"</text><text fill="#000000" font-family="sans-serif" font-size="13" lengthAdjust="spacing" textLength="5" x="457" y="375.9888">)</text><line style="stroke:#181818;stroke-width:1.0;" x1="469" x2="511" y1="417.1875" y2="417.1875"/><line style="stroke:#181818;stroke-width:1.0;" x1="511" x2="511" y1="417.1875" y2="430.1875"/><line style="stroke:#181818;stroke-width:1.0;" x1="470" x2="511" y1="430.1875" y2="430.1875"/><polygon fill="#181818" points="480,426.1875,470,430.1875,480,434.1875,476,430.1875" style="stroke:#181818;stroke-width:1.0;"/><text fill="#000000" font-family="sans-serif" font-size="13" lengthAdjust="spacing" textLength="138" x="476" y="412.1216">runs requestUpdate()</text><rect fill="#EEEEEE" height="3" style="stroke:#EEEEEE;stroke-width:1.0;" width="796" x="0" y="465.7539"/><line style="stroke:#000000;stroke-width:1.0;" x1="0" x2="796" y1="465.7539" y2="465.7539"/><line style="stroke:#000000;stroke-width:1.0;" x1="0" x2="796" y1="468.7539" y2="468.7539"/><rect fill="#EEEEEE" height="23.1328" style="stroke:#000000;stroke-width:2.0;" width="56" x="370" y="455.1875"/><text fill="#000000" font-family="sans-serif" font-size="13" font-weight="bold" lengthAdjust="spacing" textLength="42" x="376" y="471.2544">async</text><path d="M122,495.3203 L221,495.3203 L221,502.4531 L211,512.4531 L122,512.4531 L122,495.3203 " fill="#EEEEEE" style="stroke:#000000;stroke-width:1.5;"/><rect fill="none" height="304.1953" style="stroke:#000000;stroke-width:1.5;" width="664" x="122" y="495.3203"/><text fill="#000000" font-family="sans-serif" font-size="13" font-weight="bold" lengthAdjust="spacing" textLength="54" x="137" y="508.3872">Update</text><line style="stroke:#181818;stroke-width:1.0;" x1="469" x2="511" y1="533.5859" y2="533.5859"/><line style="stroke:#181818;stroke-width:1.0;" x1="511" x2="511" y1="533.5859" y2="546.5859"/><line style="stroke:#181818;stroke-width:1.0;" x1="470" x2="511" y1="546.5859" y2="546.5859"/><polygon fill="#181818" points="480,542.5859,470,546.5859,480,550.5859,476,546.5859" style="stroke:#181818;stroke-width:1.0;"/><text fill="#000000" font-family="sans-serif" font-size="13" lengthAdjust="spacing" textLength="140" x="476" y="528.52">runs performUpdate()</text><line style="stroke:#181818;stroke-width:1.0;" x1="469" x2="511" y1="575.7188" y2="575.7188"/><line style="stroke:#181818;stroke-width:1.0;" x1="511" x2="511" y1="575.7188" y2="588.7188"/><line style="stroke:#181818;stroke-width:1.0;" x1="470" x2="511" y1="588.7188" y2="588.7188"/><polygon fill="#181818" points="480,584.7188,470,588.7188,480,592.7188,476,588.7188" style="stroke:#181818;stroke-width:1.0;"/><text fill="#000000" font-family="sans-serif" font-size="13" lengthAdjust="spacing" textLength="131" x="476" y="570.6528">runs shouldUpdate()</text><line style="stroke:#181818;stroke-width:1.0;" x1="469" x2="511" y1="617.8516" y2="617.8516"/><line style="stroke:#181818;stroke-width:1.0;" x1="511" x2="511" y1="617.8516" y2="630.8516"/><line style="stroke:#181818;stroke-width:1.0;" x1="470" x2="511" y1="630.8516" y2="630.8516"/><polygon fill="#181818" points="480,626.8516,470,630.8516,480,634.8516,476,630.8516" style="stroke:#181818;stroke-width:1.0;"/><text fill="#000000" font-family="sans-serif" font-size="13" lengthAdjust="spacing" textLength="107" x="476" y="612.7856">runs willUpdate()</text><line style="stroke:#181818;stroke-width:1.0;" x1="469" x2="511" y1="659.9844" y2="659.9844"/><line style="stroke:#181818;stroke-width:1.0;" x1="511" x2="511" y1="659.9844" y2="672.9844"/><line style="stroke:#181818;stroke-width:1.0;" x1="470" x2="511" y1="672.9844" y2="672.9844"/><polygon fill="#181818" points="480,668.9844,470,672.9844,480,676.9844,476,672.9844" style="stroke:#181818;stroke-width:1.0;"/><text fill="#000000" font-family="sans-serif" font-size="13" lengthAdjust="spacing" textLength="87" x="476" y="654.9185">runs update()</text><path d="M376.5,687.9844 L470.5,687.9844 L470.5,695.1172 L460.5,705.1172 L376.5,705.1172 L376.5,687.9844 " fill="#EEEEEE" style="stroke:#000000;stroke-width:1.5;"/><rect fill="none" height="75.3984" style="stroke:#000000;stroke-width:1.5;" width="399.5" x="376.5" y="687.9844"/><text fill="#000000" font-family="sans-serif" font-size="13" font-weight="bold" lengthAdjust="spacing" textLength="49" x="391.5" y="701.0513">render</text><polygon fill="#181818" points="683,722.25,693,726.25,683,730.25,687,726.25" style="stroke:#181818;stroke-width:1.0;"/><line style="stroke:#181818;stroke-width:1.0;" x1="469" x2="689" y1="726.25" y2="726.25"/><text fill="#000000" font-family="sans-serif" font-size="13" lengthAdjust="spacing" textLength="84" x="476" y="721.1841">runs render()</text><polygon fill="#181818" points="480,751.3828,470,755.3828,480,759.3828,476,755.3828" style="stroke:#181818;stroke-width:1.0;"/><line style="stroke:#181818;stroke-width:1.0;" x1="474" x2="694" y1="755.3828" y2="755.3828"/><text fill="#000000" font-family="sans-serif" font-size="13" lengthAdjust="spacing" textLength="108" x="486" y="750.3169">returns template</text><polygon fill="#181818" points="177,787.5156,167,791.5156,177,795.5156,173,791.5156" style="stroke:#181818;stroke-width:1.0;"/><line style="stroke:#181818;stroke-width:1.0;" x1="171" x2="468" y1="791.5156" y2="791.5156"/><text fill="#000000" font-family="sans-serif" font-size="13" lengthAdjust="spacing" textLength="134" x="183" y="786.4497">updates shadow tree</text><path d="M112,813.5156 L259,813.5156 L259,820.6484 L249,830.6484 L112,830.6484 L112,813.5156 " fill="#EEEEEE" style="stroke:#000000;stroke-width:1.5;"/><rect fill="none" height="325.4609" style="stroke:#000000;stroke-width:1.5;" width="674" x="112" y="813.5156"/><text fill="#000000" font-family="sans-serif" font-size="13" font-weight="bold" lengthAdjust="spacing" textLength="102" x="127" y="826.5825">Post-Updated</text><path d="M122,837.6484 L255,837.6484 L255,844.7813 L245,854.7813 L122,854.7813 L122,837.6484 " fill="#EEEEEE" style="stroke:#000000;stroke-width:1.5;"/><rect fill="none" height="104.5313" style="stroke:#000000;stroke-width:1.5;" width="654" x="122" y="837.6484"/><text fill="#000000" font-family="sans-serif" font-size="13" font-weight="bold" lengthAdjust="spacing" textLength="88" x="137" y="850.7153">fistUpdated</text><polygon fill="#181818" points="683,871.9141,693,875.9141,683,879.9141,687,875.9141" style="stroke:#181818;stroke-width:1.0;"/><line style="stroke:#181818;stroke-width:1.0;" x1="469" x2="689" y1="875.9141" y2="875.9141"/><text fill="#000000" font-family="sans-serif" font-size="13" lengthAdjust="spacing" textLength="148" x="476" y="870.8481">runs this.firstUpdated()</text><polygon fill="#181818" points="177,901.0469,167,905.0469,177,909.0469,173,905.0469" style="stroke:#181818;stroke-width:1.0;"/><line style="stroke:#181818;stroke-width:1.0;" x1="171" x2="694" y1="905.0469" y2="905.0469"/><text fill="#000000" font-family="sans-serif" font-size="13" lengthAdjust="spacing" textLength="213" x="183" y="899.981">render canvas in the shadow tree</text><polygon fill="#181818" points="480,930.1797,470,934.1797,480,938.1797,476,934.1797" style="stroke:#181818;stroke-width:1.0;"/><line style="stroke:#181818;stroke-width:1.0;" x1="474" x2="694" y1="934.1797" y2="934.1797"/><text fill="#000000" font-family="sans-serif" font-size="13" lengthAdjust="spacing" textLength="161" x="486" y="929.1138">runs super.firstUpdated()</text><path d="M122,956.1797 L230,956.1797 L230,963.3125 L220,973.3125 L122,973.3125 L122,956.1797 " fill="#EEEEEE" style="stroke:#000000;stroke-width:1.5;"/><rect fill="none" height="133.6641" style="stroke:#000000;stroke-width:1.5;" width="654" x="122" y="956.1797"/><text fill="#000000" font-family="sans-serif" font-size="13" font-weight="bold" lengthAdjust="spacing" textLength="63" x="137" y="969.2466">updated</text><polygon fill="#181818" points="683,990.4453,693,994.4453,683,998.4453,687,994.4453" style="stroke:#181818;stroke-width:1.0;"/><line style="stroke:#181818;stroke-width:1.0;" x1="469" x2="689" y1="994.4453" y2="994.4453"/><text fill="#000000" font-family="sans-serif" font-size="13" lengthAdjust="spacing" textLength="122" x="476" y="989.3794">runs this.updated()</text><polygon fill="#181818" points="177,1019.5781,167,1023.5781,177,1027.5781,173,1023.5781" style="stroke:#181818;stroke-width:1.0;"/><line style="stroke:#181818;stroke-width:1.0;" x1="171" x2="694" y1="1023.5781" y2="1023.5781"/><text fill="#000000" font-family="sans-serif" font-size="13" lengthAdjust="spacing" textLength="223" x="183" y="1018.5122">updates canvas in the shadow tree</text><polygon fill="#181818" points="480,1048.7109,470,1052.7109,480,1056.7109,476,1052.7109" style="stroke:#181818;stroke-width:1.0;"/><line style="stroke:#181818;stroke-width:1.0;" x1="474" x2="694" y1="1052.7109" y2="1052.7109"/><text fill="#000000" font-family="sans-serif" font-size="13" lengthAdjust="spacing" textLength="135" x="486" y="1047.645">runs super.updated()</text><polygon fill="#181818" points="784,1077.8438,794,1081.8438,784,1085.8438,788,1081.8438" style="stroke:#181818;stroke-width:1.0;"/><line style="stroke:#181818;stroke-width:1.0;" x1="469" x2="790" y1="1081.8438" y2="1081.8438"/><text fill="#000000" font-family="sans-serif" font-size="13" lengthAdjust="spacing" textLength="69" x="476" y="1076.7778">dispatches</text><text fill="#000000" font-family="sans-serif" font-size="13" font-weight="bold" lengthAdjust="spacing" textLength="77" x="549" y="1076.7778">"updated"</text><text fill="#000000" font-family="sans-serif" font-size="13" lengthAdjust="spacing" textLength="36" x="630" y="1076.7778">event</text><line style="stroke:#181818;stroke-width:1.0;" x1="469" x2="511" y1="1117.9766" y2="1117.9766"/><line style="stroke:#181818;stroke-width:1.0;" x1="511" x2="511" y1="1117.9766" y2="1130.9766"/><line style="stroke:#181818;stroke-width:1.0;" x1="470" x2="511" y1="1130.9766" y2="1130.9766"/><polygon fill="#181818" points="480,1126.9766,470,1130.9766,480,1134.9766,476,1130.9766" style="stroke:#181818;stroke-width:1.0;"/><text fill="#000000" font-family="sans-serif" font-size="13" lengthAdjust="spacing" textLength="164" x="476" y="1112.9106">resolves updateComplete</text><!--MD5=[cdcd68d4701bc7bd068979e593235534]
@startuml hdml_view_append
  title <hdml-view/> append workflow

  participant Window

  box <hdml-view/> #e0e0e0
    participant AbstractChartElement
    collections HdmlViewElement
  end box

  -> Window: append <hdml-view/>
  Window -> HdmlViewElement: creates new HdmlViewElement()

  group #b3e5fc Pre-Update
    AbstractChartElement <- HdmlViewElement: runs super()
    Window <- AbstractChartElement: creates a shadow DOM
    Window <- AbstractChartElement: attaches styles to a shadow DOM

    group #039be5 connectedCallback
      AbstractChartElement -> HdmlViewElement: runs this.connectedCallback()
      AbstractChartElement <- HdmlViewElement: runs super.connectedCallback()
      AbstractChartElement -> Window: runs addEventListener(<b>"styles-changed"</b>)
    end

    AbstractChartElement -> AbstractChartElement: runs requestUpdate()
  end

  ==async==

  group #b3e5fc Update
    AbstractChartElement -> AbstractChartElement: runs performUpdate()
    AbstractChartElement -> AbstractChartElement: runs shouldUpdate()
    AbstractChartElement -> AbstractChartElement: runs willUpdate()
    AbstractChartElement -> AbstractChartElement: runs update()
    
    group #039be5 render
      AbstractChartElement -> HdmlViewElement: runs render()
      AbstractChartElement <- HdmlViewElement: returns template
    end

    Window <- AbstractChartElement: updates shadow tree
  end

  group #b3e5fc Post-Updated
    group #039be5 fistUpdated
      AbstractChartElement -> HdmlViewElement: runs this.firstUpdated()
      Window <- HdmlViewElement: render canvas in the shadow tree
      AbstractChartElement <- HdmlViewElement: runs super.firstUpdated()
    end

    group #039be5 updated
      AbstractChartElement -> HdmlViewElement: runs this.updated()
      Window <- HdmlViewElement: updates canvas in the shadow tree
      AbstractChartElement <- HdmlViewElement: runs super.updated()
      AbstractChartElement -> : dispatches <b>"updated"</b> event
    end

    AbstractChartElement -> AbstractChartElement: resolves updateComplete
  end
@enduml

PlantUML version 1.2022.7(Mon Aug 22 19:01:30 CEST 2022)
(GPL source distribution)
Java Runtime: OpenJDK Runtime Environment
JVM: OpenJDK 64-Bit Server VM
Default Encoding: UTF-8
Language: en
Country: US
--></g></svg>