<?xml version="1.0" encoding="UTF-8" standalone="no"?><svg xmlns="http://www.w3.org/2000/svg" xmlns:xlink="http://www.w3.org/1999/xlink" contentStyleType="text/css" height="1112px" preserveAspectRatio="none" style="width:733px;height:1112px;background:#FFFFFF;" version="1.1" viewBox="0 0 733 1112" width="733px" zoomAndPan="magnify"><defs/><g><rect fill="none" height="26.2969" id="_title" style="stroke:none;stroke-width:1.0;" width="229" x="248" y="10"/><text fill="#000000" font-family="sans-serif" font-size="14" font-weight="bold" lengthAdjust="spacing" textLength="219" x="253" y="27.9951">Initial Workflow (observers)</text><rect fill="#B3E5FC" height="221.125" style="stroke:#000000;stroke-width:1.5;" width="706" x="10" y="135.5938"/><rect fill="#B3E5FC" height="162.7969" style="stroke:#000000;stroke-width:1.5;" width="575" x="10" y="370.7188"/><rect fill="#B3E5FC" height="204.9297" style="stroke:#000000;stroke-width:1.5;" width="575" x="10" y="547.5156"/><rect fill="#B3E5FC" height="248.0625" style="stroke:#000000;stroke-width:1.5;" width="706" x="10" y="766.4453"/><line style="stroke:#181818;stroke-width:0.5;stroke-dasharray:5.0,5.0;" x1="39" x2="39" y1="118.5938" y2="1031.5078"/><line style="stroke:#181818;stroke-width:0.5;stroke-dasharray:5.0,5.0;" x1="112" x2="112" y1="118.5938" y2="1031.5078"/><line style="stroke:#181818;stroke-width:0.5;stroke-dasharray:5.0,5.0;" x1="302" x2="302" y1="118.5938" y2="1031.5078"/><line style="stroke:#181818;stroke-width:0.5;stroke-dasharray:5.0,5.0;" x1="388" x2="388" y1="118.5938" y2="1031.5078"/><line style="stroke:#181818;stroke-width:0.5;stroke-dasharray:5.0,5.0;" x1="506" x2="506" y1="279.3047" y2="1031.5078"/><line style="stroke:#181818;stroke-width:0.5;stroke-dasharray:5.0,5.0;" x1="645" x2="645" y1="221.0078" y2="1031.5078"/><text fill="#000000" font-family="sans-serif" font-size="14" lengthAdjust="spacing" textLength="32" x="20" y="115.292">User</text><ellipse cx="39" cy="50.7969" fill="#E2E2F0" rx="8" ry="8" style="stroke:#181818;stroke-width:0.5;"/><path d="M39,58.7969 L39,85.7969 M26,66.7969 L52,66.7969 M39,85.7969 L26,100.7969 M39,85.7969 L52,100.7969 " fill="none" style="stroke:#181818;stroke-width:0.5;"/><text fill="#000000" font-family="sans-serif" font-size="14" lengthAdjust="spacing" textLength="32" x="20" y="1043.5029">User</text><ellipse cx="39" cy="1055.3047" fill="#E2E2F0" rx="8" ry="8" style="stroke:#181818;stroke-width:0.5;"/><path d="M39,1063.3047 L39,1090.3047 M26,1071.3047 L52,1071.3047 M39,1090.3047 L26,1105.3047 M39,1090.3047 L52,1105.3047 " fill="none" style="stroke:#181818;stroke-width:0.5;"/><rect fill="#E2E2F0" height="30.2969" rx="2.5" ry="2.5" style="stroke:#181818;stroke-width:0.5;" width="68" x="78" y="87.2969"/><text fill="#000000" font-family="sans-serif" font-size="14" lengthAdjust="spacing" textLength="54" x="85" y="107.292">Window</text><rect fill="#E2E2F0" height="30.2969" rx="2.5" ry="2.5" style="stroke:#181818;stroke-width:0.5;" width="68" x="78" y="1030.5078"/><text fill="#000000" font-family="sans-serif" font-size="14" lengthAdjust="spacing" textLength="54" x="85" y="1050.5029">Window</text><text fill="#000000" font-family="sans-serif" font-size="14" lengthAdjust="spacing" textLength="66" x="266" y="115.292">robserver</text><ellipse cx="302" cy="86.2969" fill="#E2E2F0" rx="12" ry="12" style="stroke:#181818;stroke-width:0.5;"/><polygon fill="#181818" points="298,74.2969,304,69.2969,302,74.2969,304,79.2969,298,74.2969" style="stroke:#181818;stroke-width:1.0;"/><text fill="#000000" font-family="sans-serif" font-size="14" lengthAdjust="spacing" textLength="66" x="266" y="1043.5029">robserver</text><ellipse cx="302" cy="1062.8047" fill="#E2E2F0" rx="12" ry="12" style="stroke:#181818;stroke-width:0.5;"/><polygon fill="#181818" points="298,1050.8047,304,1045.8047,302,1050.8047,304,1055.8047,298,1050.8047" style="stroke:#181818;stroke-width:1.0;"/><text fill="#000000" font-family="sans-serif" font-size="14" lengthAdjust="spacing" textLength="74" x="348" y="115.292">mobserver</text><ellipse cx="388" cy="86.2969" fill="#E2E2F0" rx="12" ry="12" style="stroke:#181818;stroke-width:0.5;"/><polygon fill="#181818" points="384,74.2969,390,69.2969,388,74.2969,390,79.2969,384,74.2969" style="stroke:#181818;stroke-width:1.0;"/><text fill="#000000" font-family="sans-serif" font-size="14" lengthAdjust="spacing" textLength="74" x="348" y="1043.5029">mobserver</text><ellipse cx="388" cy="1062.8047" fill="#E2E2F0" rx="12" ry="12" style="stroke:#181818;stroke-width:0.5;"/><polygon fill="#181818" points="384,1050.8047,390,1045.8047,388,1050.8047,390,1055.8047,384,1050.8047" style="stroke:#181818;stroke-width:1.0;"/><text fill="#000000" font-family="sans-serif" font-size="14" lengthAdjust="spacing" textLength="131" x="438" y="1043.5029">dispatchImmediate</text><ellipse cx="506.5" cy="1062.8047" fill="#E2E2F0" rx="12" ry="12" style="stroke:#181818;stroke-width:0.5;"/><polygon fill="#181818" points="502.5,1050.8047,508.5,1045.8047,506.5,1050.8047,508.5,1055.8047,502.5,1050.8047" style="stroke:#181818;stroke-width:1.0;"/><text fill="#000000" font-family="sans-serif" font-size="14" lengthAdjust="spacing" textLength="115" x="585" y="1043.5029">dispatchDelayed</text><ellipse cx="645.5" cy="1062.8047" fill="#E2E2F0" rx="12" ry="12" style="stroke:#181818;stroke-width:0.5;"/><polygon fill="#181818" points="641.5,1050.8047,647.5,1045.8047,645.5,1050.8047,647.5,1055.8047,641.5,1050.8047" style="stroke:#181818;stroke-width:1.0;"/><path d="M10,135.5938 L78,135.5938 L78,142.7266 L68,152.7266 L10,152.7266 L10,135.5938 " fill="#EEEEEE" style="stroke:#000000;stroke-width:1.5;"/><rect fill="none" height="221.125" style="stroke:#000000;stroke-width:1.5;" width="706" x="10" y="135.5938"/><text fill="#000000" font-family="sans-serif" font-size="13" font-weight="bold" lengthAdjust="spacing" textLength="23" x="25" y="148.6606">Init</text><polygon fill="#181818" points="100,169.8594,110,173.8594,100,177.8594,104,173.8594" style="stroke:#181818;stroke-width:1.0;"/><line style="stroke:#181818;stroke-width:1.0;" x1="39" x2="106" y1="173.8594" y2="173.8594"/><text fill="#000000" font-family="sans-serif" font-size="13" lengthAdjust="spacing" textLength="32" x="46" y="168.7935">open</text><polygon fill="#181818" points="573,198.9922,583,202.9922,573,206.9922,577,202.9922" style="stroke:#181818;stroke-width:1.0;"/><line style="stroke:#181818;stroke-width:1.0;" x1="112" x2="579" y1="202.9922" y2="202.9922"/><text fill="#000000" font-family="sans-serif" font-size="13" lengthAdjust="spacing" textLength="48" x="119" y="197.9263">creates</text><text fill="#000000" font-family="sans-serif" font-size="14" lengthAdjust="spacing" textLength="115" x="585" y="226.8545">dispatchDelayed</text><ellipse cx="645.5" cy="197.8594" fill="#E2E2F0" rx="12" ry="12" style="stroke:#181818;stroke-width:0.5;"/><polygon fill="#181818" points="641.5,185.8594,647.5,180.8594,645.5,185.8594,647.5,190.8594,641.5,185.8594" style="stroke:#181818;stroke-width:1.0;"/><polygon fill="#181818" points="426,257.2891,436,261.2891,426,265.2891,430,261.2891" style="stroke:#181818;stroke-width:1.0;"/><line style="stroke:#181818;stroke-width:1.0;" x1="112" x2="432" y1="261.2891" y2="261.2891"/><text fill="#000000" font-family="sans-serif" font-size="13" lengthAdjust="spacing" textLength="48" x="119" y="256.2231">creates</text><text fill="#000000" font-family="sans-serif" font-size="14" lengthAdjust="spacing" textLength="131" x="438" y="285.1514">dispatchImmediate</text><ellipse cx="506.5" cy="256.1563" fill="#E2E2F0" rx="12" ry="12" style="stroke:#181818;stroke-width:0.5;"/><polygon fill="#181818" points="502.5,244.1563,508.5,239.1563,506.5,244.1563,508.5,249.1563,502.5,244.1563" style="stroke:#181818;stroke-width:1.0;"/><polygon fill="#181818" points="376,315.5859,386,319.5859,376,323.5859,380,319.5859" style="stroke:#181818;stroke-width:1.0;"/><line style="stroke:#181818;stroke-width:1.0;" x1="112" x2="382" y1="319.5859" y2="319.5859"/><text fill="#000000" font-family="sans-serif" font-size="13" lengthAdjust="spacing" textLength="43" x="119" y="314.52">enable</text><polygon fill="#181818" points="290,344.7188,300,348.7188,290,352.7188,294,348.7188" style="stroke:#181818;stroke-width:1.0;"/><line style="stroke:#181818;stroke-width:1.0;" x1="112" x2="296" y1="348.7188" y2="348.7188"/><text fill="#000000" font-family="sans-serif" font-size="13" lengthAdjust="spacing" textLength="43" x="119" y="343.6528">enable</text><path d="M10,370.7188 L176,370.7188 L176,377.8516 L166,387.8516 L10,387.8516 L10,370.7188 " fill="#EEEEEE" style="stroke:#000000;stroke-width:1.5;"/><rect fill="none" height="162.7969" style="stroke:#000000;stroke-width:1.5;" width="575" x="10" y="370.7188"/><text fill="#000000" font-family="sans-serif" font-size="13" font-weight="bold" lengthAdjust="spacing" textLength="121" x="25" y="383.7856">Window Resized</text><polygon fill="#181818" points="100,404.9844,110,408.9844,100,412.9844,104,408.9844" style="stroke:#181818;stroke-width:1.0;"/><line style="stroke:#181818;stroke-width:1.0;" x1="39" x2="106" y1="408.9844" y2="408.9844"/><text fill="#000000" font-family="sans-serif" font-size="13" lengthAdjust="spacing" textLength="38" x="46" y="403.9185">resize</text><polygon fill="#181818" points="290,434.1172,300,438.1172,290,442.1172,294,438.1172" style="stroke:#181818;stroke-width:1.0;"/><line style="stroke:#181818;stroke-width:1.0;" x1="112" x2="296" y1="438.1172" y2="438.1172"/><text fill="#000000" font-family="sans-serif" font-size="13" lengthAdjust="spacing" textLength="42" x="119" y="433.0513">trigger</text><polygon fill="#181818" points="494.5,463.25,504.5,467.25,494.5,471.25,498.5,467.25" style="stroke:#181818;stroke-width:1.0;"/><line style="stroke:#181818;stroke-width:1.0;" x1="302" x2="500.5" y1="467.25" y2="467.25"/><text fill="#000000" font-family="sans-serif" font-size="13" lengthAdjust="spacing" textLength="21" x="309" y="462.1841">run</text><polygon fill="#181818" points="123,492.3828,113,496.3828,123,500.3828,119,496.3828" style="stroke:#181818;stroke-width:1.0;"/><line style="stroke:#181818;stroke-width:1.0;" x1="117" x2="505.5" y1="496.3828" y2="496.3828"/><text fill="#000000" font-family="sans-serif" font-size="13" lengthAdjust="spacing" textLength="120" x="129" y="491.3169">call dispatchEvent(</text><text fill="#000000" font-family="sans-serif" font-size="13" font-weight="bold" lengthAdjust="spacing" textLength="126" x="249" y="491.3169">"styles-changed"</text><text fill="#000000" font-family="sans-serif" font-size="13" lengthAdjust="spacing" textLength="5" x="375" y="491.3169">)</text><polygon fill="#181818" points="714,521.5156,724,525.5156,714,529.5156,718,525.5156" style="stroke:#181818;stroke-width:1.0;"/><line style="stroke:#181818;stroke-width:1.0;" x1="112" x2="720" y1="525.5156" y2="525.5156"/><text fill="#000000" font-family="sans-serif" font-size="13" lengthAdjust="spacing" textLength="69" x="119" y="520.4497">dispatches</text><text fill="#000000" font-family="sans-serif" font-size="13" font-weight="bold" lengthAdjust="spacing" textLength="126" x="192" y="520.4497">"styles-changed"</text><path d="M10,547.5156 L162,547.5156 L162,554.6484 L152,564.6484 L10,564.6484 L10,547.5156 " fill="#EEEEEE" style="stroke:#000000;stroke-width:1.5;"/><rect fill="none" height="204.9297" style="stroke:#000000;stroke-width:1.5;" width="575" x="10" y="547.5156"/><text fill="#000000" font-family="sans-serif" font-size="13" font-weight="bold" lengthAdjust="spacing" textLength="107" x="25" y="560.5825">Style Changed</text><polygon fill="#181818" points="100,581.7813,110,585.7813,100,589.7813,104,585.7813" style="stroke:#181818;stroke-width:1.0;"/><line style="stroke:#181818;stroke-width:1.0;" x1="39" x2="106" y1="585.7813" y2="585.7813"/><text fill="#000000" font-family="sans-serif" font-size="13" lengthAdjust="spacing" textLength="49" x="46" y="580.7153">interact</text><line style="stroke:#181818;stroke-width:1.0;" x1="112" x2="154" y1="614.9141" y2="614.9141"/><line style="stroke:#181818;stroke-width:1.0;" x1="154" x2="154" y1="614.9141" y2="627.9141"/><line style="stroke:#181818;stroke-width:1.0;" x1="113" x2="154" y1="627.9141" y2="627.9141"/><polygon fill="#181818" points="123,623.9141,113,627.9141,123,631.9141,119,627.9141" style="stroke:#181818;stroke-width:1.0;"/><text fill="#000000" font-family="sans-serif" font-size="13" lengthAdjust="spacing" textLength="174" x="119" y="609.8481">change DOM-element style</text><polygon fill="#181818" points="376,653.0469,386,657.0469,376,661.0469,380,657.0469" style="stroke:#181818;stroke-width:1.0;"/><line style="stroke:#181818;stroke-width:1.0;" x1="112" x2="382" y1="657.0469" y2="657.0469"/><text fill="#000000" font-family="sans-serif" font-size="13" lengthAdjust="spacing" textLength="42" x="119" y="651.981">trigger</text><polygon fill="#181818" points="494.5,682.1797,504.5,686.1797,494.5,690.1797,498.5,686.1797" style="stroke:#181818;stroke-width:1.0;"/><line style="stroke:#181818;stroke-width:1.0;" x1="388" x2="500.5" y1="686.1797" y2="686.1797"/><text fill="#000000" font-family="sans-serif" font-size="13" lengthAdjust="spacing" textLength="21" x="395" y="681.1138">run</text><polygon fill="#181818" points="123,711.3125,113,715.3125,123,719.3125,119,715.3125" style="stroke:#181818;stroke-width:1.0;"/><line style="stroke:#181818;stroke-width:1.0;" x1="117" x2="505.5" y1="715.3125" y2="715.3125"/><text fill="#000000" font-family="sans-serif" font-size="13" lengthAdjust="spacing" textLength="120" x="129" y="710.2466">call dispatchEvent(</text><text fill="#000000" font-family="sans-serif" font-size="13" font-weight="bold" lengthAdjust="spacing" textLength="126" x="249" y="710.2466">"styles-changed"</text><text fill="#000000" font-family="sans-serif" font-size="13" lengthAdjust="spacing" textLength="5" x="375" y="710.2466">)</text><polygon fill="#181818" points="714,740.4453,724,744.4453,714,748.4453,718,744.4453" style="stroke:#181818;stroke-width:1.0;"/><line style="stroke:#181818;stroke-width:1.0;" x1="112" x2="720" y1="744.4453" y2="744.4453"/><text fill="#000000" font-family="sans-serif" font-size="13" lengthAdjust="spacing" textLength="69" x="119" y="739.3794">dispatches</text><text fill="#000000" font-family="sans-serif" font-size="13" font-weight="bold" lengthAdjust="spacing" textLength="126" x="192" y="739.3794">"styles-changed"</text><path d="M10,766.4453 L165,766.4453 L165,773.5781 L155,783.5781 L10,783.5781 L10,766.4453 " fill="#EEEEEE" style="stroke:#000000;stroke-width:1.5;"/><rect fill="none" height="248.0625" style="stroke:#000000;stroke-width:1.5;" width="706" x="10" y="766.4453"/><text fill="#000000" font-family="sans-serif" font-size="13" font-weight="bold" lengthAdjust="spacing" textLength="110" x="25" y="779.5122">Class Changed</text><polygon fill="#181818" points="100,800.7109,110,804.7109,100,808.7109,104,804.7109" style="stroke:#181818;stroke-width:1.0;"/><line style="stroke:#181818;stroke-width:1.0;" x1="39" x2="106" y1="804.7109" y2="804.7109"/><text fill="#000000" font-family="sans-serif" font-size="13" lengthAdjust="spacing" textLength="49" x="46" y="799.645">interact</text><line style="stroke:#181818;stroke-width:1.0;" x1="112" x2="154" y1="833.8438" y2="833.8438"/><line style="stroke:#181818;stroke-width:1.0;" x1="154" x2="154" y1="833.8438" y2="846.8438"/><line style="stroke:#181818;stroke-width:1.0;" x1="113" x2="154" y1="846.8438" y2="846.8438"/><polygon fill="#181818" points="123,842.8438,113,846.8438,123,850.8438,119,846.8438" style="stroke:#181818;stroke-width:1.0;"/><text fill="#000000" font-family="sans-serif" font-size="13" lengthAdjust="spacing" textLength="176" x="119" y="828.7778">change DOM-element class</text><polygon fill="#181818" points="376,871.9766,386,875.9766,376,879.9766,380,875.9766" style="stroke:#181818;stroke-width:1.0;"/><line style="stroke:#181818;stroke-width:1.0;" x1="112" x2="382" y1="875.9766" y2="875.9766"/><text fill="#000000" font-family="sans-serif" font-size="13" lengthAdjust="spacing" textLength="42" x="119" y="870.9106">trigger</text><polygon fill="#181818" points="633.5,901.1094,643.5,905.1094,633.5,909.1094,637.5,905.1094" style="stroke:#181818;stroke-width:1.0;"/><line style="stroke:#181818;stroke-width:1.0;" x1="388" x2="639.5" y1="905.1094" y2="905.1094"/><text fill="#000000" font-family="sans-serif" font-size="13" lengthAdjust="spacing" textLength="21" x="395" y="900.0435">run</text><rect fill="#EEEEEE" height="3" style="stroke:#EEEEEE;stroke-width:1.0;" width="726" x="0" y="933.6758"/><line style="stroke:#000000;stroke-width:1.0;" x1="0" x2="726" y1="933.6758" y2="933.6758"/><line style="stroke:#000000;stroke-width:1.0;" x1="0" x2="726" y1="936.6758" y2="936.6758"/><rect fill="#EEEEEE" height="23.1328" style="stroke:#000000;stroke-width:2.0;" width="56" x="335" y="923.1094"/><text fill="#000000" font-family="sans-serif" font-size="13" font-weight="bold" lengthAdjust="spacing" textLength="42" x="341" y="939.1763">async</text><polygon fill="#181818" points="123,973.375,113,977.375,123,981.375,119,977.375" style="stroke:#181818;stroke-width:1.0;"/><line style="stroke:#181818;stroke-width:1.0;" x1="117" x2="644.5" y1="977.375" y2="977.375"/><text fill="#000000" font-family="sans-serif" font-size="13" lengthAdjust="spacing" textLength="120" x="129" y="972.3091">call dispatchEvent(</text><text fill="#000000" font-family="sans-serif" font-size="13" font-weight="bold" lengthAdjust="spacing" textLength="126" x="249" y="972.3091">"styles-changed"</text><text fill="#000000" font-family="sans-serif" font-size="13" lengthAdjust="spacing" textLength="5" x="375" y="972.3091">)</text><polygon fill="#181818" points="714,1002.5078,724,1006.5078,714,1010.5078,718,1006.5078" style="stroke:#181818;stroke-width:1.0;"/><line style="stroke:#181818;stroke-width:1.0;" x1="112" x2="720" y1="1006.5078" y2="1006.5078"/><text fill="#000000" font-family="sans-serif" font-size="13" lengthAdjust="spacing" textLength="69" x="119" y="1001.4419">dispatches</text><text fill="#000000" font-family="sans-serif" font-size="13" font-weight="bold" lengthAdjust="spacing" textLength="126" x="192" y="1001.4419">"styles-changed"</text><!--MD5=[33887eb89a01de725329e93bba6f700c]
@startuml init_workflow
  title Initial Workflow (observers)

  actor User
  participant Window
  control robserver
  control mobserver
  control dispatchImmediate
  control dispatchDelayed

  group #b3e5fc Init
    User -> Window: open

    create dispatchDelayed
    Window -> dispatchDelayed: creates

    create dispatchImmediate
    Window -> dispatchImmediate: creates

    Window -> mobserver: enable
    Window -> robserver: enable
  end

  group #b3e5fc Window Resized
    User -> Window: resize
    Window -> robserver: trigger
    robserver -> dispatchImmediate: run
    dispatchImmediate -> Window: call dispatchEvent(<b>"styles-changed"</b>)
    Window -> : dispatches <b>"styles-changed"</b>
  end

  group #b3e5fc Style Changed
    User -> Window: interact
    Window -> Window: change DOM-element style
    Window -> mobserver: trigger
    mobserver -> dispatchImmediate: run
    dispatchImmediate -> Window: call dispatchEvent(<b>"styles-changed"</b>)
    Window -> : dispatches <b>"styles-changed"</b>
  end

  group #b3e5fc Class Changed
    User -> Window: interact
    Window -> Window: change DOM-element class
    Window -> mobserver: trigger
    mobserver -> dispatchDelayed: run
    ==async==
    dispatchDelayed -> Window: call dispatchEvent(<b>"styles-changed"</b>)
    Window -> : dispatches <b>"styles-changed"</b>
  end
@enduml

PlantUML version 1.2022.7(Mon Aug 22 19:01:30 CEST 2022)
(GPL source distribution)
Java Runtime: OpenJDK Runtime Environment
JVM: OpenJDK 64-Bit Server VM
Default Encoding: UTF-8
Language: en
Country: US
--></g></svg>