<?xml version="1.0" encoding="UTF-8" standalone="no"?><svg xmlns="http://www.w3.org/2000/svg" xmlns:xlink="http://www.w3.org/1999/xlink" contentStyleType="text/css" height="1024px" preserveAspectRatio="none" style="width:733px;height:1024px;background:#FFFFFF;" version="1.1" viewBox="0 0 733 1024" width="733px" zoomAndPan="magnify"><defs/><g><rect fill="none" height="26.2969" id="_title" style="stroke:none;stroke-width:1.0;" width="131" x="297" y="10"/><text fill="#000000" font-family="sans-serif" font-size="14" font-weight="bold" lengthAdjust="spacing" textLength="121" x="302" y="27.9951">Initial Workflow</text><rect fill="none" height="221.125" style="stroke:#000000;stroke-width:1.5;" width="706" x="10" y="135.5938"/><rect fill="none" height="133.6641" style="stroke:#000000;stroke-width:1.5;" width="575" x="10" y="370.7188"/><rect fill="none" height="175.7969" style="stroke:#000000;stroke-width:1.5;" width="575" x="10" y="518.3828"/><rect fill="none" height="218.9297" style="stroke:#000000;stroke-width:1.5;" width="706" x="10" y="708.1797"/><line style="stroke:#181818;stroke-width:0.5;stroke-dasharray:5.0,5.0;" x1="39" x2="39" y1="118.5938" y2="944.1094"/><line style="stroke:#181818;stroke-width:0.5;stroke-dasharray:5.0,5.0;" x1="112" x2="112" y1="118.5938" y2="944.1094"/><line style="stroke:#181818;stroke-width:0.5;stroke-dasharray:5.0,5.0;" x1="302" x2="302" y1="118.5938" y2="944.1094"/><line style="stroke:#181818;stroke-width:0.5;stroke-dasharray:5.0,5.0;" x1="388" x2="388" y1="118.5938" y2="944.1094"/><line style="stroke:#181818;stroke-width:0.5;stroke-dasharray:5.0,5.0;" x1="506" x2="506" y1="279.3047" y2="944.1094"/><line style="stroke:#181818;stroke-width:0.5;stroke-dasharray:5.0,5.0;" x1="645" x2="645" y1="221.0078" y2="944.1094"/><text fill="#000000" font-family="sans-serif" font-size="14" lengthAdjust="spacing" textLength="32" x="20" y="115.292">User</text><ellipse cx="39" cy="50.7969" fill="#E2E2F0" rx="8" ry="8" style="stroke:#181818;stroke-width:0.5;"/><path d="M39,58.7969 L39,85.7969 M26,66.7969 L52,66.7969 M39,85.7969 L26,100.7969 M39,85.7969 L52,100.7969 " fill="none" style="stroke:#181818;stroke-width:0.5;"/><text fill="#000000" font-family="sans-serif" font-size="14" lengthAdjust="spacing" textLength="32" x="20" y="956.1045">User</text><ellipse cx="39" cy="967.9063" fill="#E2E2F0" rx="8" ry="8" style="stroke:#181818;stroke-width:0.5;"/><path d="M39,975.9063 L39,1002.9063 M26,983.9063 L52,983.9063 M39,1002.9063 L26,1017.9063 M39,1002.9063 L52,1017.9063 " fill="none" style="stroke:#181818;stroke-width:0.5;"/><rect fill="#E2E2F0" height="30.2969" rx="2.5" ry="2.5" style="stroke:#181818;stroke-width:0.5;" width="68" x="78" y="87.2969"/><text fill="#000000" font-family="sans-serif" font-size="14" lengthAdjust="spacing" textLength="54" x="85" y="107.292">Window</text><rect fill="#E2E2F0" height="30.2969" rx="2.5" ry="2.5" style="stroke:#181818;stroke-width:0.5;" width="68" x="78" y="943.1094"/><text fill="#000000" font-family="sans-serif" font-size="14" lengthAdjust="spacing" textLength="54" x="85" y="963.1045">Window</text><text fill="#000000" font-family="sans-serif" font-size="14" lengthAdjust="spacing" textLength="66" x="266" y="115.292">robserver</text><ellipse cx="302" cy="86.2969" fill="#E2E2F0" rx="12" ry="12" style="stroke:#181818;stroke-width:0.5;"/><polygon fill="#181818" points="298,74.2969,304,69.2969,302,74.2969,304,79.2969,298,74.2969" style="stroke:#181818;stroke-width:1.0;"/><text fill="#000000" font-family="sans-serif" font-size="14" lengthAdjust="spacing" textLength="66" x="266" y="956.1045">robserver</text><ellipse cx="302" cy="975.4063" fill="#E2E2F0" rx="12" ry="12" style="stroke:#181818;stroke-width:0.5;"/><polygon fill="#181818" points="298,963.4063,304,958.4063,302,963.4063,304,968.4063,298,963.4063" style="stroke:#181818;stroke-width:1.0;"/><text fill="#000000" font-family="sans-serif" font-size="14" lengthAdjust="spacing" textLength="74" x="348" y="115.292">mobserver</text><ellipse cx="388" cy="86.2969" fill="#E2E2F0" rx="12" ry="12" style="stroke:#181818;stroke-width:0.5;"/><polygon fill="#181818" points="384,74.2969,390,69.2969,388,74.2969,390,79.2969,384,74.2969" style="stroke:#181818;stroke-width:1.0;"/><text fill="#000000" font-family="sans-serif" font-size="14" lengthAdjust="spacing" textLength="74" x="348" y="956.1045">mobserver</text><ellipse cx="388" cy="975.4063" fill="#E2E2F0" rx="12" ry="12" style="stroke:#181818;stroke-width:0.5;"/><polygon fill="#181818" points="384,963.4063,390,958.4063,388,963.4063,390,968.4063,384,963.4063" style="stroke:#181818;stroke-width:1.0;"/><text fill="#000000" font-family="sans-serif" font-size="14" lengthAdjust="spacing" textLength="131" x="438" y="956.1045">dispatchImmediate</text><ellipse cx="506.5" cy="975.4063" fill="#E2E2F0" rx="12" ry="12" style="stroke:#181818;stroke-width:0.5;"/><polygon fill="#181818" points="502.5,963.4063,508.5,958.4063,506.5,963.4063,508.5,968.4063,502.5,963.4063" style="stroke:#181818;stroke-width:1.0;"/><text fill="#000000" font-family="sans-serif" font-size="14" lengthAdjust="spacing" textLength="115" x="585" y="956.1045">dispatchDelayed</text><ellipse cx="645.5" cy="975.4063" fill="#E2E2F0" rx="12" ry="12" style="stroke:#181818;stroke-width:0.5;"/><polygon fill="#181818" points="641.5,963.4063,647.5,958.4063,645.5,963.4063,647.5,968.4063,641.5,963.4063" style="stroke:#181818;stroke-width:1.0;"/><path d="M10,135.5938 L78,135.5938 L78,142.7266 L68,152.7266 L10,152.7266 L10,135.5938 " fill="#EEEEEE" style="stroke:#000000;stroke-width:1.5;"/><rect fill="none" height="221.125" style="stroke:#000000;stroke-width:1.5;" width="706" x="10" y="135.5938"/><text fill="#000000" font-family="sans-serif" font-size="13" font-weight="bold" lengthAdjust="spacing" textLength="23" x="25" y="148.6606">Init</text><polygon fill="#181818" points="100,169.8594,110,173.8594,100,177.8594,104,173.8594" style="stroke:#181818;stroke-width:1.0;"/><line style="stroke:#181818;stroke-width:1.0;" x1="39" x2="106" y1="173.8594" y2="173.8594"/><text fill="#000000" font-family="sans-serif" font-size="13" lengthAdjust="spacing" textLength="32" x="46" y="168.7935">open</text><polygon fill="#181818" points="573,198.9922,583,202.9922,573,206.9922,577,202.9922" style="stroke:#181818;stroke-width:1.0;"/><line style="stroke:#181818;stroke-width:1.0;" x1="112" x2="579" y1="202.9922" y2="202.9922"/><text fill="#000000" font-family="sans-serif" font-size="13" lengthAdjust="spacing" textLength="48" x="119" y="197.9263">creates</text><text fill="#000000" font-family="sans-serif" font-size="14" lengthAdjust="spacing" textLength="115" x="585" y="226.8545">dispatchDelayed</text><ellipse cx="645.5" cy="197.8594" fill="#E2E2F0" rx="12" ry="12" style="stroke:#181818;stroke-width:0.5;"/><polygon fill="#181818" points="641.5,185.8594,647.5,180.8594,645.5,185.8594,647.5,190.8594,641.5,185.8594" style="stroke:#181818;stroke-width:1.0;"/><polygon fill="#181818" points="426,257.2891,436,261.2891,426,265.2891,430,261.2891" style="stroke:#181818;stroke-width:1.0;"/><line style="stroke:#181818;stroke-width:1.0;" x1="112" x2="432" y1="261.2891" y2="261.2891"/><text fill="#000000" font-family="sans-serif" font-size="13" lengthAdjust="spacing" textLength="48" x="119" y="256.2231">creates</text><text fill="#000000" font-family="sans-serif" font-size="14" lengthAdjust="spacing" textLength="131" x="438" y="285.1514">dispatchImmediate</text><ellipse cx="506.5" cy="256.1563" fill="#E2E2F0" rx="12" ry="12" style="stroke:#181818;stroke-width:0.5;"/><polygon fill="#181818" points="502.5,244.1563,508.5,239.1563,506.5,244.1563,508.5,249.1563,502.5,244.1563" style="stroke:#181818;stroke-width:1.0;"/><polygon fill="#181818" points="376,315.5859,386,319.5859,376,323.5859,380,319.5859" style="stroke:#181818;stroke-width:1.0;"/><line style="stroke:#181818;stroke-width:1.0;" x1="112" x2="382" y1="319.5859" y2="319.5859"/><text fill="#000000" font-family="sans-serif" font-size="13" lengthAdjust="spacing" textLength="43" x="119" y="314.52">enable</text><polygon fill="#181818" points="290,344.7188,300,348.7188,290,352.7188,294,348.7188" style="stroke:#181818;stroke-width:1.0;"/><line style="stroke:#181818;stroke-width:1.0;" x1="112" x2="296" y1="348.7188" y2="348.7188"/><text fill="#000000" font-family="sans-serif" font-size="13" lengthAdjust="spacing" textLength="43" x="119" y="343.6528">enable</text><path d="M10,370.7188 L176,370.7188 L176,377.8516 L166,387.8516 L10,387.8516 L10,370.7188 " fill="#EEEEEE" style="stroke:#000000;stroke-width:1.5;"/><rect fill="none" height="133.6641" style="stroke:#000000;stroke-width:1.5;" width="575" x="10" y="370.7188"/><text fill="#000000" font-family="sans-serif" font-size="13" font-weight="bold" lengthAdjust="spacing" textLength="121" x="25" y="383.7856">Window Resized</text><polygon fill="#181818" points="100,404.9844,110,408.9844,100,412.9844,104,408.9844" style="stroke:#181818;stroke-width:1.0;"/><line style="stroke:#181818;stroke-width:1.0;" x1="39" x2="106" y1="408.9844" y2="408.9844"/><text fill="#000000" font-family="sans-serif" font-size="13" lengthAdjust="spacing" textLength="38" x="46" y="403.9185">resize</text><polygon fill="#181818" points="290,434.1172,300,438.1172,290,442.1172,294,438.1172" style="stroke:#181818;stroke-width:1.0;"/><line style="stroke:#181818;stroke-width:1.0;" x1="112" x2="296" y1="438.1172" y2="438.1172"/><text fill="#000000" font-family="sans-serif" font-size="13" lengthAdjust="spacing" textLength="42" x="119" y="433.0513">trigger</text><polygon fill="#181818" points="494.5,463.25,504.5,467.25,494.5,471.25,498.5,467.25" style="stroke:#181818;stroke-width:1.0;"/><line style="stroke:#181818;stroke-width:1.0;" x1="302" x2="500.5" y1="467.25" y2="467.25"/><text fill="#000000" font-family="sans-serif" font-size="13" lengthAdjust="spacing" textLength="21" x="309" y="462.1841">run</text><polygon fill="#181818" points="123,492.3828,113,496.3828,123,500.3828,119,496.3828" style="stroke:#181818;stroke-width:1.0;"/><line style="stroke:#181818;stroke-width:1.0;" x1="117" x2="505.5" y1="496.3828" y2="496.3828"/><text fill="#000000" font-family="sans-serif" font-size="13" lengthAdjust="spacing" textLength="165" x="129" y="491.3169">dispatch "styles-changed"</text><path d="M10,518.3828 L162,518.3828 L162,525.5156 L152,535.5156 L10,535.5156 L10,518.3828 " fill="#EEEEEE" style="stroke:#000000;stroke-width:1.5;"/><rect fill="none" height="175.7969" style="stroke:#000000;stroke-width:1.5;" width="575" x="10" y="518.3828"/><text fill="#000000" font-family="sans-serif" font-size="13" font-weight="bold" lengthAdjust="spacing" textLength="107" x="25" y="531.4497">Style Changed</text><polygon fill="#181818" points="100,552.6484,110,556.6484,100,560.6484,104,556.6484" style="stroke:#181818;stroke-width:1.0;"/><line style="stroke:#181818;stroke-width:1.0;" x1="39" x2="106" y1="556.6484" y2="556.6484"/><text fill="#000000" font-family="sans-serif" font-size="13" lengthAdjust="spacing" textLength="49" x="46" y="551.5825">interact</text><line style="stroke:#181818;stroke-width:1.0;" x1="112" x2="154" y1="585.7813" y2="585.7813"/><line style="stroke:#181818;stroke-width:1.0;" x1="154" x2="154" y1="585.7813" y2="598.7813"/><line style="stroke:#181818;stroke-width:1.0;" x1="113" x2="154" y1="598.7813" y2="598.7813"/><polygon fill="#181818" points="123,594.7813,113,598.7813,123,602.7813,119,598.7813" style="stroke:#181818;stroke-width:1.0;"/><text fill="#000000" font-family="sans-serif" font-size="13" lengthAdjust="spacing" textLength="174" x="119" y="580.7153">change DOM-element style</text><polygon fill="#181818" points="376,623.9141,386,627.9141,376,631.9141,380,627.9141" style="stroke:#181818;stroke-width:1.0;"/><line style="stroke:#181818;stroke-width:1.0;" x1="112" x2="382" y1="627.9141" y2="627.9141"/><text fill="#000000" font-family="sans-serif" font-size="13" lengthAdjust="spacing" textLength="42" x="119" y="622.8481">trigger</text><polygon fill="#181818" points="494.5,653.0469,504.5,657.0469,494.5,661.0469,498.5,657.0469" style="stroke:#181818;stroke-width:1.0;"/><line style="stroke:#181818;stroke-width:1.0;" x1="388" x2="500.5" y1="657.0469" y2="657.0469"/><text fill="#000000" font-family="sans-serif" font-size="13" lengthAdjust="spacing" textLength="21" x="395" y="651.981">run</text><polygon fill="#181818" points="123,682.1797,113,686.1797,123,690.1797,119,686.1797" style="stroke:#181818;stroke-width:1.0;"/><line style="stroke:#181818;stroke-width:1.0;" x1="117" x2="505.5" y1="686.1797" y2="686.1797"/><text fill="#000000" font-family="sans-serif" font-size="13" lengthAdjust="spacing" textLength="165" x="129" y="681.1138">dispatch "styles-changed"</text><path d="M10,708.1797 L165,708.1797 L165,715.3125 L155,725.3125 L10,725.3125 L10,708.1797 " fill="#EEEEEE" style="stroke:#000000;stroke-width:1.5;"/><rect fill="none" height="218.9297" style="stroke:#000000;stroke-width:1.5;" width="706" x="10" y="708.1797"/><text fill="#000000" font-family="sans-serif" font-size="13" font-weight="bold" lengthAdjust="spacing" textLength="110" x="25" y="721.2466">Class Changed</text><polygon fill="#181818" points="100,742.4453,110,746.4453,100,750.4453,104,746.4453" style="stroke:#181818;stroke-width:1.0;"/><line style="stroke:#181818;stroke-width:1.0;" x1="39" x2="106" y1="746.4453" y2="746.4453"/><text fill="#000000" font-family="sans-serif" font-size="13" lengthAdjust="spacing" textLength="49" x="46" y="741.3794">interact</text><line style="stroke:#181818;stroke-width:1.0;" x1="112" x2="154" y1="775.5781" y2="775.5781"/><line style="stroke:#181818;stroke-width:1.0;" x1="154" x2="154" y1="775.5781" y2="788.5781"/><line style="stroke:#181818;stroke-width:1.0;" x1="113" x2="154" y1="788.5781" y2="788.5781"/><polygon fill="#181818" points="123,784.5781,113,788.5781,123,792.5781,119,788.5781" style="stroke:#181818;stroke-width:1.0;"/><text fill="#000000" font-family="sans-serif" font-size="13" lengthAdjust="spacing" textLength="176" x="119" y="770.5122">change DOM-element class</text><polygon fill="#181818" points="376,813.7109,386,817.7109,376,821.7109,380,817.7109" style="stroke:#181818;stroke-width:1.0;"/><line style="stroke:#181818;stroke-width:1.0;" x1="112" x2="382" y1="817.7109" y2="817.7109"/><text fill="#000000" font-family="sans-serif" font-size="13" lengthAdjust="spacing" textLength="42" x="119" y="812.645">trigger</text><polygon fill="#181818" points="633.5,842.8438,643.5,846.8438,633.5,850.8438,637.5,846.8438" style="stroke:#181818;stroke-width:1.0;"/><line style="stroke:#181818;stroke-width:1.0;" x1="388" x2="639.5" y1="846.8438" y2="846.8438"/><text fill="#000000" font-family="sans-serif" font-size="13" lengthAdjust="spacing" textLength="21" x="395" y="841.7778">run</text><rect fill="#EEEEEE" height="3" style="stroke:#EEEEEE;stroke-width:1.0;" width="726" x="0" y="875.4102"/><line style="stroke:#000000;stroke-width:1.0;" x1="0" x2="726" y1="875.4102" y2="875.4102"/><line style="stroke:#000000;stroke-width:1.0;" x1="0" x2="726" y1="878.4102" y2="878.4102"/><rect fill="#EEEEEE" height="23.1328" style="stroke:#000000;stroke-width:2.0;" width="56" x="335" y="864.8438"/><text fill="#000000" font-family="sans-serif" font-size="13" font-weight="bold" lengthAdjust="spacing" textLength="42" x="341" y="880.9106">async</text><polygon fill="#181818" points="123,915.1094,113,919.1094,123,923.1094,119,919.1094" style="stroke:#181818;stroke-width:1.0;"/><line style="stroke:#181818;stroke-width:1.0;" x1="117" x2="644.5" y1="919.1094" y2="919.1094"/><text fill="#000000" font-family="sans-serif" font-size="13" lengthAdjust="spacing" textLength="165" x="129" y="914.0435">dispatch "styles-changed"</text><!--MD5=[9f499c6a08868c5c51b79bd065fbb288]
@startuml init_workflow
  title Initial Workflow

  actor User
  participant Window
  control robserver
  control mobserver
  control dispatchImmediate
  control dispatchDelayed

  group Init
    User -> Window: open

    create dispatchDelayed
    Window -> dispatchDelayed: creates

    create dispatchImmediate
    Window -> dispatchImmediate: creates

    Window -> mobserver: enable
    Window -> robserver: enable
  end

  group Window Resized
    User -> Window: resize
    Window -> robserver: trigger
    robserver -> dispatchImmediate: run
    dispatchImmediate -> Window: dispatch "styles-changed"
  end

  group Style Changed
    User -> Window: interact
    Window -> Window: change DOM-element style
    Window -> mobserver: trigger
    mobserver -> dispatchImmediate: run
    dispatchImmediate -> Window: dispatch "styles-changed"
  end

  group Class Changed
    User -> Window: interact
    Window -> Window: change DOM-element class
    Window -> mobserver: trigger
    mobserver -> dispatchDelayed: run
    ==async==
    dispatchDelayed -> Window: dispatch "styles-changed"
  end
@enduml

PlantUML version 1.2022.7(Mon Aug 22 19:01:30 CEST 2022)
(GPL source distribution)
Java Runtime: OpenJDK Runtime Environment
JVM: OpenJDK 64-Bit Server VM
Default Encoding: UTF-8
Language: en
Country: US
--></g></svg>