<?xml version="1.0" encoding="UTF-8" standalone="no"?><svg xmlns="http://www.w3.org/2000/svg" xmlns:xlink="http://www.w3.org/1999/xlink" contentStyleType="text/css" height="412px" preserveAspectRatio="none" style="width:1090px;height:412px;background:#FFFFFF;" version="1.1" viewBox="0 0 1090 412" width="1090px" zoomAndPan="magnify"><defs/><g><rect fill="none" height="26.2969" id="_title" style="stroke:none;stroke-width:1.0;" width="272" x="410.75" y="10"/><text fill="#000000" font-family="sans-serif" font-size="14" font-weight="bold" lengthAdjust="spacing" textLength="262" x="415.75" y="27.9951">&lt;polar-plane/&gt; remove workflow</text><rect fill="#E0E0E0" height="362.7891" style="stroke:#181818;stroke-width:0.5;" width="652" x="416.5" y="43.2969"/><text fill="#000000" font-family="sans-serif" font-size="13" font-weight="bold" lengthAdjust="spacing" textLength="111" x="684.5" y="55.3638">&lt;polar-plane/&gt;</text><rect fill="#B3E5FC" height="206.9297" style="stroke:#000000;stroke-width:1.5;" width="963.5" x="121" y="143.8594"/><rect fill="#039BE5" height="133.6641" style="stroke:#000000;stroke-width:1.5;" width="943.5" x="131" y="167.9922"/><line style="stroke:#181818;stroke-width:0.5;stroke-dasharray:5.0,5.0;" x1="175" x2="175" y1="97.7266" y2="367.7891"/><line style="stroke:#181818;stroke-width:0.5;stroke-dasharray:5.0,5.0;" x1="502.5" x2="502.5" y1="97.7266" y2="367.7891"/><line style="stroke:#181818;stroke-width:0.5;stroke-dasharray:5.0,5.0;" x1="747" x2="747" y1="97.7266" y2="367.7891"/><line style="stroke:#181818;stroke-width:0.5;stroke-dasharray:5.0,5.0;" x1="990.5" x2="990.5" y1="97.7266" y2="367.7891"/><rect fill="#E2E2F0" height="30.2969" rx="2.5" ry="2.5" style="stroke:#181818;stroke-width:0.5;" width="68" x="141" y="66.4297"/><text fill="#000000" font-family="sans-serif" font-size="14" lengthAdjust="spacing" textLength="54" x="148" y="86.4248">Window</text><rect fill="#E2E2F0" height="30.2969" rx="2.5" ry="2.5" style="stroke:#181818;stroke-width:0.5;" width="68" x="141" y="366.7891"/><text fill="#000000" font-family="sans-serif" font-size="14" lengthAdjust="spacing" textLength="54" x="148" y="386.7842">Window</text><rect fill="#E2E2F0" height="30.2969" rx="2.5" ry="2.5" style="stroke:#181818;stroke-width:0.5;" width="165" x="420.5" y="66.4297"/><text fill="#000000" font-family="sans-serif" font-size="14" lengthAdjust="spacing" textLength="151" x="427.5" y="86.4248">AbstractChartElement</text><rect fill="#E2E2F0" height="30.2969" rx="2.5" ry="2.5" style="stroke:#181818;stroke-width:0.5;" width="165" x="420.5" y="366.7891"/><text fill="#000000" font-family="sans-serif" font-size="14" lengthAdjust="spacing" textLength="151" x="427.5" y="386.7842">AbstractChartElement</text><rect fill="#E2E2F0" height="30.2969" rx="2.5" ry="2.5" style="stroke:#181818;stroke-width:0.5;" width="166" x="664" y="66.4297"/><text fill="#000000" font-family="sans-serif" font-size="14" lengthAdjust="spacing" textLength="152" x="671" y="86.4248">AbstractPlaneElement</text><rect fill="#E2E2F0" height="30.2969" rx="2.5" ry="2.5" style="stroke:#181818;stroke-width:0.5;" width="166" x="664" y="366.7891"/><text fill="#000000" font-family="sans-serif" font-size="14" lengthAdjust="spacing" textLength="152" x="671" y="386.7842">AbstractPlaneElement</text><rect fill="#E2E2F0" height="30.2969" style="stroke:#181818;stroke-width:0.5;" width="143" x="921.5" y="62.4297"/><rect fill="#E2E2F0" height="30.2969" style="stroke:#181818;stroke-width:0.5;" width="143" x="917.5" y="66.4297"/><text fill="#000000" font-family="sans-serif" font-size="14" lengthAdjust="spacing" textLength="129" x="924.5" y="86.4248">PolarPlaneElement</text><rect fill="#E2E2F0" height="30.2969" style="stroke:#181818;stroke-width:0.5;" width="143" x="921.5" y="366.7891"/><rect fill="#E2E2F0" height="30.2969" style="stroke:#181818;stroke-width:0.5;" width="143" x="917.5" y="370.7891"/><text fill="#000000" font-family="sans-serif" font-size="14" lengthAdjust="spacing" textLength="129" x="924.5" y="390.7842">PolarPlaneElement</text><polygon fill="#181818" points="163,124.8594,173,128.8594,163,132.8594,167,128.8594" style="stroke:#181818;stroke-width:1.0;"/><line style="stroke:#181818;stroke-width:1.0;" x1="0" x2="169" y1="128.8594" y2="128.8594"/><text fill="#000000" font-family="sans-serif" font-size="13" lengthAdjust="spacing" textLength="151" x="7" y="123.7935">remove &lt;polar-plane/&gt;</text><path d="M121,143.8594 L250,143.8594 L250,150.9922 L240,160.9922 L121,160.9922 L121,143.8594 " fill="#EEEEEE" style="stroke:#000000;stroke-width:1.5;"/><rect fill="none" height="206.9297" style="stroke:#000000;stroke-width:1.5;" width="963.5" x="121" y="143.8594"/><text fill="#000000" font-family="sans-serif" font-size="13" font-weight="bold" lengthAdjust="spacing" textLength="84" x="136" y="156.9263">Pre-Update</text><path d="M131,167.9922 L338,167.9922 L338,175.125 L328,185.125 L131,185.125 L131,167.9922 " fill="#EEEEEE" style="stroke:#000000;stroke-width:1.5;"/><rect fill="none" height="133.6641" style="stroke:#000000;stroke-width:1.5;" width="943.5" x="131" y="167.9922"/><text fill="#000000" font-family="sans-serif" font-size="13" font-weight="bold" lengthAdjust="spacing" textLength="162" x="146" y="181.0591">disconnectedCallback</text><polygon fill="#181818" points="979,202.2578,989,206.2578,979,210.2578,983,206.2578" style="stroke:#181818;stroke-width:1.0;"/><line style="stroke:#181818;stroke-width:1.0;" x1="503" x2="985" y1="206.2578" y2="206.2578"/><text fill="#000000" font-family="sans-serif" font-size="13" lengthAdjust="spacing" textLength="207" x="510" y="201.1919">runs this.disconnectedCallback()</text><polygon fill="#181818" points="758,231.3906,748,235.3906,758,239.3906,754,235.3906" style="stroke:#181818;stroke-width:1.0;"/><line style="stroke:#181818;stroke-width:1.0;" x1="752" x2="990" y1="235.3906" y2="235.3906"/><text fill="#000000" font-family="sans-serif" font-size="13" lengthAdjust="spacing" textLength="220" x="764" y="230.3247">runs super.disconnectedCallback()</text><polygon fill="#181818" points="514,260.5234,504,264.5234,514,268.5234,510,264.5234" style="stroke:#181818;stroke-width:1.0;"/><line style="stroke:#181818;stroke-width:1.0;" x1="508" x2="746" y1="264.5234" y2="264.5234"/><text fill="#000000" font-family="sans-serif" font-size="13" lengthAdjust="spacing" textLength="220" x="520" y="259.4575">runs super.disconnectedCallback()</text><polygon fill="#181818" points="186,289.6563,176,293.6563,186,297.6563,182,293.6563" style="stroke:#181818;stroke-width:1.0;"/><line style="stroke:#181818;stroke-width:1.0;" x1="180" x2="502" y1="293.6563" y2="293.6563"/><text fill="#000000" font-family="sans-serif" font-size="13" lengthAdjust="spacing" textLength="173" x="192" y="288.5903">runs removeEventListener(</text><text fill="#000000" font-family="sans-serif" font-size="13" font-weight="bold" lengthAdjust="spacing" textLength="126" x="365" y="288.5903">"styles-changed"</text><text fill="#000000" font-family="sans-serif" font-size="13" lengthAdjust="spacing" textLength="5" x="491" y="288.5903">)</text><line style="stroke:#181818;stroke-width:1.0;" x1="503" x2="545" y1="329.7891" y2="329.7891"/><line style="stroke:#181818;stroke-width:1.0;" x1="545" x2="545" y1="329.7891" y2="342.7891"/><line style="stroke:#181818;stroke-width:1.0;" x1="504" x2="545" y1="342.7891" y2="342.7891"/><polygon fill="#181818" points="514,338.7891,504,342.7891,514,346.7891,510,342.7891" style="stroke:#181818;stroke-width:1.0;"/><text fill="#000000" font-family="sans-serif" font-size="13" lengthAdjust="spacing" textLength="138" x="510" y="324.7231">runs requestUpdate()</text><!--MD5=[39f01164775ea718519732eb843b7ba6]
@startuml polar_plane_remove
  title <polar-plane/> remove workflow

  participant Window

  box <polar-plane/> #e0e0e0
    participant AbstractChartElement
    participant AbstractPlaneElement
    collections PolarPlaneElement
  end box

  -> Window: remove <polar-plane/>

  group #b3e5fc Pre-Update

    group #039be5 disconnectedCallback
      AbstractChartElement -> PolarPlaneElement: runs this.disconnectedCallback()
      AbstractPlaneElement <- PolarPlaneElement: runs super.disconnectedCallback()
      AbstractChartElement <- AbstractPlaneElement: runs super.disconnectedCallback()
      AbstractChartElement -> Window: runs removeEventListener(<b>"styles-changed"</b>)
    end

    AbstractChartElement -> AbstractChartElement: runs requestUpdate()
  end
@enduml

PlantUML version 1.2022.7(Mon Aug 22 19:01:30 CEST 2022)
(GPL source distribution)
Java Runtime: OpenJDK Runtime Environment
JVM: OpenJDK 64-Bit Server VM
Default Encoding: UTF-8
Language: en
Country: US
--></g></svg>